<svg width="261" height="70" viewBox="0 0 261 70" fill="none" xmlns="http://www.w3.org/2000/svg">
    <path d="M4.31055 0H0.730713V53.1833H4.31055V0Z" fill="black"/>
    <path d="M7.89051 0H6.10059V53.1833H7.89051V0Z" fill="black"/>
    <path d="M16.84 0H11.4702V53.1833H16.84V0Z" fill="black"/>
    <path d="M22.2096 0H20.4197V53.1833H22.2096V0Z" fill="black"/>
    <path d="M27.5796 0H23.9998V53.1833H27.5796V0Z" fill="black"/>
    <path d="M36.5292 0H31.1594V53.1833H36.5292V0Z" fill="black"/>
    <path d="M41.8988 0H40.1089V53.1833H41.8988V0Z" fill="black"/>
    <path d="M47.2686 0H43.6887V53.1833H47.2686V0Z" fill="black"/>
    <path d="M58.0082 0H52.6384V53.1833H58.0082V0Z" fill="black"/>
    <path d="M63.3779 0H59.7981V53.1833H63.3779V0Z" fill="black"/>
    <path d="M68.7477 0H66.9578V53.1833H68.7477V0Z" fill="black"/>
    <path d="M77.6972 0H72.3274V53.1833H77.6972V0Z" fill="black"/>
    <path d="M81.2772 0H79.4873V53.1833H81.2772V0Z" fill="black"/>
    <path d="M88.4369 0H86.647V53.1833H88.4369V0Z" fill="black"/>
    <path d="M97.3865 0H90.2268V53.1833H97.3865V0Z" fill="black"/>
    <path d="M100.966 0H99.1763V53.1833H100.966V0Z" fill="black"/>
    <path d="M106.336 0H102.756V53.1833H106.336V0Z" fill="black"/>
    <path d="M115.286 0H109.916V53.1833H115.286V0Z" fill="black"/>
    <path d="M122.445 0H118.865V53.1833H122.445V0Z" fill="black"/>
    <path d="M127.815 0H124.235V53.1833H127.815V0Z" fill="black"/>
    <path d="M136.765 0H133.185V53.1833H136.765V0Z" fill="black"/>
    <path d="M143.924 0H138.554V53.1833H143.924V0Z" fill="black"/>
    <path d="M149.294 0H145.714V53.1833H149.294V0Z" fill="black"/>
    <path d="M156.454 0H151.084V53.1833H156.454V0Z" fill="black"/>
    <path d="M160.034 0H158.244V53.1833H160.034V0Z" fill="black"/>
    <path d="M165.403 0H161.823V53.1833H165.403V0Z" fill="black"/>
    <path d="M174.353 0H168.983V53.1833H174.353V0Z" fill="black"/>
    <path d="M183.303 0H177.933V53.1833H183.303V0Z" fill="black"/>
    <path d="M186.882 0H185.093V53.1833H186.882V0Z" fill="black"/>
    <path d="M195.832 0H188.672V53.1833H195.832V0Z" fill="black"/>
    <path d="M201.202 0H197.622V53.1833H201.202V0Z" fill="black"/>
    <path d="M206.571 0H204.781V53.1833H206.571V0Z" fill="black"/>
    <path d="M213.731 0H208.362V53.1833H213.731V0Z" fill="black"/>
    <path d="M220.891 0H217.311V53.1833H220.891V0Z" fill="black"/>
    <path d="M229.841 0H228.051V53.1833H229.841V0Z" fill="black"/>
    <path d="M233.421 0H231.631V53.1833H233.421V0Z" fill="black"/>
    <path d="M240.58 0H237V53.1833H240.58V0Z" fill="black"/>
    <path d="M251.319 0H245.95V53.1833H251.319V0Z" fill="black"/>
    <path d="M254.9 0H253.11V53.1833H254.9V0Z" fill="black"/>
    <path d="M260.269 0H256.689V53.1833H260.269V0Z" fill="black"/>
    <path d="M77.1912 69.4395H76.1305V62.0555H76.0807L74.0172 63.4229V62.3621L76.1305 60.9533H77.1912V69.4395ZM79.4087 68.6687L82.3009 65.619C82.6821 65.2129 82.9722 64.887 83.1711 64.6411C83.3727 64.3925 83.5261 64.1535 83.631 63.9243C83.736 63.6922 83.7899 63.4505 83.7926 63.1991C83.7899 62.9118 83.7139 62.6591 83.5647 62.4408C83.4183 62.2226 83.2167 62.0541 82.9598 61.9353C82.7056 61.8165 82.4197 61.7571 82.102 61.7571C81.7705 61.7571 81.4791 61.8234 81.2277 61.956C80.9791 62.0886 80.7871 62.2751 80.6518 62.5154C80.5192 62.7558 80.4529 63.0334 80.4529 63.3483H79.4501C79.4473 62.8566 79.562 62.4215 79.794 62.043C80.0288 61.6618 80.3506 61.3662 80.7595 61.1563C81.1683 60.9436 81.6269 60.8372 82.1352 60.8372C82.6379 60.8372 83.0896 60.9422 83.4901 61.1522C83.8935 61.3593 84.2084 61.6425 84.4349 62.0016C84.6614 62.3607 84.7761 62.7599 84.7788 63.1991C84.7761 63.5223 84.7153 63.8317 84.5965 64.1273C84.4805 64.4201 84.283 64.7461 84.004 65.1052C83.7277 65.4643 83.3341 65.9063 82.823 66.4312L80.8838 68.4367V68.503H84.928V69.4395H79.4169L79.4087 68.6687ZM86.0292 66.8372L89.8497 60.9533H91.1425V66.7792H92.3359V67.7074H91.1425V69.4395H90.1397V67.7074H86.0292V66.8372ZM90.1397 66.7792V62.2875H90.0403L87.1646 66.7129V66.7792H90.1397ZM96.6224 69.5555C96.0644 69.5555 95.5644 69.4616 95.1224 69.2737C94.6804 69.0859 94.331 68.822 94.0741 68.4823C93.8199 68.1425 93.6832 67.7516 93.6638 67.3096H94.7329C94.7522 67.572 94.8462 67.8027 95.0147 68.0016C95.1832 68.1977 95.4055 68.3497 95.6818 68.4574C95.9608 68.5651 96.2688 68.619 96.6058 68.619C96.976 68.619 97.3075 68.5569 97.6003 68.4325C97.8931 68.3055 98.1224 68.1287 98.2881 67.9022C98.4539 67.6756 98.5368 67.4174 98.5368 67.1273C98.5368 66.8179 98.4553 66.5444 98.2923 66.3069C98.1321 66.0693 97.8973 65.8842 97.5879 65.7516C97.2785 65.619 96.9069 65.5527 96.4732 65.5527H95.7854V64.6245H96.4732C96.8158 64.6245 97.1196 64.5638 97.3848 64.4422C97.6528 64.3207 97.86 64.1508 98.0064 63.9325C98.1555 63.7116 98.2301 63.456 98.2301 63.166C98.2301 62.887 98.1652 62.6411 98.0354 62.4284C97.9055 62.2157 97.7205 62.0513 97.4801 61.9353C97.2398 61.8165 96.9594 61.7571 96.639 61.7571C96.3351 61.7571 96.0492 61.811 95.7812 61.9187C95.516 62.0265 95.3006 62.1812 95.1348 62.3828C94.9691 62.5817 94.8793 62.8151 94.8655 63.0831H93.8462C93.8627 62.6466 93.9981 62.2585 94.2522 61.9187C94.5064 61.5762 94.8448 61.311 95.2674 61.1232C95.6901 60.9325 96.1528 60.8372 96.6555 60.8372C97.1776 60.8372 97.6348 60.9408 98.0271 61.148C98.4221 61.3552 98.7246 61.6328 98.9346 61.9809C99.1473 62.329 99.2522 62.7074 99.2495 63.1162C99.2522 63.4312 99.1956 63.7185 99.0796 63.9781C98.9636 64.2378 98.7964 64.4574 98.5782 64.637C98.36 64.8165 98.1031 64.9477 97.8075 65.0306V65.0969C98.1721 65.1522 98.487 65.2723 98.7522 65.4574C99.0202 65.6397 99.2246 65.8759 99.3655 66.166C99.5064 66.4533 99.5754 66.7765 99.5727 67.1356C99.5754 67.5914 99.4484 68.0044 99.1915 68.3745C98.9373 68.7419 98.5837 69.0306 98.1307 69.2406C97.6804 69.4505 97.1776 69.5555 96.6224 69.5555ZM101.051 68.6687L103.943 65.619C104.324 65.2129 104.614 64.887 104.813 64.6411C105.015 64.3925 105.168 64.1535 105.273 63.9243C105.378 63.6922 105.432 63.4505 105.435 63.1991C105.432 62.9118 105.356 62.6591 105.207 62.4408C105.06 62.2226 104.859 62.0541 104.602 61.9353C104.348 61.8165 104.062 61.7571 103.744 61.7571C103.413 61.7571 103.121 61.8234 102.87 61.956C102.621 62.0886 102.429 62.2751 102.294 62.5154C102.161 62.7558 102.095 63.0334 102.095 63.3483H101.092C101.089 62.8566 101.204 62.4215 101.436 62.043C101.671 61.6618 101.993 61.3662 102.401 61.1563C102.81 60.9436 103.269 60.8372 103.777 60.8372C104.28 60.8372 104.732 60.9422 105.132 61.1522C105.535 61.3593 105.85 61.6425 106.077 62.0016C106.303 62.3607 106.418 62.7599 106.421 63.1991C106.418 63.5223 106.357 63.8317 106.239 64.1273C106.122 64.4201 105.925 64.7461 105.646 65.1052C105.37 65.4643 104.976 65.9063 104.465 66.4312L102.526 68.4367V68.503H106.57V69.4395H101.059L101.051 68.6687ZM110.842 69.5555C110.218 69.5555 109.683 69.3856 109.239 69.0458C108.797 68.7033 108.458 68.206 108.223 67.5541C107.991 66.9022 107.875 66.1162 107.875 65.1964C107.875 64.2848 107.993 63.503 108.228 62.8511C108.462 62.1964 108.802 61.6977 109.247 61.3552C109.692 61.0099 110.223 60.8372 110.842 60.8372C111.461 60.8372 111.993 61.0099 112.437 61.3552C112.882 61.6977 113.222 62.1964 113.457 62.8511C113.692 63.503 113.809 64.2848 113.809 65.1964C113.809 66.1162 113.692 66.9022 113.457 67.5541C113.225 68.206 112.886 68.7033 112.442 69.0458C112 69.3856 111.466 69.5555 110.842 69.5555ZM108.903 65.1964C108.903 65.9229 108.979 66.543 109.131 67.0569C109.283 67.5679 109.504 67.956 109.794 68.2212C110.084 68.4864 110.433 68.619 110.842 68.619C111.251 68.619 111.6 68.4864 111.89 68.2212C112.181 67.956 112.402 67.5679 112.553 67.0569C112.705 66.543 112.781 65.9229 112.781 65.1964C112.781 64.4698 112.704 63.8497 112.549 63.3359C112.397 62.8193 112.176 62.427 111.886 62.1591C111.596 61.8911 111.248 61.7571 110.842 61.7571C110.436 61.7571 110.088 61.8911 109.798 62.1591C109.508 62.427 109.286 62.8193 109.131 63.3359C108.979 63.8497 108.903 64.4698 108.903 65.1964ZM117.971 60.8372C118.515 60.8372 119.021 60.9616 119.488 61.2102C119.955 61.4588 120.337 61.8828 120.636 62.4823C120.937 63.079 121.087 63.8704 121.087 64.8566C121.087 65.8511 120.957 66.7005 120.698 67.4049C120.438 68.1066 120.066 68.6411 119.583 69.0085C119.1 69.3732 118.526 69.5555 117.863 69.5555C117.374 69.5555 116.934 69.4616 116.542 69.2737C116.149 69.0859 115.829 68.822 115.58 68.4823C115.334 68.1397 115.176 67.7433 115.104 67.293H116.148C116.247 67.6936 116.444 68.0154 116.736 68.2585C117.032 68.4988 117.408 68.619 117.863 68.619C118.322 68.619 118.718 68.4906 119.053 68.2337C119.39 67.9767 119.648 67.6052 119.828 67.119C120.007 66.6301 120.098 66.0444 120.101 65.3621H119.985C119.739 65.7185 119.427 65.9961 119.049 66.195C118.673 66.3911 118.261 66.4892 117.814 66.4892C117.311 66.4892 116.847 66.369 116.421 66.1287C115.999 65.8856 115.662 65.55 115.41 65.1218C115.162 64.6936 115.037 64.2129 115.037 63.6798C115.037 63.1577 115.158 62.6798 115.398 62.2461C115.641 61.8124 115.985 61.4698 116.43 61.2185C116.877 60.9643 117.391 60.8372 117.971 60.8372ZM116.065 63.6715C116.065 64.0196 116.147 64.3386 116.31 64.6287C116.475 64.916 116.703 65.1439 116.993 65.3124C117.283 65.4781 117.609 65.561 117.971 65.561C118.33 65.561 118.659 65.4726 118.957 65.2958C119.258 65.1162 119.496 64.8801 119.67 64.5872C119.847 64.2944 119.935 63.9837 119.935 63.6549C119.935 63.329 119.851 63.0209 119.682 62.7309C119.514 62.4408 119.282 62.2074 118.986 62.0306C118.694 61.8538 118.366 61.7654 118.004 61.7654C117.642 61.7654 117.312 61.8511 117.014 62.0223C116.718 62.1936 116.485 62.4256 116.314 62.7185C116.145 63.0085 116.062 63.3262 116.065 63.6715ZM122.295 66.8372L126.115 60.9533H127.408V66.7792H128.601V67.7074H127.408V69.4395H126.405V67.7074H122.295V66.8372ZM126.405 66.7792V62.2875H126.306L123.43 66.7129V66.7792H126.405ZM132.837 69.4395H131.776V62.0555H131.726L129.663 63.4229V62.3621L131.776 60.9533H132.837V69.4395ZM135.054 68.6687L137.947 65.619C138.328 65.2129 138.618 64.887 138.817 64.6411C139.018 64.3925 139.172 64.1535 139.277 63.9243C139.382 63.6922 139.435 63.4505 139.438 63.1991C139.435 62.9118 139.359 62.6591 139.21 62.4408C139.064 62.2226 138.862 62.0541 138.605 61.9353C138.351 61.8165 138.065 61.7571 137.748 61.7571C137.416 61.7571 137.125 61.8234 136.873 61.956C136.625 62.0886 136.433 62.2751 136.297 62.5154C136.165 62.7558 136.098 63.0334 136.098 63.3483H135.096C135.093 62.8566 135.208 62.4215 135.44 62.043C135.674 61.6618 135.996 61.3662 136.405 61.1563C136.814 60.9436 137.272 60.8372 137.781 60.8372C138.284 60.8372 138.735 60.9422 139.136 61.1522C139.539 61.3593 139.854 61.6425 140.08 62.0016C140.307 62.3607 140.422 62.7599 140.424 63.1991C140.422 63.5223 140.361 63.8317 140.242 64.1273C140.126 64.4201 139.929 64.7461 139.65 65.1052C139.373 65.4643 138.98 65.9063 138.469 66.4312L136.529 68.4367V68.503H140.574V69.4395H135.063L135.054 68.6687ZM145.003 69.5555C144.445 69.5555 143.945 69.4616 143.503 69.2737C143.061 69.0859 142.712 68.822 142.455 68.4823C142.201 68.1425 142.064 67.7516 142.045 67.3096H143.114C143.133 67.572 143.227 67.8027 143.395 68.0016C143.564 68.1977 143.786 68.3497 144.063 68.4574C144.342 68.5651 144.65 68.619 144.987 68.619C145.357 68.619 145.688 68.5569 145.981 68.4325C146.274 68.3055 146.503 68.1287 146.669 67.9022C146.835 67.6756 146.918 67.4174 146.918 67.1273C146.918 66.8179 146.836 66.5444 146.673 66.3069C146.513 66.0693 146.278 65.8842 145.969 65.7516C145.659 65.619 145.288 65.5527 144.854 65.5527H144.166V64.6245H144.854C145.197 64.6245 145.5 64.5638 145.766 64.4422C146.034 64.3207 146.241 64.1508 146.387 63.9325C146.536 63.7116 146.611 63.456 146.611 63.166C146.611 62.887 146.546 62.6411 146.416 62.4284C146.286 62.2157 146.101 62.0513 145.861 61.9353C145.621 61.8165 145.34 61.7571 145.02 61.7571C144.716 61.7571 144.43 61.811 144.162 61.9187C143.897 62.0265 143.681 62.1812 143.516 62.3828C143.35 62.5817 143.26 62.8151 143.246 63.0831H142.227C142.244 62.6466 142.379 62.2585 142.633 61.9187C142.887 61.5762 143.226 61.311 143.648 61.1232C144.071 60.9325 144.534 60.8372 145.036 60.8372C145.558 60.8372 146.016 60.9408 146.408 61.148C146.803 61.3552 147.105 61.6328 147.315 61.9809C147.528 62.329 147.633 62.7074 147.63 63.1162C147.633 63.4312 147.576 63.7185 147.46 63.9781C147.344 64.2378 147.177 64.4574 146.959 64.637C146.741 64.8165 146.484 64.9477 146.188 65.0306V65.0969C146.553 65.1522 146.868 65.2723 147.133 65.4574C147.401 65.6397 147.605 65.8759 147.746 66.166C147.887 66.4533 147.956 66.7765 147.953 67.1356C147.956 67.5914 147.829 68.0044 147.572 68.3745C147.318 68.7419 146.965 69.0306 146.511 69.2406C146.061 69.4505 145.558 69.5555 145.003 69.5555ZM152.44 69.4395H151.379V62.0555H151.329L149.266 63.4229V62.3621L151.379 60.9533H152.44V69.4395ZM154.657 68.6687L157.549 65.619C157.931 65.2129 158.221 64.887 158.42 64.6411C158.621 64.3925 158.775 64.1535 158.88 63.9243C158.985 63.6922 159.038 63.4505 159.041 63.1991C159.038 62.9118 158.962 62.6591 158.813 62.4408C158.667 62.2226 158.465 62.0541 158.208 61.9353C157.954 61.8165 157.668 61.7571 157.351 61.7571C157.019 61.7571 156.728 61.8234 156.476 61.956C156.228 62.0886 156.036 62.2751 155.9 62.5154C155.768 62.7558 155.701 63.0334 155.701 63.3483H154.699C154.696 62.8566 154.811 62.4215 155.043 62.043C155.277 61.6618 155.599 61.3662 156.008 61.1563C156.417 60.9436 156.875 60.8372 157.384 60.8372C157.886 60.8372 158.338 60.9422 158.739 61.1522C159.142 61.3593 159.457 61.6425 159.683 62.0016C159.91 62.3607 160.025 62.7599 160.027 63.1991C160.025 63.5223 159.964 63.8317 159.845 64.1273C159.729 64.4201 159.531 64.7461 159.252 65.1052C158.976 65.4643 158.583 65.9063 158.072 66.4312L156.132 68.4367V68.503H160.177V69.4395H154.665L154.657 68.6687ZM164.606 69.5555C164.048 69.5555 163.548 69.4616 163.106 69.2737C162.664 69.0859 162.315 68.822 162.058 68.4823C161.804 68.1425 161.667 67.7516 161.648 67.3096H162.717C162.736 67.572 162.83 67.8027 162.998 68.0016C163.167 68.1977 163.389 68.3497 163.666 68.4574C163.945 68.5651 164.253 68.619 164.59 68.619C164.96 68.619 165.291 68.5569 165.584 68.4325C165.877 68.3055 166.106 68.1287 166.272 67.9022C166.438 67.6756 166.521 67.4174 166.521 67.1273C166.521 66.8179 166.439 66.5444 166.276 66.3069C166.116 66.0693 165.881 65.8842 165.572 65.7516C165.262 65.619 164.891 65.5527 164.457 65.5527H163.769V64.6245H164.457C164.8 64.6245 165.103 64.5638 165.369 64.4422C165.637 64.3207 165.844 64.1508 165.99 63.9325C166.139 63.7116 166.214 63.456 166.214 63.166C166.214 62.887 166.149 62.6411 166.019 62.4284C165.889 62.2157 165.704 62.0513 165.464 61.9353C165.224 61.8165 164.943 61.7571 164.623 61.7571C164.319 61.7571 164.033 61.811 163.765 61.9187C163.5 62.0265 163.284 62.1812 163.119 62.3828C162.953 62.5817 162.863 62.8151 162.849 63.0831H161.83C161.846 62.6466 161.982 62.2585 162.236 61.9187C162.49 61.5762 162.829 61.311 163.251 61.1232C163.674 60.9325 164.137 60.8372 164.639 60.8372C165.161 60.8372 165.619 60.9408 166.011 61.148C166.406 61.3552 166.708 61.6328 166.918 61.9809C167.131 62.329 167.236 62.7074 167.233 63.1162C167.236 63.4312 167.179 63.7185 167.063 63.9781C166.947 64.2378 166.78 64.4574 166.562 64.637C166.344 64.8165 166.087 64.9477 165.791 65.0306V65.0969C166.156 65.1522 166.471 65.2723 166.736 65.4574C167.004 65.6397 167.208 65.8759 167.349 66.166C167.49 66.4533 167.559 66.7765 167.556 67.1356C167.559 67.5914 167.432 68.0044 167.175 68.3745C166.921 68.7419 166.567 69.0306 166.114 69.2406C165.664 69.4505 165.161 69.5555 164.606 69.5555ZM172.043 69.4395H170.982V62.0555H170.932L168.869 63.4229V62.3621L170.982 60.9533H172.043V69.4395ZM174.26 68.6687L177.152 65.619C177.534 65.2129 177.824 64.887 178.023 64.6411C178.224 64.3925 178.378 64.1535 178.483 63.9243C178.587 63.6922 178.641 63.4505 178.644 63.1991C178.641 62.9118 178.565 62.6591 178.416 62.4408C178.27 62.2226 178.068 62.0541 177.811 61.9353C177.557 61.8165 177.271 61.7571 176.953 61.7571C176.622 61.7571 176.331 61.8234 176.079 61.956C175.831 62.0886 175.639 62.2751 175.503 62.5154C175.371 62.7558 175.304 63.0334 175.304 63.3483H174.302C174.299 62.8566 174.413 62.4215 174.645 62.043C174.88 61.6618 175.202 61.3662 175.611 61.1563C176.02 60.9436 176.478 60.8372 176.987 60.8372C177.489 60.8372 177.941 60.9422 178.342 61.1522C178.745 61.3593 179.06 61.6425 179.286 62.0016C179.513 62.3607 179.628 62.7599 179.63 63.1991C179.628 63.5223 179.567 63.8317 179.448 64.1273C179.332 64.4201 179.134 64.7461 178.855 65.1052C178.579 65.4643 178.186 65.9063 177.674 66.4312L175.735 68.4367V68.503H179.779V69.4395H174.268L174.26 68.6687ZM184.209 69.5555C183.651 69.5555 183.151 69.4616 182.709 69.2737C182.267 69.0859 181.918 68.822 181.661 68.4823C181.407 68.1425 181.27 67.7516 181.251 67.3096H182.32C182.339 67.572 182.433 67.8027 182.601 68.0016C182.77 68.1977 182.992 68.3497 183.268 68.4574C183.547 68.5651 183.855 68.619 184.193 68.619C184.563 68.619 184.894 68.5569 185.187 68.4325C185.48 68.3055 185.709 68.1287 185.875 67.9022C186.041 67.6756 186.123 67.4174 186.123 67.1273C186.123 66.8179 186.042 66.5444 185.879 66.3069C185.719 66.0693 185.484 65.8842 185.175 65.7516C184.865 65.619 184.494 65.5527 184.06 65.5527H183.372V64.6245H184.06C184.402 64.6245 184.706 64.5638 184.972 64.4422C185.239 64.3207 185.447 64.1508 185.593 63.9325C185.742 63.7116 185.817 63.456 185.817 63.166C185.817 62.887 185.752 62.6411 185.622 62.4284C185.492 62.2157 185.307 62.0513 185.067 61.9353C184.826 61.8165 184.546 61.7571 184.226 61.7571C183.922 61.7571 183.636 61.811 183.368 61.9187C183.103 62.0265 182.887 62.1812 182.722 62.3828C182.556 62.5817 182.466 62.8151 182.452 63.0831H181.433C181.449 62.6466 181.585 62.2585 181.839 61.9187C182.093 61.5762 182.431 61.311 182.854 61.1232C183.277 60.9325 183.739 60.8372 184.242 60.8372C184.764 60.8372 185.222 60.9408 185.614 61.148C186.009 61.3552 186.311 61.6328 186.521 61.9809C186.734 62.329 186.839 62.7074 186.836 63.1162C186.839 63.4312 186.782 63.7185 186.666 63.9781C186.55 64.2378 186.383 64.4574 186.165 64.637C185.947 64.8165 185.69 64.9477 185.394 65.0306V65.0969C185.759 65.1522 186.074 65.2723 186.339 65.4574C186.607 65.6397 186.811 65.8759 186.952 66.166C187.093 66.4533 187.162 66.7765 187.159 67.1356C187.162 67.5914 187.035 68.0044 186.778 68.3745C186.524 68.7419 186.17 69.0306 185.717 69.2406C185.267 69.4505 184.764 69.5555 184.209 69.5555Z" fill="black"/>
</svg>