<svg width="50" height="50" viewBox="0 0 50 50" fill="none" xmlns="http://www.w3.org/2000/svg">
    <rect width="50" height="50" rx="12" fill="white"/>
    <path d="M24.5516 39.1414C26.8233 39.1414 28.6648 37.3962 28.6648 35.2434H20.4385C20.4385 37.3962 22.28 39.1414 24.5516 39.1414Z" fill="#F57828"/>
    <rect x="23.5381" y="10" width="1.61897" height="3.64268" rx="0.809485" fill="#FAA037"/>
    <path fill-rule="evenodd" clip-rule="evenodd" d="M24.5256 12.1013C18.4706 12.1013 13.5621 17.0098 13.5621 23.0648V29.3151L12.0488 34.0115C11.8408 34.6572 12.3223 35.3182 13.0006 35.3182H36.0513C36.7297 35.3182 37.2112 34.6572 37.0031 34.0115L35.4891 29.3127V23.0648C35.4891 17.0098 30.5805 12.1013 24.5256 12.1013Z" fill="#FAA037"/>
    <path fill-rule="evenodd" clip-rule="evenodd" d="M31.4344 35.3182C31.9064 35.0274 32.1631 34.4283 31.9772 33.8393L30.5189 29.2179V22.6819C30.5189 17.947 27.7086 13.8823 23.6982 12.1321C23.9717 12.1117 24.2479 12.1013 24.5265 12.1013C30.5815 12.1013 35.49 17.0098 35.49 23.0648V29.3134L36.9136 33.7316C37.1662 34.5156 36.5816 35.3182 35.7579 35.3182H31.4344Z" fill="#F57828"/>
    <circle cx="36.9424" cy="12.5708" r="2" fill="#EA1D2D"/>
</svg>
