<svg width="15" height="16" viewBox="0 0 15 16" fill="none" xmlns="http://www.w3.org/2000/svg">
<path d="M6.59413 1.43747C6.95349 0.668869 8.04651 0.668869 8.40588 1.43747L9.91878 4.67326C10.0602 4.97565 10.3431 5.18755 10.673 5.23816L14.1418 5.7702C14.9452 5.89343 15.2738 6.87275 14.7073 7.4556L12.1304 10.1071C11.9098 10.334 11.8097 10.652 11.8604 10.9644L12.4594 14.6503C12.5933 15.4748 11.7174 16.0904 10.9871 15.6851L7.98523 14.0193C7.68342 13.8518 7.31658 13.8518 7.01477 14.0193L4.01293 15.6851C3.28261 16.0904 2.40669 15.4748 2.54065 14.6503L3.13956 10.9644C3.19032 10.652 3.0902 10.334 2.86961 10.1071L0.292662 7.4556C-0.273813 6.87275 0.0547796 5.89343 0.858165 5.7702L4.32695 5.23816C4.6569 5.18755 4.93984 4.97565 5.08122 4.67326L6.59413 1.43747Z" fill="#00BB78"/>
</svg>
