<svg width="24" height="24" viewBox="0 0 24 24" fill="none" xmlns="http://www.w3.org/2000/svg">
    <path d="M3.67876 9.65839L3.1833 9.09535H3.1833L3.67876 9.65839ZM9.5 21.8714V22.6214C9.91421 22.6214 10.25 22.2856 10.25 21.8714H9.5ZM14.5 21.8714H13.75C13.75 22.2856 14.0858 22.6214 14.5 22.6214V21.8714ZM20.3212 9.65839L19.8258 10.2214L19.8258 10.2214L20.3212 9.65839ZM13.3212 3.49856L13.8167 2.93551V2.93551L13.3212 3.49856ZM10.6788 3.49856L11.1742 4.0616V4.0616L10.6788 3.49856ZM3.75 11.1598C3.75 10.8006 3.90455 10.4587 4.17423 10.2214L3.1833 9.09535C2.59001 9.61744 2.25 10.3695 2.25 11.1598H3.75ZM3.75 19.8714V11.1598H2.25V19.8714H3.75ZM5 21.1214C4.30964 21.1214 3.75 20.5617 3.75 19.8714H2.25C2.25 21.3902 3.48122 22.6214 5 22.6214V21.1214ZM9.5 21.1214H5V22.6214H9.5V21.1214ZM10.25 21.8714V17.8617H8.75V21.8714H10.25ZM10.25 17.8617C10.25 17.7236 10.3619 17.6117 10.5 17.6117V16.1117C9.5335 16.1117 8.75 16.8952 8.75 17.8617H10.25ZM10.5 17.6117H13.5V16.1117H10.5V17.6117ZM13.5 17.6117C13.6381 17.6117 13.75 17.7236 13.75 17.8617H15.25C15.25 16.8952 14.4665 16.1117 13.5 16.1117V17.6117ZM13.75 17.8617V21.8714H15.25V17.8617H13.75ZM19 21.1214H14.5V22.6214H19V21.1214ZM20.25 19.8714C20.25 20.5617 19.6904 21.1214 19 21.1214V22.6214C20.5188 22.6214 21.75 21.3902 21.75 19.8714H20.25ZM20.25 11.1598V19.8714H21.75V11.1598H20.25ZM19.8258 10.2214C20.0955 10.4587 20.25 10.8006 20.25 11.1598H21.75C21.75 10.3695 21.41 9.61744 20.8167 9.09535L19.8258 10.2214ZM12.8258 4.0616L19.8258 10.2214L20.8167 9.09535L13.8167 2.93551L12.8258 4.0616ZM11.1742 4.0616C11.6464 3.64613 12.3536 3.64613 12.8258 4.0616L13.8167 2.93551C12.778 2.0215 11.222 2.02149 10.1833 2.93551L11.1742 4.0616ZM4.17423 10.2214L11.1742 4.0616L10.1833 2.93551L3.1833 9.09535L4.17423 10.2214Z" fill="#373E49"/>
</svg>