<svg width="81" height="80" viewBox="0 0 81 80" fill="none" xmlns="http://www.w3.org/2000/svg">
    <path d="M69.2505 60.8118C68.4504 60.8118 67.6889 60.3448 67.3519 59.5639L59.774 42.0078C59.322 40.9604 59.805 39.745 60.8531 39.2932C61.9009 38.8414 63.1171 39.3242 63.5694 40.3716L71.1472 57.9277C71.5993 58.9751 71.1162 60.1905 70.0681 60.6423C69.8014 60.7573 69.5237 60.8118 69.2505 60.8118Z" fill="#333333"/>
    <path d="M12.6006 43.1963L17.4717 72.1907C17.8431 74.401 19.5476 76 21.5321 76H61.4142C63.3987 76 65.1032 74.4008 65.4746 72.1907L68.4006 43.1963H12.6006Z" fill="#00A171"/>
    <path fill-rule="evenodd" clip-rule="evenodd" d="M51.3379 58.7071C51.3379 57.5242 52.2974 56.5652 53.4811 56.5652H68.7897C69.9734 56.5652 70.933 57.5242 70.933 58.7071C70.933 59.8901 69.9734 60.849 68.7897 60.849H53.4811C52.2974 60.849 51.3379 59.8901 51.3379 58.7071Z" fill="#333333"/>
    <path d="M12.6006 43.1963L15.5266 72.1907C15.898 74.401 17.6025 76 19.587 76H46.9475C48.932 76 50.6365 74.4008 51.0079 72.1907L53.9339 43.1963H12.6006Z" fill="#00BB78"/>
    <path d="M70.4667 43.1963H10.5333C9.96267 43.1963 9.5 42.7339 9.5 42.1636V38.0327C9.5 37.4624 9.96267 37 10.5333 37H70.4667C71.0373 37 71.5 37.4624 71.5 38.0327V42.1636C71.5 42.7339 71.0373 43.1963 70.4667 43.1963Z" fill="#00A171"/>
    <path d="M55.0547 47.3271L55.879 43.1963H12.6006L13.4249 47.3271H55.0547Z" fill="#00A171"/>
    <path d="M56 43.1963H10.5333C9.96267 43.1963 9.5 42.7339 9.5 42.1636V38.0327C9.5 37.4624 9.96267 37 10.5333 37H56C56.5707 37 57.0333 37.4624 57.0333 38.0327V42.1636C57.0333 42.7339 56.5707 43.1963 56 43.1963Z" fill="#00BB78"/>
    <path d="M42.5658 58.9104H40.4992C39.9285 58.9104 39.4658 58.448 39.4658 57.8777V53.7468C39.4658 53.1765 39.9285 52.7141 40.4992 52.7141H42.5658C43.1365 52.7141 43.5992 53.1765 43.5992 53.7468V57.8777C43.5992 58.448 43.1365 58.9104 42.5658 58.9104Z" fill="white"/>
    <path d="M34.2992 58.9104H32.2326C31.6619 58.9104 31.1992 58.448 31.1992 57.8777V53.7468C31.1992 53.1765 31.6619 52.7141 32.2326 52.7141H34.2992C34.8699 52.7141 35.3326 53.1765 35.3326 53.7468V57.8777C35.3326 58.448 34.8699 58.9104 34.2992 58.9104Z" fill="white"/>
    <path d="M26.0326 58.9104H23.966C23.3953 58.9104 22.9326 58.448 22.9326 57.8777V53.7468C22.9326 53.1765 23.3953 52.7141 23.966 52.7141H26.0326C26.6033 52.7141 27.066 53.1765 27.066 53.7468V57.8777C27.066 58.448 26.6033 58.9104 26.0326 58.9104Z" fill="white"/>
    <path d="M42.5658 69.2375H40.4992C39.9285 69.2375 39.4658 68.7751 39.4658 68.2048V64.074C39.4658 63.5037 39.9285 63.0413 40.4992 63.0413H42.5658C43.1365 63.0413 43.5992 63.5037 43.5992 64.074V68.2048C43.5992 68.7751 43.1365 69.2375 42.5658 69.2375Z" fill="white"/>
    <path d="M34.2992 69.2375H32.2326C31.6619 69.2375 31.1992 68.7751 31.1992 68.2048V64.074C31.1992 63.5037 31.6619 63.0413 32.2326 63.0413H34.2992C34.8699 63.0413 35.3326 63.5037 35.3326 64.074V68.2048C35.3326 68.7751 34.8699 69.2375 34.2992 69.2375Z" fill="white"/>
    <path d="M26.0326 69.2375H23.966C23.3953 69.2375 22.9326 68.7751 22.9326 68.2048V64.074C22.9326 63.5037 23.3953 63.0413 23.966 63.0413H26.0326C26.6033 63.0413 27.066 63.5037 27.066 64.074V68.2048C27.066 68.7751 26.6033 69.2375 26.0326 69.2375Z" fill="white"/>
    <path d="M12.6815 60.8118C12.4083 60.8118 12.1307 60.7573 11.8638 60.6423C10.8158 60.1905 10.3327 58.9751 10.7848 57.9277L18.3626 40.3716C18.8147 39.3242 20.0311 38.8414 21.0789 39.2932C22.1269 39.745 22.61 40.9604 22.1579 42.0078L14.5801 59.5639C14.2431 60.3448 13.4814 60.8118 12.6815 60.8118Z" fill="#333333"/>
    <path d="M53.3286 60.8121C52.5286 60.8121 51.767 60.345 51.43 59.5642L43.8522 42.0081C43.4001 40.9607 43.8832 39.7453 44.9312 39.2935C45.979 38.8417 47.1953 39.3245 47.6475 40.3719L55.2253 57.928C55.6774 58.9754 55.1943 60.1908 54.1462 60.6426C53.8795 60.7576 53.6018 60.8121 53.3286 60.8121Z" fill="#333333"/>
    <path d="M40.5005 14V22.75" stroke="#C2C6CC" stroke-width="3" stroke-linecap="round"/>
    <path d="M25.5 15.8713L27.7647 24.3232" stroke="#C2C6CC" stroke-width="3" stroke-linecap="round"/>
    <path d="M55.5 15.8728L53.2353 24.3247" stroke="#C2C6CC" stroke-width="3" stroke-linecap="round"/>
</svg>
