<svg width="61" height="60" viewBox="0 0 61 60" fill="none" xmlns="http://www.w3.org/2000/svg">
  <rect x="0.22229" width="60" height="60" rx="12" fill="#F3F6FA"/>
  <path d="M23.6075 35.5125H21.3684C19.5135 35.5125 18.0098 37.0518 18.0098 38.9507C18.0098 40.8496 19.5135 42.3889 21.3684 42.3889H23.6075C25.4624 42.3889 26.9661 40.8496 26.9661 38.9507C26.9661 37.0518 25.4624 35.5125 23.6075 35.5125Z" fill="#333333"/>
  <rect x="19.5173" y="17.7648" width="19.675" height="21.1841" rx="4" fill="#D41B29"/>
  <rect x="14.2223" y="17.7648" width="14.6432" height="21.1841" rx="4" fill="#EA1D2D"/>
  <path d="M41.7436 35.5125H41.5196C39.6647 35.5125 38.161 37.0518 38.161 38.9507C38.161 40.8496 39.6647 42.3889 41.5196 42.3889H41.7436C43.5985 42.3889 45.1022 40.8496 45.1022 38.9507C45.1022 37.0518 43.5985 35.5125 41.7436 35.5125Z" fill="#333333"/>
  <path d="M34.8026 35.5125H32.5635C30.7085 35.5125 29.2048 37.0518 29.2048 38.9507C29.2048 40.8496 30.7085 42.3889 32.5635 42.3889H34.8026C36.6575 42.3889 38.1612 40.8496 38.1612 38.9507C38.1612 37.0518 36.6575 35.5125 34.8026 35.5125Z" fill="#333333"/>
  <path d="M45.1023 38.9499H29.2047C28.5864 38.9499 28.0852 38.4368 28.0852 37.8038V32.0734H46.2218V37.8038C46.2218 38.4368 45.7206 38.9499 45.1023 38.9499Z" fill="#D9DCE1"/>
  <path d="M41.5345 24.6255H29.765C28.8375 24.6255 28.0857 25.3952 28.0857 26.3446V32.075H46.2223C46.2223 31.323 46.038 30.583 45.6862 29.9228L43.5001 25.8201C43.1078 25.0836 42.3539 24.6255 41.5345 24.6255Z" fill="#333333"/>
  <path d="M32.3542 24.6255H29.765C28.8375 24.6255 28.0857 25.3952 28.0857 26.3446V32.075H37.042C37.042 31.323 36.8577 30.583 36.5059 29.9228L34.3199 25.8201C33.9275 25.0836 33.1736 24.6255 32.3542 24.6255Z" fill="#55595E"/>
  <path d="M35.922 38.9499H29.2047C28.5864 38.9499 28.0852 38.4368 28.0852 37.8038V32.0734H37.0416V37.8038C37.0416 38.4368 36.5403 38.9499 35.922 38.9499Z" fill="#F3F6FA"/>
  <path d="M40.4007 37.2317C41.019 37.2317 41.5202 36.7186 41.5202 36.0857C41.5202 35.4527 41.019 34.9396 40.4007 34.9396C39.7824 34.9396 39.2811 35.4527 39.2811 36.0857C39.2811 36.7186 39.7824 37.2317 40.4007 37.2317Z" fill="white"/>
  <path d="M43.8713 37.2317C44.4896 37.2317 44.9908 36.7186 44.9908 36.0857C44.9908 35.4527 44.4896 34.9396 43.8713 34.9396C43.2529 34.9396 42.7517 35.4527 42.7517 36.0857C42.7517 36.7186 43.2529 37.2317 43.8713 37.2317Z" fill="white"/>
  <path d="M32.5635 42.3889C34.4184 42.3889 35.9221 40.8496 35.9221 38.9507C35.9221 37.0518 34.4184 35.5125 32.5635 35.5125C30.7085 35.5125 29.2048 37.0518 29.2048 38.9507C29.2048 40.8496 30.7085 42.3889 32.5635 42.3889Z" fill="#55595E"/>
  <path d="M32.563 40.0967C33.1813 40.0967 33.6826 39.5836 33.6826 38.9506C33.6826 38.3177 33.1813 37.8046 32.563 37.8046C31.9447 37.8046 31.4435 38.3177 31.4435 38.9506C31.4435 39.5836 31.9447 40.0967 32.563 40.0967Z" fill="white"/>
  <path d="M21.3684 42.3889C23.2233 42.3889 24.727 40.8496 24.727 38.9507C24.727 37.0518 23.2233 35.5125 21.3684 35.5125C19.5135 35.5125 18.0098 37.0518 18.0098 38.9507C18.0098 40.8496 19.5135 42.3889 21.3684 42.3889Z" fill="#55595E"/>
  <path d="M21.3681 40.0967C21.9864 40.0967 22.4876 39.5836 22.4876 38.9506C22.4876 38.3177 21.9864 37.8046 21.3681 37.8046C20.7498 37.8046 20.2485 38.3177 20.2485 38.9506C20.2485 39.5836 20.7498 40.0967 21.3681 40.0967Z" fill="white"/>
  <path d="M43.7797 26.3446L43.5002 25.8201C43.1078 25.0837 42.3539 24.6255 41.5345 24.6255H29.765C28.8375 24.6255 28.0857 25.3952 28.0857 26.3446H43.7797Z" fill="#D9DCE1"/>
  <path d="M28.0857 26.3446H34.5994L34.3199 25.8201C33.9275 25.0837 33.1736 24.6255 32.3542 24.6255H29.765C28.8375 24.6255 28.0857 25.3952 28.0857 26.3446Z" fill="#F3F6FA"/>
</svg>
