<svg width="18" height="18" viewBox="0 0 18 18" fill="none" xmlns="http://www.w3.org/2000/svg">
    <path d="M16.954 9.11734C16.9307 9.06467 16.366 7.812 15.1107 6.55667C13.438 4.884 11.3253 4 9 4C6.67466 4 4.562 4.884 2.88933 6.55667C1.63399 7.812 1.06666 9.06667 1.04599 9.11734C1.01567 9.18554 1 9.25936 1 9.334C1 9.40865 1.01567 9.48246 1.04599 9.55067C1.06933 9.60334 1.63399 10.8553 2.88933 12.1107C4.562 13.7827 6.67466 14.6667 9 14.6667C11.3253 14.6667 13.438 13.7827 15.1107 12.1107C16.366 10.8553 16.9307 9.60334 16.954 9.55067C16.9843 9.48246 17 9.40865 17 9.334C17 9.25936 16.9843 9.18554 16.954 9.11734ZM9 13.6C6.948 13.6 5.15533 12.854 3.67133 11.3833C3.06245 10.7778 2.54441 10.0873 2.13333 9.33334C2.54425 8.57928 3.0623 7.88877 3.67133 7.28334C5.15533 5.81267 6.948 5.06667 9 5.06667C11.052 5.06667 12.8447 5.81267 14.3287 7.28334C14.9387 7.88867 15.4579 8.57917 15.87 9.33334C15.3893 10.2307 13.2953 13.6 9 13.6ZM9 6.13333C8.3671 6.13333 7.74841 6.32101 7.22217 6.67263C6.69594 7.02425 6.28578 7.52403 6.04358 8.10875C5.80138 8.69347 5.73801 9.33689 5.86148 9.95763C5.98496 10.5784 6.28973 11.1486 6.73726 11.5961C7.18479 12.0436 7.75497 12.3484 8.37571 12.4719C8.99645 12.5953 9.63986 12.532 10.2246 12.2898C10.8093 12.0476 11.3091 11.6374 11.6607 11.1112C12.0123 10.5849 12.2 9.96624 12.2 9.33334C12.1991 8.48491 11.8617 7.67149 11.2618 7.07157C10.6618 6.47164 9.84842 6.13422 9 6.13333ZM9 11.4667C8.57807 11.4667 8.16561 11.3416 7.81478 11.1071C7.46396 10.8727 7.19052 10.5395 7.02906 10.1497C6.86759 9.75991 6.82534 9.33097 6.90766 8.91714C6.98997 8.50332 7.19315 8.12319 7.4915 7.82484C7.78986 7.52649 8.16998 7.32331 8.58381 7.24099C8.99763 7.15868 9.42658 7.20093 9.81639 7.36239C10.2062 7.52386 10.5394 7.79729 10.7738 8.14812C11.0082 8.49895 11.1333 8.9114 11.1333 9.33334C11.1333 9.89913 10.9086 10.4418 10.5085 10.8418C10.1084 11.2419 9.5658 11.4667 9 11.4667Z" fill="#55595E"/>
</svg>