<svg width="61" height="60" viewBox="0 0 61 60" fill="none" xmlns="http://www.w3.org/2000/svg">
  <rect x="0.333374" width="60" height="60" rx="12" fill="#F3F6FA"/>
  <path d="M27.2717 17.9425L18.1298 24.7241L18.1298 24.7241C17.4186 25.2517 17.063 25.5155 16.8064 25.8511C16.5792 26.1483 16.4095 26.4854 16.3062 26.8449C16.1896 27.2509 16.1896 27.6937 16.1896 28.5792V37.9133H44.7482V28.6638C44.7482 27.7485 44.7482 27.2909 44.6246 26.8736C44.515 26.5042 44.3354 26.1592 44.0954 25.8577C43.8243 25.5172 43.4493 25.2549 42.6993 24.7304L32.8826 17.8643C31.8636 17.1515 31.3541 16.7952 30.8013 16.6624C30.3131 16.5451 29.8033 16.5522 29.3186 16.6831C28.7698 16.8312 28.2704 17.2017 27.2717 17.9425Z" fill="#E65F0D"/>
  <path d="M18.3655 22.9988C18.3655 21.8787 18.3655 21.3187 18.5835 20.8908C18.7752 20.5145 19.0812 20.2086 19.4575 20.0168C19.8853 19.7988 20.4454 19.7988 21.5655 19.7988H39.4811C40.6012 19.7988 41.1613 19.7988 41.5891 20.0168C41.9654 20.2086 42.2714 20.5145 42.4631 20.8908C42.6811 21.3187 42.6811 21.8787 42.6811 22.9988V34.6026C42.6811 35.7227 42.6811 36.2828 42.4631 36.7106C42.2714 37.0869 41.9654 37.3929 41.5891 37.5846C41.1613 37.8026 40.6012 37.8026 39.4811 37.8026H21.5655C20.4454 37.8026 19.8853 37.8026 19.4575 37.5846C19.0812 37.3929 18.7752 37.0869 18.5835 36.7106C18.3655 36.2828 18.3655 35.7227 18.3655 34.6026V22.9988Z" fill="white"/>
  <rect x="32.563" y="23.7192" width="1.69719" height="5.98675" rx="0.848595" fill="#333333"/>
  <rect x="26.6229" y="23.7192" width="1.69719" height="5.98675" rx="0.848595" fill="#333333"/>
  <rect x="24.0771" y="23.7192" width="0.848595" height="5.98675" rx="0.424297" fill="#333333"/>
  <rect x="30.0171" y="23.7192" width="0.848595" height="5.98675" rx="0.424297" fill="#333333"/>
  <rect x="35.9578" y="23.7192" width="0.848595" height="5.98675" rx="0.424297" fill="#333333"/>
  <path d="M44.7483 27.3058L20.8902 42.3023C19.485 43.1856 18.7824 43.6272 18.6872 44.0236C18.6051 44.3658 18.7089 44.726 18.9605 44.972C19.252 45.2569 20.0819 45.2569 21.7416 45.2569H38.3483C40.5885 45.2569 41.7086 45.2569 42.5643 44.821C43.3169 44.4375 43.9288 43.8256 44.3123 43.0729C44.7483 42.2173 44.7483 41.0971 44.7483 38.8569V27.3058Z" fill="#E65F0D"/>
  <path d="M16.1896 27.3058L40.0477 42.3023C41.4529 43.1856 42.1555 43.6272 42.2506 44.0236C42.3327 44.3658 42.2289 44.726 41.9773 44.972C41.6859 45.2569 40.856 45.2569 39.1962 45.2569H22.5896C20.3494 45.2569 19.2293 45.2569 18.3736 44.821C17.621 44.4375 17.009 43.8256 16.6255 43.0729C16.1896 42.2173 16.1896 41.0971 16.1896 38.8569V27.3058Z" fill="#F37021"/>
</svg>
