<svg width="81" height="80" viewBox="0 0 81 80" fill="none" xmlns="http://www.w3.org/2000/svg">
<path d="M15 36H69V70.6C69 72.8402 69 73.9603 68.564 74.816C68.1805 75.5686 67.5686 76.1805 66.816 76.564C65.9603 77 64.8402 77 62.6 77H21.4C19.1598 77 18.0397 77 17.184 76.564C16.4314 76.1805 15.8195 75.5686 15.436 74.816C15 73.9603 15 72.8402 15 70.6V36Z" fill="#A9ADB4"/>
<path d="M12 36H48V70.6C48 72.8402 48 73.9603 47.564 74.816C47.1805 75.5686 46.5686 76.1805 45.816 76.564C44.9603 77 43.8402 77 41.6 77H18.4C16.1598 77 15.0397 77 14.184 76.564C13.4314 76.1805 12.8195 75.5686 12.436 74.816C12 73.9603 12 72.8402 12 70.6V36Z" fill="#C2C6CC"/>
<path d="M30.5483 74.9441C30.5483 76.0794 31.536 76.9996 32.7545 76.9996H26.1359C24.9174 76.9996 23.9297 76.0794 23.9297 74.9441V40H30.5483V74.9441Z" fill="#A9ADB4"/>
<path d="M61.0202 74.9446C61.0202 76.0799 60.0325 77.0001 58.8139 77.0001H52.1953C53.4138 77.0001 54.4015 76.0799 54.4015 74.9446V40.0005H61.0202V74.9446Z" fill="#777C84"/>
<path d="M11.6936 36H48.052L40.2277 47.0522C39.1771 48.5362 38.6518 49.2782 37.9727 49.8144C37.3714 50.2892 36.6847 50.6444 35.9498 50.8608C35.1198 51.1053 34.2107 51.1053 32.3924 51.1053H7.18613C5.18584 51.1053 4.1857 51.1053 3.64635 50.6901C3.17675 50.3286 2.89164 49.7774 2.86794 49.1853C2.84071 48.5052 3.4186 47.6889 4.57437 46.0563L11.6936 36Z" fill="#D9DCE1"/>
<path d="M68.8447 36H48.0511L56.1908 47.1617C57.2445 48.6067 57.7714 49.3292 58.4455 49.8507C59.0425 50.3126 59.7212 50.6577 60.4462 50.8679C61.2648 51.1053 62.1589 51.1053 63.9473 51.1053H73.454C75.4686 51.1053 76.4759 51.1053 77.0162 50.6876C77.4866 50.324 77.7708 49.77 77.7918 49.1759C77.8159 48.4934 77.2284 47.6752 76.0533 46.0388L68.8447 36Z" fill="#C2C6CC"/>
<circle cx="40.5" cy="18" r="15" fill="#00BB78"/>
<path d="M44.5 14L36.5 22" stroke="white" stroke-width="2" stroke-linecap="round"/>
<path d="M36.5 14L44.5 22" stroke="white" stroke-width="2" stroke-linecap="round"/>
</svg>
