<svg width="60" height="60" viewBox="0 0 60 60" fill="none" xmlns="http://www.w3.org/2000/svg">
    <path d="M21.5 33.25C21.5 30.4497 21.5 29.0496 22.045 27.98C22.5243 27.0392 23.2892 26.2743 24.23 25.795C25.2996 25.25 26.6997 25.25 29.5 25.25H46.5C49.3003 25.25 50.7004 25.25 51.77 25.795C52.7108 26.2743 53.4757 27.0392 53.955 27.98C54.5 29.0496 54.5 30.4497 54.5 33.25V45.75C54.5 48.5503 54.5 49.9504 53.955 51.02C53.4757 51.9608 52.7108 52.7257 51.77 53.205C50.7004 53.75 49.3003 53.75 46.5 53.75H29.5C26.6997 53.75 25.2996 53.75 24.23 53.205C23.2892 52.7257 22.5243 51.9608 22.045 51.02C21.5 49.9504 21.5 48.5503 21.5 45.75V33.25Z" fill="#F1F1F1"/>
    <path d="M21.5 46.25H54.5V49.45C54.5 51.1302 54.5 51.9702 54.173 52.612C53.8854 53.1765 53.4265 53.6354 52.862 53.923C52.2202 54.25 51.3802 54.25 49.7 54.25H26.3C24.6198 54.25 23.7798 54.25 23.138 53.923C22.5735 53.6354 22.1146 53.1765 21.827 52.612C21.5 51.9702 21.5 51.1302 21.5 49.45V46.25Z" fill="#D6D9E1"/>
    <path d="M36.5 41.45C36.5 40.3299 36.5 39.7698 36.282 39.342C36.0903 38.9657 35.7843 38.6597 35.408 38.468C34.9802 38.25 34.4201 38.25 33.3 38.25H29.7C28.5799 38.25 28.0198 38.25 27.592 38.468C27.2157 38.6597 26.9097 38.9657 26.718 39.342C26.5 39.7698 26.5 40.3299 26.5 41.45V54.25H36.5V41.45Z" fill="#00A171"/>
    <path d="M50.5 38.45C50.5 37.3299 50.5 36.7698 50.282 36.342C50.0903 35.9657 49.7843 35.6597 49.408 35.468C48.9802 35.25 48.4201 35.25 47.3 35.25H44.7C43.5799 35.25 43.0198 35.25 42.592 35.468C42.2157 35.6597 41.9097 35.9657 41.718 36.342C41.5 36.7698 41.5 37.3299 41.5 38.45V40.05C41.5 41.1701 41.5 41.7302 41.718 42.158C41.9097 42.5343 42.2157 42.8403 42.592 43.032C43.0198 43.25 43.5799 43.25 44.7 43.25H47.3C48.4201 43.25 48.9802 43.25 49.408 43.032C49.7843 42.8403 50.0903 42.5343 50.282 42.158C50.5 41.7302 50.5 41.1701 50.5 40.05V38.45Z" fill="white"/>
    <path d="M50.5 39.25C50.5 38.9739 50.2761 38.75 50 38.75H42C41.7239 38.75 41.5 38.9739 41.5 39.25C41.5 39.5261 41.7239 39.75 42 39.75H50C50.2761 39.75 50.5 39.5261 50.5 39.25Z" fill="#E8EBF0"/>
    <path d="M46.5 35.75C46.5 35.4739 46.2761 35.25 46 35.25C45.7239 35.25 45.5 35.4739 45.5 35.75V42.75C45.5 43.0261 45.7239 43.25 46 43.25C46.2761 43.25 46.5 43.0261 46.5 42.75V35.75Z" fill="#E8EBF0"/>
    <path d="M35 41.85C35 41.2899 35 41.0099 34.891 40.796C34.7951 40.6078 34.6422 40.4549 34.454 40.359C34.2401 40.25 33.9601 40.25 33.4 40.25H29.6C29.0399 40.25 28.7599 40.25 28.546 40.359C28.3578 40.4549 28.2049 40.6078 28.109 40.796C28 41.0099 28 41.2899 28 41.85V42.65C28 43.2101 28 43.4901 28.109 43.704C28.2049 43.8922 28.3578 44.0451 28.546 44.141C28.7599 44.25 29.0399 44.25 29.6 44.25H33.4C33.9601 44.25 34.2401 44.25 34.454 44.141C34.6422 44.0451 34.7951 43.8922 34.891 43.704C35 43.4901 35 43.2101 35 42.65V41.85Z" fill="#086D3A"/>
    <path d="M20.6247 17.01C20.9631 15.6805 22.1602 14.75 23.532 14.75H52.468C53.8398 14.75 55.0369 15.6805 55.3753 17.01L58.3653 28.7566C58.6872 30.021 57.7318 31.25 56.4271 31.25H19.5729C18.2682 31.25 17.3128 30.021 17.6347 28.7566L20.6247 17.01Z" fill="#00A171"/>
    <path d="M27.2 14.75H48.8L51.5 31.25H24.5L27.2 14.75Z" fill="#00BB78"/>
    <path d="M34.4 14.75H41.6L42.5 31.25H33.5L34.4 14.75Z" fill="#00A171"/>
    <rect x="1" y="38.25" width="16" height="16" rx="3" fill="#FFC47D"/>
    <path d="M7.1543 38.25H10.8466V41.5577C10.8466 42.11 10.3989 42.5577 9.8466 42.5577H8.1543C7.60201 42.5577 7.1543 42.11 7.1543 41.5577V38.25Z" fill="#CF9A5A"/>
    <rect x="2.59961" y="48.0957" width="5.53846" height="1.23077" rx="0.615385" fill="#55595E"/>
    <rect x="2.59961" y="50.5566" width="3.69231" height="1.23077" rx="0.615385" fill="#55595E"/>
    <rect opacity="0.6" x="0.5" y="1.75" width="59" height="59" fill="#D9DCE1"/>
</svg>