<svg width="18" height="18" viewBox="0 0 18 18" fill="none" xmlns="http://www.w3.org/2000/svg">
    <path d="M4.06133 3.11066C4.01449 3.05708 3.95764 3.01346 3.89408 2.98234C3.83051 2.95122 3.76149 2.93322 3.69101 2.92937C3.62054 2.92552 3.55001 2.93591 3.48352 2.95993C3.41703 2.98394 3.3559 3.02112 3.30367 3.06929C3.25144 3.11746 3.20915 3.17568 3.17925 3.24056C3.14935 3.30544 3.13244 3.3757 3.12949 3.44726C3.12655 3.51882 3.13763 3.59027 3.16209 3.65746C3.18655 3.72464 3.22391 3.78623 3.272 3.83866L4.55466 5.27099C2.13333 6.77909 1.09199 9.10383 1.04599 9.20938C1.01567 9.2786 1 9.35351 1 9.42927C1 9.50502 1.01567 9.57993 1.04599 9.64915C1.06933 9.7026 1.63399 10.9732 2.88933 12.2472C4.562 13.9441 6.67466 14.8413 9 14.8413C10.1951 14.8482 11.3781 14.5985 12.4713 14.1085L13.938 15.7465C13.9848 15.8001 14.0417 15.8437 14.1053 15.8748C14.1688 15.906 14.2378 15.924 14.3083 15.9278C14.3788 15.9317 14.4493 15.9213 14.5158 15.8973C14.5823 15.8732 14.6434 15.8361 14.6957 15.7879C14.7479 15.7397 14.7902 15.6815 14.8201 15.6166C14.85 15.5517 14.8669 15.4815 14.8698 15.4099C14.8728 15.3384 14.8617 15.2669 14.8372 15.1997C14.8128 15.1325 14.7754 15.0709 14.7273 15.0185L4.06133 3.11066ZM7.21667 8.24186L9.99467 11.344C9.57633 11.5673 9.09674 11.6434 8.63122 11.5601C8.1657 11.4769 7.7406 11.2391 7.42268 10.8841C7.10476 10.529 6.91202 10.0769 6.87473 9.59869C6.83745 9.12046 6.95772 8.6432 7.21667 8.24186ZM9 13.7587C6.948 13.7587 5.15533 13.0016 3.67133 11.5091C3.06223 10.8947 2.54417 10.1939 2.13333 9.42859C2.44599 8.83387 3.44399 7.16948 5.29 6.08762L6.49 7.42387C6.02542 8.02773 5.78615 8.77882 5.81449 9.5444C5.84282 10.31 6.13692 11.0407 6.64482 11.6075C7.15272 12.1743 7.8417 12.5406 8.58999 12.6417C9.33828 12.7428 10.0977 12.5722 10.734 12.16L11.716 13.256C10.8493 13.5935 9.92825 13.764 9 13.7587ZM9.4 7.30209C9.26103 7.27517 9.13828 7.19333 9.05877 7.07457C8.97925 6.9558 8.94948 6.80985 8.976 6.66881C9.00252 6.52777 9.08316 6.40319 9.20019 6.3225C9.31721 6.2418 9.46103 6.21158 9.6 6.2385C10.2797 6.37224 10.8987 6.7254 11.3645 7.24531C11.8303 7.76523 12.118 8.42403 12.1847 9.12345C12.1978 9.26637 12.1545 9.40875 12.0643 9.51927C11.974 9.62978 11.8442 9.69938 11.7033 9.71275C11.6867 9.71381 11.67 9.71381 11.6533 9.71275C11.52 9.71333 11.3913 9.66323 11.2926 9.57231C11.1939 9.4814 11.1323 9.35626 11.12 9.22155C11.0751 8.75633 10.8835 8.31824 10.5736 7.97241C10.2637 7.62658 9.85209 7.39149 9.4 7.30209ZM16.952 9.64915C16.924 9.71275 16.2487 11.2303 14.728 12.6126C14.676 12.6613 14.615 12.6991 14.5486 12.7237C14.4821 12.7482 14.4115 12.7591 14.3408 12.7557C14.2701 12.7523 14.2008 12.7347 14.1369 12.7039C14.073 12.673 14.0158 12.6296 13.9686 12.5761C13.9214 12.5226 13.8852 12.4601 13.8621 12.3922C13.8389 12.3244 13.8293 12.2525 13.8338 12.1809C13.8382 12.1092 13.8567 12.0392 13.8881 11.9748C13.9195 11.9105 13.9632 11.8531 14.0167 11.8061C14.7627 11.1259 15.3894 10.3219 15.87 9.42859C15.4582 8.66257 14.939 7.9613 14.3287 7.34674C12.8447 5.85555 11.052 5.09846 9 5.09846C8.56764 5.09793 8.13596 5.13346 7.70933 5.20468C7.63995 5.21713 7.56883 5.21551 7.50008 5.19991C7.43132 5.1843 7.36629 5.15503 7.30874 5.11378C7.2512 5.07252 7.20228 5.02011 7.16481 4.95956C7.12734 4.89901 7.10206 4.83152 7.09043 4.761C7.07881 4.69048 7.08107 4.61831 7.09708 4.54868C7.11309 4.47905 7.14253 4.41333 7.18371 4.35531C7.22489 4.2973 7.27699 4.24814 7.337 4.21067C7.39701 4.1732 7.46374 4.14818 7.53333 4.13703C8.01811 4.0558 8.50866 4.01529 9 4.01592C11.3253 4.01592 13.438 4.91307 15.1107 6.61062C16.366 7.88463 16.9307 9.15593 16.954 9.20938C16.9843 9.2786 17 9.35351 17 9.42927C17 9.50502 16.9843 9.57993 16.954 9.64915H16.952Z" fill="#C2C6CC"/>
</svg>
