<svg width="16" height="16" viewBox="0 0 16 16" fill="none" xmlns="http://www.w3.org/2000/svg">
<path d="M6.9851 3.32574C7.35388 2.57851 7.53827 2.20489 7.7886 2.08553C8.0064 1.98168 8.25944 1.98168 8.47724 2.08553C8.72757 2.20489 8.91197 2.57851 9.28075 3.32574L10.0393 4.86274C10.1483 5.08354 10.2028 5.19394 10.2824 5.27963C10.3529 5.3555 10.4375 5.41695 10.5315 5.46057C10.6376 5.50984 10.7594 5.52755 11.0031 5.56295L12.6992 5.80942C13.5239 5.92925 13.9362 5.98916 14.127 6.19035C14.2931 6.3654 14.3713 6.60606 14.3398 6.84529C14.3037 7.12025 14.0053 7.41107 13.4086 7.99271L12.1813 9.1891C12.0049 9.36096 11.9168 9.4469 11.8599 9.54913C11.8095 9.63964 11.7772 9.73907 11.7648 9.8419C11.7507 9.95804 11.7715 10.0794 11.8131 10.3221L12.1029 12.0114C12.2437 12.8327 12.3142 13.2433 12.1818 13.487C12.0667 13.6991 11.8619 13.8478 11.6247 13.8918C11.352 13.9424 10.9832 13.7485 10.2457 13.3607L8.72856 12.5631C8.51062 12.4486 8.40165 12.3913 8.28684 12.3688C8.1852 12.3488 8.08065 12.3488 7.979 12.3688C7.8642 12.3913 7.75523 12.4486 7.53729 12.5631L6.02018 13.3607C5.28262 13.7485 4.91384 13.9424 4.64115 13.8918C4.40391 13.8478 4.19919 13.6991 4.08403 13.487C3.95167 13.2433 4.0221 12.8327 4.16296 12.0114L4.45271 10.3221C4.49433 10.0794 4.51514 9.95804 4.50107 9.8419C4.48862 9.73907 4.45631 9.63964 4.40594 9.54913C4.34906 9.4469 4.2609 9.36096 4.08458 9.1891L2.85722 7.99271C2.26052 7.41107 1.96217 7.12025 1.926 6.84529C1.89453 6.60606 1.97273 6.3654 2.1388 6.19035C2.32968 5.98916 2.74199 5.92925 3.56661 5.80942L5.26279 5.56295C5.50645 5.52755 5.62829 5.50984 5.7344 5.46057C5.82834 5.41695 5.91292 5.3555 5.98344 5.27963C6.06309 5.19394 6.11758 5.08354 6.22655 4.86274L6.9851 3.32574Z" fill="#C2C6CC"/>
</svg>
