<svg width="300" height="300" viewBox="0 0 300 300" fill="none" xmlns="http://www.w3.org/2000/svg">
<rect width="300" height="300" fill="white"/>
<g clip-path="url(#clip0_5786_76498)">
<path d="M176.012 182.716C178.059 182.716 179.703 184.35 179.703 186.333C179.703 188.316 178.059 189.966 176.012 189.966C173.965 189.966 172.353 188.331 172.353 186.333C172.353 184.335 173.981 182.716 176.012 182.716ZM176.012 189.254C177.625 189.254 178.896 187.983 178.896 186.333C178.896 184.683 177.625 183.427 176.012 183.427C174.4 183.427 173.128 184.683 173.128 186.333C173.128 187.983 174.4 189.254 176.012 189.254ZM175.563 188.286H174.803V184.335H176.198C176.989 184.335 177.563 184.88 177.563 185.576C177.563 186.121 177.206 186.575 176.679 186.742L177.578 188.286H176.71L175.873 186.818H175.578V188.286H175.563ZM176.074 186.167C176.524 186.167 176.772 185.955 176.772 185.592C176.772 185.213 176.524 184.986 176.074 184.986H175.547V186.167H176.074Z" fill="#E8EBF0"/>
<path d="M193.825 155.184C191.84 155.184 190.445 156.092 189.173 157.121L188.258 158.392L187.933 158.165L189.049 156.334V155.184H181.963V178.099H188.398V163.554C188.398 161.192 190.026 160.451 191.127 160.299C192.182 160.163 193.546 160.738 193.546 162.025V178.084H199.981V162.297C199.981 157.409 197.717 155.184 193.825 155.184Z" fill="#E8EBF0"/>
<path d="M121.91 173.166H128.67V178.085H115.459V155.185H121.91V173.166Z" fill="#E8EBF0"/>
<path d="M100 178.084H113.211V173.589H106.435V168.458H113.211V164.174H106.435V159.861H113.211V155.184H100V178.084Z" fill="#E8EBF0"/>
<path d="M130.923 178.085H144.134V173.59H137.373V168.459H144.134V164.175H137.373V159.861H144.134V155.185H130.923V178.085Z" fill="#E8EBF0"/>
<path d="M166.509 178.085H179.72V173.59H172.944V168.459H179.72V164.175H172.944V159.861H179.72V155.185H166.509V178.085Z" fill="#E8EBF0"/>
<path d="M158.12 155.185L155.639 169.715L155.453 172.212L155.438 172.439H155.205L155.19 172.212L155.004 169.715L152.523 155.185H146.025L151.375 178.085H159.268L164.617 155.185H158.12Z" fill="#E8EBF0"/>
<path d="M183.904 85.0459H100V117.542H144.286C154.163 103.496 167.855 92.1748 183.904 85.0459Z" fill="#E8EBF0"/>
<path d="M133.335 215.001H166.627L166.673 182.52H133.397L133.335 215.001Z" fill="#E8EBF0"/>
<path d="M199.999 117.617V85C168.211 93.5365 143.401 118.51 135.771 149.992H169.839C174.956 135.614 185.934 123.929 199.983 117.632" fill="#E8EBF0"/>
</g>
<defs>
<clipPath id="clip0_5786_76498">
<rect width="100" height="130" fill="white" transform="translate(100 85)"/>
</clipPath>
</defs>
</svg>
