<svg width="81" height="80" viewBox="0 0 81 80" fill="none" xmlns="http://www.w3.org/2000/svg">
    <path d="M27.375 28.9064L15.615 34.1331C14.7553 34.5151 14.1247 35.2783 13.9115 36.1945L6.48683 68.1004C6.09934 69.7655 7.84437 71.1177 9.36004 70.3268L24.4583 62.448L27.375 28.9064Z" fill="#D9DCE1"/>
    <path d="M40.4992 34.7398L27.3742 28.9065L24.4575 62.4482L40.4992 72.6565V34.7398Z" fill="#C2C6CC"/>
    <path d="M53.625 28.9065L65.3819 34.1318C66.2433 34.5146 66.8747 35.2801 67.0866 36.1986L74.5064 68.3509C74.8932 70.027 73.1239 71.3771 71.6094 70.5616L56.5417 62.4482L53.625 28.9065Z" fill="#C2C6CC"/>
    <path d="M40.5 34.7398L53.625 28.9065L56.5417 62.4482L40.5 72.6565V34.7398Z" fill="#D9DCE1"/>
    <path d="M54.2098 16.3089C53.0606 14.0432 51.3603 12.1027 49.2651 10.6658C47.17 9.22895 44.7472 8.34184 42.2196 8.08604C41.0762 7.97132 39.9242 7.97132 38.7807 8.08604C36.2532 8.34201 33.8305 9.22909 31.7353 10.6658C29.64 12.1025 27.9395 14.0427 26.7898 16.3082C25.3434 19.1988 24.7847 22.4528 25.1841 25.6603C25.5835 28.8679 26.9232 31.8855 29.0343 34.3331L39.3291 46.8495C39.4712 47.0224 39.6499 47.1617 39.8524 47.2574C40.0548 47.353 40.2759 47.4026 40.4998 47.4026C40.7237 47.4026 40.9448 47.353 41.1472 47.2574C41.3496 47.1617 41.5284 47.0224 41.6705 46.8495L51.9653 34.3331C54.0764 31.8856 55.416 28.8681 55.8154 25.6607C56.2148 22.4533 55.6562 19.1994 54.2098 16.3089Z" fill="#00BB78"/>
    <path d="M44.5 19L36.5 27" stroke="white" stroke-width="2" stroke-linecap="round"/>
    <path d="M36.5 19L44.5 27" stroke="white" stroke-width="2" stroke-linecap="round"/>
</svg>
