<svg width="60" height="60" viewBox="0 0 60 60" fill="none" xmlns="http://www.w3.org/2000/svg">
  <rect width="60" height="60" rx="12" fill="#F3F6FA"/>
  <path d="M19.2479 16.8235H42.1947V35.8501C42.1947 37.5303 42.1947 38.3704 41.8677 39.0121C41.5801 39.5766 41.1212 40.0355 40.5567 40.3231C39.915 40.6501 39.0749 40.6501 37.3947 40.6501H24.0479C22.3678 40.6501 21.5277 40.6501 20.886 40.3231C20.3215 40.0355 19.8625 39.5766 19.5749 39.0121C19.2479 38.3704 19.2479 37.5303 19.2479 35.8501V16.8235Z" fill="#F57828"/>
  <path d="M17.17 16.8235H33.7259V35.8501C33.7259 37.5303 33.7259 38.3704 33.3989 39.0121C33.1113 39.5766 32.6523 40.0355 32.0879 40.3231C31.4461 40.6501 30.606 40.6501 28.9259 40.6501H23.57C21.3298 40.6501 20.2097 40.6501 19.3541 40.2141C18.6014 39.8307 17.9895 39.2187 17.606 38.4661C17.17 37.6104 17.17 36.4903 17.17 34.2501V16.8235Z" fill="#FAA037"/>
  <path d="M17.2147 16.8235H35.5002L32.9235 23.5142C32.3538 24.9932 32.069 25.7327 31.5831 26.2772C31.1538 26.7583 30.6145 27.1285 30.0113 27.3563C29.3284 27.614 28.536 27.614 26.9511 27.614H17.2147V16.8235Z" fill="#F57828"/>
  <path d="M16.9247 16.8235H33.7256L31.0998 23.0236C30.6515 24.0822 30.4273 24.6115 30.064 25.0002C29.7429 25.3438 29.3455 25.607 28.904 25.7687C28.4044 25.9517 27.8295 25.9517 26.6798 25.9517H16.6816C15.4713 25.9517 14.8661 25.9517 14.4868 25.6969C14.1551 25.4742 13.9261 25.1284 13.8503 24.7362C13.7636 24.2875 13.9996 23.7303 14.4716 22.6157L16.9247 16.8235Z" fill="#FAA037"/>
  <path d="M42.2981 16.8235H33.7256L36.4726 23.0811C36.9286 24.1198 37.1566 24.6392 37.5193 25.0202C37.8398 25.3569 38.2343 25.6146 38.6715 25.7727C39.1661 25.9517 39.7333 25.9517 40.8677 25.9517H42.6306C43.8561 25.9517 44.4688 25.9517 44.8498 25.6936C45.1828 25.4681 45.4113 25.1183 45.484 24.7227C45.5671 24.2701 45.3208 23.7091 44.8282 22.587L42.2981 16.8235Z" fill="#FAA037"/>
  <path d="M40.2815 39.9579L44.6335 44.3099" stroke="#333333" stroke-width="2" stroke-linecap="round"/>
  <path d="M43.081 37.034C43.081 40.0536 40.6332 42.5014 37.6136 42.5014C34.5941 42.5014 32.1462 40.0536 32.1462 37.034C32.1462 34.0145 34.5941 31.5667 37.6136 31.5667C40.6332 31.5667 43.081 34.0145 43.081 37.034Z" fill="white" stroke="#333333" stroke-width="2"/>
</svg>
