<svg width="24" height="24" viewBox="0 0 24 24" fill="none" xmlns="http://www.w3.org/2000/svg">
    <path d="M18.8232 2.73744C18.9209 2.63981 19.0791 2.63981 19.1768 2.73744L21.2981 4.85876C21.3957 4.95639 21.3957 5.11468 21.2981 5.21231L12.6765 13.8339C12.6443 13.8661 12.6038 13.889 12.5595 13.8999L9.42377 14.6723C9.40951 14.6758 9.40256 14.6742 9.39861 14.673C9.39266 14.6713 9.38444 14.6671 9.37646 14.6591C9.36848 14.6511 9.36425 14.6429 9.36249 14.6369C9.36132 14.633 9.35975 14.626 9.36326 14.6118L10.1357 11.476C10.1466 11.4317 10.1694 11.3913 10.2016 11.359L18.8232 2.73744Z" stroke="#55595E" stroke-width="1.5" stroke-linejoin="round"/>
    <path d="M11.5 4H7.8C6.11984 4 5.27976 4 4.63803 4.32698C4.07354 4.6146 3.6146 5.07354 3.32698 5.63803C3 6.27976 3 7.11984 3 8.8V16.2C3 17.8802 3 18.7202 3.32698 19.362C3.6146 19.9265 4.07354 20.3854 4.63803 20.673C5.27976 21 6.11984 21 7.8 21H15.2C16.8802 21 17.7202 21 18.362 20.673C18.9265 20.3854 19.3854 19.9265 19.673 19.362C20 18.7202 20 17.8802 20 16.2V12.5" stroke="#55595E" stroke-width="1.5" stroke-linecap="round"/>
</svg>
