<svg width="80" height="80" viewBox="0 0 80 80" fill="none" xmlns="http://www.w3.org/2000/svg">
    <path d="M60 24.1252L60 61.4019C60 64.7623 60 66.4424 59.346 67.7259C58.7708 68.8549 57.8529 69.7728 56.7239 70.348C55.4405 71.002 53.7603 71.002 50.4 71.002L19.6 71.0019C16.2397 71.0019 14.5595 71.0019 13.2761 70.348C12.1471 69.7727 11.2292 68.8549 10.654 67.7259C10 66.4424 10 64.7623 10 61.4019L10 18.6019C10 15.2416 10 13.5615 10.654 12.278C11.2292 11.149 12.1471 10.2312 13.2761 9.65591C14.5595 9.00195 16.2397 9.00195 19.6 9.00195L45.032 9.00195L60 24.1252Z" fill="#D9DCE1"/>
    <rect x="18" y="43.002" width="24" height="2" rx="1" fill="#777C84"/>
    <rect x="18" y="50.002" width="18" height="2" rx="1" fill="#777C84"/>
    <rect x="18" y="57.002" width="12" height="2" rx="1" fill="#777C84"/>
    <path d="M47.8285 24.002C46.1716 24.002 44.8285 22.6588 44.8285 21.002L44.8285 8.83041L60 24.002L47.8285 24.002Z" fill="#C2C6CC"/>
    <circle cx="57" cy="62" r="15" fill="#00BB78"/>
    <path d="M61 58L53 66" stroke="white" stroke-width="2" stroke-linecap="round"/>
    <path d="M53 58L61 66" stroke="white" stroke-width="2" stroke-linecap="round"/>
</svg>
