<svg width="81" height="80" viewBox="0 0 81 80" fill="none" xmlns="http://www.w3.org/2000/svg">
<path d="M40.0033 74C45.6158 74 50.1657 69.6881 50.1657 64.3691H29.8408C29.8408 69.6881 34.3907 74 40.0033 74Z" fill="#777C84"/>
<rect x="37.5" y="2" width="4" height="9" rx="2" fill="#C2C6CC"/>
<path fill-rule="evenodd" clip-rule="evenodd" d="M39.9404 7.19141C24.9803 7.19141 12.8528 19.3189 12.8528 34.2789V49.7198L9.33622 60.6334C8.71209 62.5704 10.1566 64.5535 12.1916 64.5535H67.6899C69.7249 64.5535 71.1694 62.5704 70.5453 60.6334L67.0279 49.7173V34.2789C67.0279 19.3189 54.9004 7.19141 39.9404 7.19141Z" fill="#D9DCE1"/>
<path fill-rule="evenodd" clip-rule="evenodd" d="M57.0088 64.5535C58.1749 63.835 58.8089 62.3549 58.3497 60.8996L54.7467 49.4815V33.3332C54.7467 21.6343 47.803 11.5915 37.8944 7.26752C38.5698 7.21708 39.2522 7.19141 39.9405 7.19141C54.9005 7.19141 67.028 19.3189 67.028 34.2789V49.7173L70.5455 60.6334C71.1696 62.5704 69.7251 64.5535 67.69 64.5535H57.0088Z" fill="#C2C6CC"/>
<circle cx="65.5" cy="17" r="15" fill="#00BB78"/>
<path d="M69.5001 13L61.5001 21" stroke="white" stroke-width="2" stroke-linecap="round"/>
<path d="M61.5 13L69.5 21" stroke="white" stroke-width="2" stroke-linecap="round"/>
</svg>
