<svg width="61" height="60" viewBox="0 0 61 60" fill="none" xmlns="http://www.w3.org/2000/svg">
  <rect x="0.333374" width="60" height="60" rx="12" fill="#F3F6FA"/>
  <path d="M31.1324 15.6842H38.1017V18.2185H31.1324V15.6842Z" fill="#41A4E8"/>
  <path d="M39.3688 21.3864H43.8037V34.6912H39.3688V21.3864Z" fill="#1783CF"/>
  <path d="M28.5983 21.3864H39.3689V34.6912H28.5983V21.3864Z" fill="#41A4E8"/>
  <path d="M38.1017 18.2185H41.2695L43.8038 21.3863H39.3688L38.1017 18.2185Z" fill="#D9DCE1"/>
  <path d="M39.3689 21.3863H28.5983L31.1325 18.2185H38.1018L39.3689 21.3863Z" fill="white"/>
  <path d="M38.1017 15.6842H41.2695V18.2185H38.1017V15.6842Z" fill="#1783CF"/>
  <path d="M24.7566 19.2386V20.9594H24.7878C24.4124 21.5333 23.9862 22.2773 23.4467 23.2192L21.3075 26.9536C20.0603 29.1309 19.4367 30.2195 19.538 31.1115C19.6264 31.8896 20.0441 32.5947 20.6883 33.0531C21.4266 33.5785 22.6951 33.5785 25.2322 33.5785H29.5106C32.0477 33.5785 33.3162 33.5785 34.0545 33.0531C34.6987 32.5947 35.1164 31.8896 35.2048 31.1115C35.3061 30.2195 34.6825 29.1309 33.4353 26.9536L31.2961 23.2192C30.012 20.9776 29.37 19.8567 28.5271 19.483C28.25 19.3602 27.9577 19.2836 27.6618 19.2534V19.2386H24.7566Z" fill="#D9DCE1"/>
  <path d="M20.5412 23.2192C21.8253 20.9776 22.4673 19.8567 23.3102 19.483C24.0452 19.1572 24.8866 19.1572 25.6215 19.483C26.4645 19.8567 27.1065 20.9776 28.3906 23.2192L30.5298 26.9536C31.777 29.1309 32.4006 30.2195 32.2993 31.1115C32.2109 31.8896 31.7931 32.5947 31.149 33.0531C30.4107 33.5785 29.1421 33.5785 26.6051 33.5785H22.3267C19.7896 33.5785 18.5211 33.5785 17.7828 33.0531C17.1386 32.5947 16.7209 31.8896 16.6325 31.1115C16.5312 30.2195 17.1548 29.1309 18.402 26.9536L20.5412 23.2192Z" fill="white"/>
  <path d="M21.8513 29.4783C21.8513 28.9182 21.8513 28.6382 21.9603 28.4243C22.0562 28.2361 22.2092 28.0832 22.3973 27.9873C22.6112 27.8783 22.8913 27.8783 23.4513 27.8783H25.4807C26.0407 27.8783 26.3208 27.8783 26.5347 27.9873C26.7228 28.0832 26.8758 28.2361 26.9717 28.4243C27.0807 28.6382 27.0807 28.9182 27.0807 29.4783V33.5786H21.8513V29.4783Z" fill="#333333"/>
  <rect x="35.8207" y="31.0084" width="10.625" height="12.7038" rx="2" fill="#00A171"/>
  <path d="M21.2691 32.1633C20.8392 31.4468 20.0649 31.0084 19.2293 31.0084H17.0653C16.0304 31.0084 15.513 31.0084 15.1177 31.2098C14.77 31.387 14.4873 31.6697 14.3102 32.0174C14.1088 32.4126 14.1088 32.9301 14.1088 33.9649V40.7557C14.1088 41.7906 14.1088 42.308 14.3102 42.7033C14.4873 43.051 14.77 43.3336 15.1177 43.5108C15.513 43.7122 16.0304 43.7122 17.0653 43.7122H36.0978C37.1327 43.7122 37.6502 43.7122 38.0454 43.5108C38.3931 43.3336 38.6758 43.051 38.853 42.7033C39.0544 42.308 39.0544 41.7906 39.0544 40.7557V33.9649C39.0544 32.9301 39.0544 32.4126 38.853 32.0174C38.6758 31.6697 38.3931 31.387 38.0454 31.2098C37.6502 31.0084 37.1327 31.0084 36.0978 31.0084H33.9338C33.0982 31.0084 32.3239 31.4468 31.894 32.1633C31.4642 32.8798 30.6899 33.3182 29.8543 33.3182H23.3088C22.4733 33.3182 21.699 32.8798 21.2691 32.1633Z" fill="#00BB78"/>
</svg>
