<svg width="24" height="24" viewBox="0 0 24 24" fill="none" xmlns="http://www.w3.org/2000/svg">
    <path d="M5.37766 4.90148C5.90598 4.20411 6.17014 3.85542 6.5038 3.60401C6.79934 3.38133 7.13352 3.21525 7.48947 3.11415C7.89136 3 8.32881 3 9.20371 3H14.7963C15.6712 3 16.1086 3 16.5105 3.11415C16.8665 3.21525 17.2007 3.38133 17.4962 3.60401C17.8299 3.85542 18.094 4.20411 18.6223 4.90148L19.5521 6.12875C20.2747 7.08261 20.636 7.55954 20.8926 8.08564C21.1204 8.55245 21.2865 9.04686 21.3869 9.55646C21.5 10.1308 21.5 10.7291 21.5 11.9258V17.2C21.5 18.8802 21.5 19.7202 21.173 20.362C20.8854 20.9265 20.4265 21.3854 19.862 21.673C19.2202 22 18.3802 22 16.7 22H7.3C5.61984 22 4.77976 22 4.13803 21.673C3.57354 21.3854 3.1146 20.9265 2.82698 20.362C2.5 19.7202 2.5 18.8802 2.5 17.2V11.9258C2.5 10.7291 2.5 10.1308 2.61313 9.55646C2.71352 9.04686 2.87965 8.55245 3.10736 8.08564C3.36398 7.55954 3.72529 7.08261 4.44792 6.12875L5.37766 4.90148Z" stroke="#373E49" stroke-width="1.5"/>
    <path d="M9.27344 15.675C9.27344 15.3022 9.57565 15 9.94844 15H14.053C14.4258 15 14.728 15.3022 14.728 15.675C14.728 16.0478 14.4258 16.35 14.053 16.35H9.94844C9.57565 16.35 9.27344 16.0478 9.27344 15.675Z" fill="#373E49"/>
    <path d="M2.5 9L2.62988 9.12305C2.97189 9.44705 3.14289 9.60905 3.33994 9.72474C3.51468 9.82732 3.70399 9.90276 3.90139 9.94846C4.124 10 4.35956 10 4.83067 10H19.1693C19.6404 10 19.876 10 20.0986 9.94846C20.296 9.90276 20.4853 9.82732 20.6601 9.72474C20.8571 9.60905 21.0281 9.44705 21.3701 9.12305L21.5 9" stroke="#373E49" stroke-width="1.5" stroke-linejoin="round"/>
</svg>
