<svg width="101" height="100" viewBox="0 0 101 100" fill="none" xmlns="http://www.w3.org/2000/svg">
    <path d="M89.556 90.1566H34.4557C33.0724 90.1566 31.9512 89.1128 31.9512 87.8252V48.1919H92.0606V87.8252C92.0606 89.1128 90.9393 90.1566 89.556 90.1566Z" fill="#00A171"/>
    <path d="M59.5013 90.1566H34.4557C33.0724 90.1566 31.9512 89.1128 31.9512 87.8252V48.1919H62.0059V87.8252C62.0059 89.1128 60.8846 90.1566 59.5013 90.1566Z" fill="#00BB78"/>
    <path d="M50.7354 87.8254C50.7354 89.1131 51.8566 90.1568 53.2399 90.1568H45.7262C44.3429 90.1568 43.2217 89.1131 43.2217 87.8254V48.1921H50.7354V87.8254Z" fill="#F37021"/>
    <path d="M80.7897 87.8256C80.7897 89.1132 79.6685 90.1569 78.2852 90.1569H70.7715C72.1548 90.1569 73.276 89.1132 73.276 87.8256V48.1923H80.7897V87.8256Z" fill="#E65F0D"/>
    <path d="M65.2891 31.0536C69.7138 34.9842 82.9239 44.0636 95.2298 36.9527" stroke="#F37021" stroke-width="3" stroke-linecap="round"/>
    <path d="M49.0088 12.5846C49.4646 17.0536 52.2421 28.7279 63.1343 29.824" stroke="#F37021" stroke-width="3" stroke-linecap="round"/>
    <path d="M68.2655 30.6101C68.2315 30.7106 68.1985 30.8056 68.1668 30.8946C68.0574 30.8929 67.9399 30.8903 67.8152 30.8864C66.9898 30.8607 65.861 30.7801 64.6404 30.5637C62.1156 30.1159 59.5734 29.1527 58.2298 27.2945C57.0063 25.6025 56.4822 23.8255 56.5972 22.2644C56.7089 20.7467 57.4281 19.3257 58.9167 18.2367C61.4429 16.6271 65.4666 17.1536 67.7971 20.3766C69.3045 22.4614 69.4068 25.1926 69.0128 27.6229C68.8202 28.8113 68.5193 29.8589 68.2655 30.6101Z" stroke="#F37021" stroke-width="3"/>
    <path d="M68.9576 30.9767C68.9105 31.0466 68.8659 31.1139 68.8238 31.1781C68.8831 31.2488 68.9464 31.3234 69.0136 31.4014C69.5419 32.0147 70.3005 32.8268 71.2227 33.6274C73.1266 35.2802 75.4577 36.6495 77.7654 36.5578C79.8624 36.4745 81.5902 35.803 82.748 34.7775C83.8702 33.7835 84.5323 32.3976 84.4732 30.6374C84.1864 27.8027 81.3262 25.0275 77.3138 25.1869C74.7267 25.2896 72.5095 26.8606 70.8448 28.6159C70.0293 29.4757 69.3914 30.3333 68.9576 30.9767Z" stroke="#F37021" stroke-width="3"/>
    <path d="M95.4562 43.9743L39.4895 16.6202C38.3006 16.0391 36.8446 16.5755 36.2371 17.8183L34.0376 22.3186C33.4301 23.5614 33.9014 25.0398 35.0903 25.6209L91.057 52.975C92.2459 53.5561 93.702 53.0197 94.3094 51.7769L96.509 47.2766C97.1164 46.0338 96.6451 44.5554 95.4562 43.9743Z" fill="#00A171"/>
    <path d="M66.2798 29.7139L39.2809 16.518C38.1339 15.9574 36.7117 16.5103 36.1043 17.7531L33.9047 22.2534C33.2973 23.4962 33.7347 24.9581 34.8818 25.5187L61.8806 38.7146C63.0277 39.2752 64.4498 38.7222 65.0572 37.4794L67.2568 32.9791C67.8642 31.7363 67.4268 30.2745 66.2798 29.7139Z" fill="#00BB78"/>
    <path d="M49.3047 29.7811C48.6972 31.0239 49.2123 32.5236 50.4551 33.131L43.7045 29.8317C42.4617 29.2243 41.9467 27.7245 42.5542 26.4817L44.7537 21.9814C45.3612 20.7386 46.8609 20.2236 48.1037 20.831L54.8542 24.1303C53.6114 23.5229 52.1117 24.0379 51.5042 25.2807L49.3047 29.7811Z" fill="#F37021"/>
    <path d="M76.3092 42.9787C75.7018 44.2215 74.202 44.7365 72.9592 44.1291L79.7098 47.4285C80.9526 48.0359 82.4523 47.5209 83.0597 46.2781L85.2593 41.7777C85.8667 40.5349 85.3517 39.0352 84.1089 38.4278L77.3584 35.1284C78.6012 35.7358 79.1162 37.2356 78.5088 38.4784L76.3092 42.9787Z" fill="#E65F0D"/>
    <path d="M23.5 27C26.0074 29.7229 30.0974 33.0959 30.0974 33.0959" stroke="#333333" stroke-width="1.5" stroke-linecap="round"/>
    <path d="M28.6508 39.6826C27.0685 39.0993 19.8031 36.2594 17.069 41.1353C15.4285 44.0608 17.8309 46.177 19.8283 46.2718C22.3258 46.3903 24.5181 43.6386 22.5865 40.8963C19.3037 36.2357 13.2458 38.245 9.98204 42.8012" stroke="#00BB78" stroke-width="1.5" stroke-linecap="round"/>
    <circle cx="39.5" cy="38" r="2" fill="#EA1D2D"/>
    <circle cx="27.5" cy="15" r="2" fill="#00BB78"/>
    <circle cx="13" cy="27.5" r="1.5" fill="#F37021"/>
    <path d="M24.9679 54.7707C23.1229 55.3823 19.0529 56.9302 17.5322 58.2292" stroke="#EA1D2D" stroke-width="1.5" stroke-linecap="round"/>
</svg>
