<svg width="80" height="80" viewBox="0 0 80 80" fill="none" xmlns="http://www.w3.org/2000/svg">
    <path d="M22.9941 58.4C22.9941 61.7604 22.9941 63.4405 23.6481 64.724C24.2233 65.853 25.1412 66.7709 26.2702 67.3461C27.5537 68.0001 29.2338 68.0001 32.5941 68.0001H55.0279C58.3882 68.0001 60.0684 68.0001 61.3519 67.3461C62.4808 66.7709 63.3987 65.853 63.974 64.724C64.6279 63.4405 64.6279 61.7604 64.6279 58.4001V20.2029H22.9941V58.4Z" fill="#C2C6CC"/>
    <path d="M7.99414 58.4C7.99414 61.7604 7.99414 63.4405 8.6481 64.724C9.22334 65.853 10.1412 66.7709 11.2702 67.3461C12.5537 68.0001 14.2338 68.0001 17.5941 68.0001H40.0279C43.3882 68.0001 45.0684 68.0001 46.3519 67.3461C47.4808 66.7709 48.3987 65.853 48.974 64.724C49.6279 63.4405 49.6279 61.7604 49.6279 58.4001V20.2029H7.99414V58.4Z" fill="#D9DCE1"/>
    <path d="M39.5756 51.0725H16.7495C15.6203 51.0725 14.705 50.0064 14.705 48.6911V39.3038C14.705 37.9885 15.6203 36.9224 16.7495 36.9224H39.5756C40.7048 36.9224 41.6201 37.9885 41.6201 39.3038V48.6911C41.6201 50.0064 40.7048 51.0725 39.5756 51.0725Z" fill="white"/>
    <path d="M65.2383 15H7.99185C6.8421 15 5.91016 15.9319 5.91016 17.0817V18.1225C5.91016 19.2723 6.8421 20.2042 7.99185 20.2042H65.2383C66.3881 20.2042 67.32 19.2723 67.32 18.1225V17.0817C67.32 15.9319 66.3881 15 65.2383 15Z" fill="#777C84"/>
    <path d="M48.9318 15H7.99185C6.8421 15 5.91016 15.9319 5.91016 17.0817V18.1225C5.91016 19.2723 6.8421 20.2042 7.99185 20.2042H48.9318C50.0815 20.2042 51.0135 19.2723 51.0135 18.1225V17.0817C51.0135 15.9319 50.0814 15 48.9318 15Z" fill="#8E939A"/>
    <path d="M39.2198 31.6542C42.094 31.6542 44.4241 29.3241 44.4241 26.45H34.0156C34.0156 29.3241 36.3457 31.6542 39.2198 31.6542Z" fill="#9FA4AC"/>
    <path d="M44.4241 26.4479H34.0156V25.4071C34.0156 22.5329 36.3457 20.2029 39.2198 20.2029H49.6283C46.7541 20.2029 44.4241 22.5329 44.4241 25.4071V26.4479Z" fill="#A9ADB4"/>
    <path d="M28.8116 31.6542C31.6858 31.6542 34.0159 29.3241 34.0159 26.45H23.6074C23.6074 29.3241 25.9375 31.6542 28.8116 31.6542Z" fill="#696E77"/>
    <path d="M34.0159 26.4479H23.6074V25.4071C23.6074 22.5329 25.9375 20.2029 28.8116 20.2029H39.2201C36.3459 20.2029 34.0159 22.5329 34.0159 25.4071V26.4479Z" fill="#777C84"/>
    <path d="M18.4025 31.6542C21.2766 31.6542 23.6067 29.3241 23.6067 26.45H13.1982C13.1982 29.3241 15.5283 31.6542 18.4025 31.6542Z" fill="#9FA4AC"/>
    <path d="M23.6067 26.4479H13.1982V25.4071C13.1982 22.5329 15.5283 20.2029 18.4025 20.2029H28.8109C25.9368 20.2029 23.6067 22.5329 23.6067 25.4071V26.4479Z" fill="#A9ADB4"/>
    <path d="M7.99426 31.6542C10.8684 31.6542 13.1985 29.3241 13.1985 26.45H2.79004C2.79004 29.3241 5.1201 31.6542 7.99426 31.6542Z" fill="#696E77"/>
    <path d="M13.1985 26.4479H2.79004V25.4071C2.79004 22.5329 5.1201 20.2029 7.99426 20.2029H18.7497H18.4027C15.5285 20.2029 13.1985 22.5329 13.1985 25.4071V26.4479Z" fill="#777C84"/>
    <path d="M77.5425 45.9588C76.575 44.0612 75.1435 42.436 73.3796 41.2326C71.6157 40.0293 69.5759 39.2863 67.4479 39.0721C66.4853 38.976 65.5154 38.976 64.5527 39.0721C62.4248 39.2864 60.3851 40.0294 58.6211 41.2326C56.8571 42.4359 55.4254 44.0608 54.4575 45.9582C53.2398 48.3791 52.7694 51.1043 53.1057 53.7907C53.4419 56.477 54.5698 59.0043 56.3472 61.0542L65.0144 71.5367C65.1341 71.6816 65.2845 71.7983 65.455 71.8784C65.6254 71.9585 65.8115 72 66 72C66.1885 72 66.3747 71.9585 66.5451 71.8784C66.7155 71.7983 66.866 71.6816 66.9857 71.5367L75.6529 61.0542C77.4302 59.0044 78.5581 56.4772 78.8943 53.791C79.2306 51.1048 78.7602 48.3796 77.5425 45.9588Z" fill="#00BB78"/>
    <path d="M69.368 48.2129L62.6328 54.913" stroke="white" stroke-width="2" stroke-linecap="round"/>
    <path d="M62.6329 48.2129L69.3682 54.913" stroke="white" stroke-width="2" stroke-linecap="round"/>
</svg>
