<svg width="28" height="26" viewBox="0 0 28 26" fill="none" xmlns="http://www.w3.org/2000/svg">
<path d="M12.5652 1.90717C13.0262 0.973137 13.2567 0.506118 13.5696 0.356913C13.8419 0.227098 14.1581 0.227098 14.4304 0.356913C14.7433 0.506118 14.9738 0.973137 15.4348 1.90718L18.0361 7.17807C18.1723 7.45407 18.2404 7.59207 18.34 7.69918C18.4281 7.79401 18.5339 7.87083 18.6513 7.92536C18.7839 7.98694 18.9362 8.00907 19.2408 8.05333L25.0576 8.89856C26.0884 9.04834 26.6037 9.12323 26.8423 9.37472C27.0499 9.59353 27.1477 9.89435 27.1083 10.1934C27.0631 10.5371 26.6902 10.9006 25.9443 11.6277L21.7353 15.7305C21.5149 15.9453 21.4047 16.0527 21.3336 16.1805C21.2706 16.2937 21.2302 16.4179 21.2147 16.5465C21.1971 16.6917 21.2231 16.8433 21.2751 17.1467L22.2687 22.94C22.4448 23.9666 22.5329 24.4799 22.3674 24.7845C22.2235 25.0496 21.9676 25.2355 21.671 25.2905C21.3302 25.3537 20.8692 25.1113 19.9472 24.6266L14.7445 21.8914C14.4721 21.7482 14.3359 21.6766 14.1924 21.6485C14.0653 21.6235 13.9347 21.6235 13.8076 21.6485C13.6641 21.6766 13.5279 21.7482 13.2555 21.8914L8.05278 24.6266C7.13083 25.1113 6.66985 25.3537 6.32899 25.2905C6.03244 25.2355 5.77655 25.0496 5.63259 24.7845C5.46714 24.4799 5.55518 23.9666 5.73126 22.94L6.72488 17.1467C6.77691 16.8433 6.80292 16.6917 6.78534 16.5465C6.76977 16.4179 6.72938 16.2937 6.66643 16.1805C6.59532 16.0527 6.48512 15.9453 6.26473 15.7305L2.05567 11.6277C1.3098 10.9006 0.936859 10.5371 0.891652 10.1934C0.85232 9.89435 0.950062 9.59353 1.15765 9.37472C1.39625 9.12323 1.91164 9.04834 2.94241 8.89856L8.75918 8.05333C9.06377 8.00907 9.21606 7.98694 9.34869 7.92536C9.46613 7.87083 9.57185 7.79401 9.66 7.69918C9.75956 7.59207 9.82767 7.45407 9.96388 7.17807L12.5652 1.90717Z" fill="#E8EBF0"/>
</svg>
