<svg width="61" height="60" viewBox="0 0 61 60" fill="none" xmlns="http://www.w3.org/2000/svg">
<rect x="0.5" width="60" height="60" rx="30" fill="#E0F8EE"/>
<path d="M17.3125 26.5918V25.1016H25.2012V26.5918H22.1523V35H20.375V26.5918H17.3125ZM26.5537 35V25.1016H30.3408C32.4873 25.1016 33.5469 26.1953 33.5537 27.6719C33.5469 28.875 32.7881 29.5449 31.8174 29.7773V29.873C32.8701 29.9277 33.9365 30.8027 33.9365 32.3066C33.9365 33.8447 32.8223 35 30.5596 35H26.5537ZM28.331 33.5098H30.2861C31.585 33.5098 32.125 32.9561 32.1318 32.1699C32.125 31.2812 31.4346 30.6045 30.3271 30.5977H28.331V33.5098ZM28.331 29.3125H30.1221C31.0586 29.3125 31.7695 28.7725 31.7764 27.8906C31.7695 27.1318 31.2226 26.5781 30.1631 26.5781H28.331V29.3125ZM38.707 35H35.3437V25.1016H38.7617C41.7148 25.1016 43.499 26.9541 43.5058 30.0371C43.499 33.1338 41.7148 35 38.707 35ZM37.1211 33.4551H38.6113C40.6826 33.4619 41.7285 32.3203 41.7285 30.0371C41.7285 27.7676 40.6826 26.6396 38.666 26.6465H37.1211V33.4551Z" fill="#00BB78"/>
</svg>
