<svg width="16" height="16" viewBox="0 0 16 16" fill="none" xmlns="http://www.w3.org/2000/svg">
    <path d="M13.5 14H2.5" stroke="#0EB26E" stroke-width="1.5" stroke-linecap="round"/>
    <path d="M9.82322 2.98817C9.92085 2.89054 10.0791 2.89054 10.1768 2.98817L11.8031 4.61452C11.9008 4.71215 11.9008 4.87044 11.8031 4.96807L5.87546 10.8957C5.84534 10.9259 5.80801 10.9478 5.76703 10.9594L5.97205 11.6809L5.76703 10.9594L3.14987 11.7032C3.13442 11.7076 3.12744 11.7059 3.12397 11.7049C3.11812 11.7033 3.10942 11.699 3.10084 11.6904C3.09227 11.6819 3.08801 11.6732 3.08638 11.6673C3.08541 11.6639 3.08372 11.6569 3.0881 11.6414L3.83186 9.02426C3.84351 8.98328 3.86544 8.94596 3.89556 8.91583L9.82322 2.98817Z" stroke="#0EB26E" stroke-width="1.5" stroke-linejoin="round"/>
</svg>