<svg width="19" height="19" viewBox="0 0 19 19" fill="none" xmlns="http://www.w3.org/2000/svg">
<path d="M8.60424 17.0049C8.96817 17.3578 9.53183 17.3578 9.89576 17.0049C11.539 15.4115 15.75 10.9879 15.75 7.5C15.75 3.91015 12.8399 1 9.25 1C5.66015 1 2.75 3.91015 2.75 7.5C2.75 10.9879 6.96103 15.4115 8.60424 17.0049Z" stroke="#55595E" stroke-width="1.5"/>
<path d="M11.3267 7.2293C11.3267 8.37605 10.397 9.30569 9.25027 9.30569C8.10351 9.30569 7.17388 8.37605 7.17388 7.2293C7.17388 6.08254 8.10351 5.15291 9.25027 5.15291C10.397 5.15291 11.3267 6.08254 11.3267 7.2293Z" stroke="#55595E" stroke-width="1.5"/>
</svg>
