<svg width="24" height="24" viewBox="0 0 24 24" fill="none" xmlns="http://www.w3.org/2000/svg">
<path d="M5.37766 4.90148C5.90598 4.20411 6.17014 3.85542 6.5038 3.60401C6.79934 3.38133 7.13352 3.21525 7.48947 3.11415C7.89136 3 8.32881 3 9.20371 3H14.7963C15.6712 3 16.1086 3 16.5105 3.11415C16.8665 3.21525 17.2007 3.38133 17.4962 3.60401C17.8299 3.85542 18.094 4.20411 18.6223 4.90148L19.5521 6.12875C20.2747 7.08261 20.636 7.55954 20.8926 8.08564C21.1203 8.55245 21.2865 9.04686 21.3869 9.55646C21.5 10.1308 21.5 10.7291 21.5 11.9258V17.2C21.5 18.8802 21.5 19.7202 21.173 20.362C20.8854 20.9265 20.4265 21.3854 19.862 21.673C19.2202 22 18.3802 22 16.7 22H7.3C5.61984 22 4.77976 22 4.13803 21.673C3.57354 21.3854 3.1146 20.9265 2.82698 20.362C2.5 19.7202 2.5 18.8802 2.5 17.2V11.9258C2.5 10.7291 2.5 10.1308 2.61313 9.55646C2.71352 9.04686 2.87965 8.55245 3.10736 8.08564C3.36398 7.55954 3.72529 7.08261 4.44792 6.12875L5.37766 4.90148Z" fill="#373E49" stroke="#373E49" stroke-width="1.5"/>
<path d="M9.27344 15.675C9.27344 15.3022 9.57565 15 9.94844 15H14.053C14.4258 15 14.728 15.3022 14.728 15.675C14.728 16.0478 14.4258 16.35 14.053 16.35H9.94844C9.57565 16.35 9.27344 16.0478 9.27344 15.675Z" fill="white"/>
<path d="M6.05003 5.42496C6.39735 4.90398 6.57101 4.64349 6.80045 4.45491C7.00357 4.28796 7.23762 4.1627 7.4892 4.0863C7.77338 4 8.08645 4 8.71259 4H15.2874C15.9136 4 16.2266 4 16.5108 4.0863C16.7624 4.1627 16.9964 4.28796 17.1996 4.45491C17.429 4.64349 17.6027 4.90398 17.95 5.42496L19.3417 7.51248C19.8804 8.32054 20.1497 8.72456 20.1297 9.0596C20.1123 9.35148 19.968 9.62111 19.7348 9.79751C19.4671 10 18.9815 10 18.0104 10H5.98963C5.01846 10 4.53288 10 4.26521 9.79751C4.03202 9.62111 3.88772 9.35148 3.87029 9.0596C3.85029 8.72456 4.11964 8.32054 4.65835 7.51248L6.05003 5.42496Z" fill="white"/>
</svg>
