<svg width="80" height="80" viewBox="0 0 80 80" fill="none" xmlns="http://www.w3.org/2000/svg">
    <path d="M60 24.124L60 61.4007C60 64.761 60 66.4412 59.346 67.7247C58.7708 68.8536 57.8529 69.7715 56.7239 70.3468C55.4405 71.0007 53.7603 71.0007 50.4 71.0007L19.6 71.0007C16.2397 71.0007 14.5595 71.0007 13.2761 70.3468C12.1471 69.7715 11.2292 68.8536 10.654 67.7247C10 66.4412 10 64.761 10 61.4007L10 18.6007C10 15.2404 10 13.5603 10.654 12.2768C11.2292 11.1478 12.1471 10.2299 13.2761 9.65469C14.5595 9.00073 16.2397 9.00073 19.6 9.00073L45.032 9.00073L60 24.124Z" fill="#D9DCE1"/>
    <rect x="18" y="43.0007" width="24" height="2" rx="1" fill="#777C84"/>
    <rect x="18" y="50.0007" width="18" height="2" rx="1" fill="#777C84"/>
    <rect x="18" y="57.0007" width="12" height="2" rx="1" fill="#777C84"/>
    <path d="M47.8285 24.0007C46.1716 24.0007 44.8285 22.6576 44.8285 21.0007L44.8285 8.82919L60 24.0007L47.8285 24.0007Z" fill="#C2C6CC"/>
    <circle cx="57" cy="61.9995" r="15" fill="#00BB78"/>
    <path d="M61 57.9995L53 65.9995" stroke="white" stroke-width="2" stroke-linecap="round"/>
    <path d="M53 57.9995L61 65.9995" stroke="white" stroke-width="2" stroke-linecap="round"/>
</svg>
