<svg width="61" height="60" viewBox="0 0 61 60" fill="none" xmlns="http://www.w3.org/2000/svg">
  <rect x="0.111084" width="60" height="60" rx="12" fill="#F3F6FA"/>
  <path d="M24.222 36.8137C24.222 38.4939 24.222 39.3339 24.549 39.9757C24.8366 40.5402 25.2956 40.9991 25.8601 41.2867C26.5018 41.6137 27.3419 41.6137 29.022 41.6137H38.8681C40.5483 41.6137 41.3884 41.6137 42.0301 41.2867C42.5946 40.9991 43.0535 40.5402 43.3412 39.9757C43.6681 39.3339 43.6681 38.4939 43.6681 36.8137V22.3665C43.6681 20.6864 43.6681 19.8463 43.3412 19.2046C43.0535 18.6401 42.5946 18.1811 42.0301 17.8935C41.3884 17.5665 40.5483 17.5665 38.8681 17.5665H29.022C27.3419 17.5665 26.5018 17.5665 25.8601 17.8935C25.2956 18.1811 24.8366 18.6401 24.549 19.2046C24.222 19.8463 24.222 20.6864 24.222 22.3665V36.8137Z" fill="#333333"/>
  <path d="M17.2158 36.8137C17.2158 38.4939 17.2158 39.3339 17.5428 39.9757C17.8304 40.5402 18.2894 40.9991 18.8538 41.2867C19.4956 41.6137 20.3357 41.6137 22.0158 41.6137H31.8619C33.5421 41.6137 34.3822 41.6137 35.0239 41.2867C35.5884 40.9991 36.0473 40.5402 36.3349 39.9757C36.6619 39.3339 36.6619 38.4939 36.6619 36.8137V22.3665C36.6619 20.6864 36.6619 19.8463 36.3349 19.2046C36.0473 18.6401 35.5884 18.1811 35.0239 17.8935C34.3822 17.5665 33.5421 17.5665 31.8619 17.5665H22.0158C20.3357 17.5665 19.4956 17.5665 18.8538 17.8935C18.2894 18.1811 17.8304 18.6401 17.5428 19.2046C17.2158 19.8463 17.2158 20.6864 17.2158 22.3665V36.8137Z" fill="#55595E"/>
  <path opacity="0.5" d="M17.2158 21.4944C17.2158 21.6364 17.2158 21.7074 17.2194 21.7673C17.2801 22.7774 18.0857 23.583 19.0958 23.6437C19.1558 23.6473 19.2267 23.6473 19.3687 23.6473H37.0925C37.2345 23.6473 37.3054 23.6473 37.3654 23.6437C38.3755 23.583 39.1811 22.7774 39.2418 21.7673C39.2454 21.7074 39.2454 21.6364 39.2454 21.4944C39.2454 21.3525 39.2454 21.2815 39.2418 21.2216C39.1811 20.2115 38.3755 19.4059 37.3654 19.3452C37.3054 19.3416 37.2345 19.3416 37.0925 19.3416H19.3687C19.2267 19.3416 19.1558 19.3416 19.0958 19.3452C18.0857 19.4059 17.2801 20.2115 17.2194 21.2216C17.2158 21.2815 17.2158 21.3525 17.2158 21.4944Z" fill="#333333"/>
  <path d="M30.2446 33.7601H21.3054C20.778 33.7601 20.3505 33.2621 20.3505 32.6477V29.9855C20.3505 29.3711 20.778 28.8732 21.3054 28.8732H30.2446C30.7721 28.8732 31.1996 29.3711 31.1996 29.9855V32.6477C31.1996 33.2621 30.7721 33.7601 30.2446 33.7601Z" fill="#333333"/>
  <path d="M30.2446 33.7601H22.956C22.4285 33.7601 22.001 33.2621 22.001 32.6477V29.9855C22.001 29.3711 22.4285 28.8732 22.956 28.8732H30.2446C30.7721 28.8732 31.1996 29.3711 31.1996 29.9855V32.6477C31.1996 33.2621 30.7721 33.7601 30.2446 33.7601Z" fill="white"/>
  <path d="M29.917 26.3796C31.6835 26.3796 33.1155 24.9475 33.1155 23.181H26.7185C26.7185 24.9475 28.1506 26.3796 29.917 26.3796Z" fill="#D41B29"/>
  <path d="M33.1155 23.1798H26.7185V22.5401C26.7185 20.7736 28.1506 19.3416 29.917 19.3416H36.3141C34.5476 19.3416 33.1155 20.7736 33.1155 22.5401V23.1798Z" fill="#EA1D2D"/>
  <path d="M23.5197 26.3796C25.2862 26.3796 26.7182 24.9475 26.7182 23.181H20.3212C20.3212 24.9475 21.7532 26.3796 23.5197 26.3796Z" fill="#00A171"/>
  <path d="M26.7182 23.1798H20.3212V22.5401C20.3212 20.7736 21.7532 19.3416 23.5197 19.3416H29.9167C28.1503 19.3416 26.7182 20.7736 26.7182 22.5401V23.1798Z" fill="#00BB78"/>
  <path d="M17.1226 26.3796C18.8891 26.3796 20.3211 24.9475 20.3211 23.181H13.9241C13.9241 24.9475 15.3561 26.3796 17.1226 26.3796Z" fill="#E65F0D"/>
  <path d="M20.3211 23.1798H13.9241V22.5401C13.9241 20.7736 15.3561 19.3416 17.1226 19.3416H23.7329H23.5196C21.7532 19.3416 20.3211 20.7736 20.3211 22.5401V23.1798Z" fill="#F37021"/>
  <path d="M45.5811 33.5349C45.1299 32.6517 44.4622 31.8952 43.6396 31.3351C42.8169 30.775 41.8656 30.4292 40.8731 30.3294C40.1978 30.3294 38.5809 30.2959 37.7725 30.2959C36.78 30.3957 36.7706 30.775 35.9478 31.3351C35.1251 31.8951 34.4574 32.6515 34.006 33.5346C33.438 34.6614 33.2186 35.9299 33.3755 37.1803C33.5323 38.4307 34.0583 39.607 34.8873 40.5611L37.7725 45.6559C37.7725 45.6559 39.3893 45.6559 39.7935 45.6559C39.7935 45.6559 40.1098 45.6559 40.1978 45.6559C40.2857 45.6559 40.3725 45.6366 40.452 45.5993C40.5315 45.562 40.6016 45.5077 40.6575 45.4403L44.6998 40.5611C45.5288 39.607 46.0548 38.4308 46.2116 37.1804C46.3685 35.9301 46.1491 34.6617 45.5811 33.5349Z" fill="#E65F0D"/>
  <path d="M43.1559 33.5349C42.7047 32.6517 42.037 31.8952 41.2143 31.3351C40.3916 30.775 39.4403 30.4292 38.4478 30.3294C37.9988 30.2847 37.5465 30.2847 37.0975 30.3294C36.105 30.4292 35.1537 30.775 34.331 31.3351C33.5083 31.8951 32.8406 32.6515 32.3891 33.5346C31.8212 34.6614 31.6018 35.9299 31.7586 37.1803C31.9155 38.4307 32.4415 39.607 33.2705 40.5611L37.3128 45.4403C37.3686 45.5077 37.4388 45.562 37.5183 45.5993C37.5978 45.6366 37.6846 45.6559 37.7725 45.6559C37.8604 45.6559 37.9472 45.6366 38.0267 45.5993C38.1062 45.562 38.1764 45.5077 38.2322 45.4403L42.2746 40.5611C43.1035 39.607 43.6295 38.4308 43.7864 37.1804C43.9432 35.9301 43.7238 34.6617 43.1559 33.5349Z" fill="#F37021"/>
  <circle cx="37.7725" cy="36.3591" r="2.02105" fill="white"/>
</svg>
