<svg width="24" height="24" viewBox="0 0 24 24" fill="none" xmlns="http://www.w3.org/2000/svg">
<mask id="path-1-inside-1_6564_43589" fill="white">
<path fill-rule="evenodd" clip-rule="evenodd" d="M13.9654 4.31553C17.7302 5.32433 19.9645 9.19417 18.9557 12.9591L17.9146 16.8444L18.0488 19.5292C18.0826 20.2067 17.4464 20.7206 16.7912 20.545L3.40349 16.9578C2.74826 16.7822 2.45425 16.019 2.82231 15.4492L4.28067 13.1915L5.32182 9.30587C6.33062 5.54098 10.2005 3.30673 13.9654 4.31553Z"/>
</mask>
<path d="M18.9557 12.9591L17.5068 12.5708L18.9557 12.9591ZM17.9146 16.8444L16.4165 16.9192L16.4047 16.6838L16.4657 16.4561L17.9146 16.8444ZM18.0488 19.5292L16.5506 19.604L18.0488 19.5292ZM16.7912 20.545L17.1794 19.0961L16.7912 20.545ZM3.40349 16.9578L3.01526 18.4066L3.40349 16.9578ZM2.82231 15.4492L4.08231 16.2631L4.08231 16.2631L2.82231 15.4492ZM4.28067 13.1915L5.72955 13.5797L5.66855 13.8074L5.54066 14.0054L4.28067 13.1915ZM5.32182 9.30587L6.77071 9.6941L5.32182 9.30587ZM17.5068 12.5708C18.3012 9.60614 16.5418 6.5588 13.5771 5.76442L14.3536 2.86664C18.9187 4.08985 21.6278 8.7822 20.4046 13.3473L17.5068 12.5708ZM16.4657 16.4561L17.5068 12.5708L20.4046 13.3473L19.3635 17.2326L16.4657 16.4561ZM16.5506 19.604L16.4165 16.9192L19.4128 16.7695L19.5469 19.4543L16.5506 19.604ZM17.1794 19.0961C16.8518 19.0083 16.5337 19.2653 16.5506 19.604L19.5469 19.4543C19.6315 21.1481 18.041 22.4328 16.403 21.9939L17.1794 19.0961ZM3.79172 15.5089L17.1794 19.0961L16.403 21.9939L3.01526 18.4066L3.79172 15.5089ZM4.08231 16.2631C4.26634 15.9782 4.11933 15.5967 3.79172 15.5089L3.01526 18.4066C1.37719 17.9677 0.642158 16.0599 1.56231 14.6354L4.08231 16.2631ZM5.54066 14.0054L4.08231 16.2631L1.56231 14.6354L3.02067 12.3776L5.54066 14.0054ZM6.77071 9.6941L5.72955 13.5797L2.83178 12.8033L3.87293 8.91765L6.77071 9.6941ZM13.5771 5.76442C10.6124 4.97003 7.5651 6.72941 6.77071 9.6941L3.87293 8.91765C5.09615 4.35255 9.78849 1.64343 14.3536 2.86664L13.5771 5.76442Z" fill="#00BB78" mask="url(#path-1-inside-1_6564_43589)"/>
<path d="M14.4428 3.08496L14.0546 4.53385" stroke="#00BB78" stroke-width="1.5" stroke-linecap="round"/>
<path d="M8.1995 17.8132C7.9028 18.9205 8.55993 20.0587 9.66725 20.3554C10.7746 20.6521 11.9128 19.995 12.2095 18.8877" stroke="#00BB78" stroke-width="1.5" stroke-linecap="square"/>
<path d="M21.8417 13.6124C22.4981 11.1627 22.1855 8.68168 21.1389 6.57621M2.52319 8.43605C3.17958 5.98635 4.69083 3.99399 6.64998 2.69392" stroke="#00BB78" stroke-width="1.5" stroke-linecap="round"/>
</svg>
