<svg width="60" height="60" viewBox="0 0 59 60" fill="none" xmlns="http://www.w3.org/2000/svg">
    <path d="M27.916 21.0625H14.4958C13.3643 21.0625 12.3291 21.6991 11.8186 22.7088L5.0839 36.0275C4.87167 36.4472 4.7611 36.9109 4.7611 37.3813V43.4921C4.7611 45.1489 6.10424 46.4921 7.7611 46.4921H27.916V21.0625Z" fill="#D9D9D9"/>
    <path d="M27.916 21.0625H14.4958C13.3643 21.0625 12.3291 21.6991 11.8186 22.7088L5.0839 36.0275C4.87167 36.4472 4.7611 36.9109 4.7611 37.3813V43.4921C4.7611 45.1489 6.10424 46.4921 7.7611 46.4921H27.916V21.0625Z" fill="#D9D9D9"/>
    <path fill-rule="evenodd" clip-rule="evenodd" d="M6.6109 33.1401H23.6973V21.0566H13.8876C13.13 21.0566 12.4374 21.4847 12.0986 22.1624L6.6109 33.1401Z" fill="#313D4C"/>
    <path d="M58.7598 19.25C58.7598 17.5931 57.4166 16.25 55.7598 16.25H26.6005C24.9436 16.25 23.6005 17.5931 23.6005 19.25V45.2068C23.6005 46.8637 24.9436 48.2068 26.6005 48.2068H55.7598C57.4166 48.2068 58.7598 46.8637 58.7598 45.2068V19.25Z" fill="#FF6C00"/>
    <g clip-path="url(#clip0_4467_8895)">
        <path d="M42.1017 35.5449C42.2886 35.5449 42.4387 35.698 42.4387 35.8837C42.4387 36.0694 42.2886 36.2239 42.1017 36.2239C41.9148 36.2239 41.7676 36.0708 41.7676 35.8837C41.7676 35.6966 41.9162 35.5449 42.1017 35.5449ZM42.1017 36.1572C42.249 36.1572 42.365 36.0382 42.365 35.8837C42.365 35.7292 42.249 35.6115 42.1017 35.6115C41.9545 35.6115 41.8384 35.7292 41.8384 35.8837C41.8384 36.0382 41.9545 36.1572 42.1017 36.1572ZM42.0606 36.0665H41.9913V35.6966H42.1187C42.1909 35.6966 42.2433 35.7476 42.2433 35.8128C42.2433 35.8638 42.2107 35.9064 42.1626 35.922L42.2447 36.0665H42.1654L42.089 35.929H42.0621V36.0665H42.0606ZM42.1074 35.8681C42.1484 35.8681 42.1711 35.8482 42.1711 35.8142C42.1711 35.7788 42.1484 35.7575 42.1074 35.7575H42.0592V35.8681H42.1074Z" fill="white"/>
        <path d="M43.7296 32.9668C43.5484 32.9668 43.4209 33.0518 43.3048 33.1482L43.2213 33.2673L43.1916 33.246L43.2935 33.0745V32.9668H42.6465V35.1127H43.234V33.7506C43.234 33.5295 43.3827 33.4601 43.4832 33.4459C43.5795 33.4331 43.7041 33.487 43.7041 33.6075V35.1113H44.2916V33.633C44.2916 33.1752 44.0849 32.9668 43.7296 32.9668Z" fill="white"/>
        <path d="M37.1632 34.6507H37.7805V35.1113H36.5742V32.9668H37.1632V34.6507Z" fill="white"/>
        <path d="M35.1621 35.1113H36.3684V34.6904H35.7497V34.2099H36.3684V33.8087H35.7497V33.4048H36.3684V32.9668H35.1621V35.1113Z" fill="white"/>
        <path d="M37.9863 35.1113H39.1926V34.6904H38.5753V34.2099H39.1926V33.8087H38.5753V33.4048H39.1926V32.9668H37.9863V35.1113Z" fill="white"/>
        <path d="M41.2344 35.1113H42.4406V34.6904H41.8219V34.2099H42.4406V33.8087H41.8219V33.4048H42.4406V32.9668H41.2344V35.1113Z" fill="white"/>
        <path d="M40.4696 32.9668L40.243 34.3275L40.226 34.5614L40.2246 34.5826H40.2034L40.202 34.5614L40.185 34.3275L39.9585 32.9668H39.3652L39.8537 35.1113H40.5743L41.0628 32.9668H40.4696Z" fill="white"/>
        <path d="M42.823 26.3984H35.1621V29.4416H39.2056C40.1075 28.1262 41.3577 27.066 42.823 26.3984Z" fill="white"/>
        <path d="M38.2051 38.5691H41.2448L41.2491 35.5273H38.2107L38.2051 38.5691Z" fill="white"/>
        <path d="M44.292 29.449V26.3945C41.3896 27.1939 39.1243 29.5326 38.4277 32.4808H41.5383C42.0055 31.1343 43.0079 30.0401 44.2906 29.4504" fill="white"/>
    </g>
    <ellipse cx="6.5547" cy="6.38321" rx="6.5547" ry="6.38321" transform="matrix(-1 0 0 1 54.2852 42.291)" fill="#313D4C"/>
    <ellipse cx="6.5547" cy="6.38321" rx="6.5547" ry="6.38321" transform="matrix(-1 0 0 1 22.2402 42.291)" fill="#313D4C"/>
    <ellipse cx="2.1849" cy="2.12774" rx="2.1849" ry="2.12774" transform="matrix(-1 0 0 1 49.916 46.541)" fill="#606A7A"/>
    <ellipse cx="2.1849" cy="2.12774" rx="2.1849" ry="2.12774" transform="matrix(-1 0 0 1 17.8672 46.541)" fill="#606A7A"/>
    <rect opacity="0.6" y="0.75" width="59" height="59" fill="#D9DCE1"/>
    <defs>
        <clipPath id="clip0_4467_8895">
            <rect width="9.13052" height="12.174" fill="white" transform="translate(35.1621 26.3945)"/>
        </clipPath>
    </defs>
</svg>