<svg width="61" height="60" viewBox="0 0 61 60" fill="none" xmlns="http://www.w3.org/2000/svg">
  <rect x="0.333374" width="60" height="60" rx="12" fill="#F3F6FA"/>
  <path d="M25.9728 19.0633C25.9728 17.6796 24.8511 16.558 23.4675 16.558C22.0838 16.558 20.9622 17.6796 20.9622 19.0633" stroke="#333333" stroke-width="2"/>
  <path d="M35.994 19.0633C35.994 17.6796 34.8724 16.558 33.4887 16.558C32.1051 16.558 30.9834 17.6796 30.9834 19.0633" stroke="#333333" stroke-width="2"/>
  <path d="M20.0481 23.718C19.7732 21.8248 19.6357 20.8783 19.9213 20.1425C20.172 19.4966 20.6386 18.9575 21.2417 18.6165C21.9288 18.2281 22.8853 18.2281 24.7983 18.2281H35.8793C37.3523 18.2281 38.0888 18.2281 38.6819 18.4987C39.2046 18.7372 39.6479 19.1207 39.959 19.6037C40.312 20.1518 40.4178 20.8806 40.6295 22.3383L42.7127 36.6825C42.9876 38.5757 43.1251 39.5222 42.8395 40.258C42.5887 40.9039 42.1222 41.443 41.5191 41.784C40.832 42.1724 39.8755 42.1724 37.9625 42.1724H26.8814C25.4085 42.1724 24.672 42.1724 24.0789 41.9018C23.5562 41.6633 23.1129 41.2798 22.8018 40.7968C22.4488 40.2487 22.343 39.5199 22.1313 38.0622L20.0481 23.718Z" fill="#00A171"/>
  <path d="M17.1618 22.3383C17.3735 20.8806 17.4793 20.1518 17.8323 19.6037C18.1434 19.1207 18.5867 18.7372 19.1094 18.4987C19.7025 18.2281 20.439 18.2281 21.912 18.2281H34.2975C36.0865 18.2281 36.9809 18.2281 37.645 18.5842C38.2285 18.897 38.6922 19.3941 38.9637 19.9981C39.2726 20.6853 39.2104 21.5776 39.0859 23.3622L38.0853 37.7064C37.9756 39.2799 37.9207 40.0666 37.5793 40.663C37.2786 41.188 36.8263 41.6099 36.2816 41.8732C35.6629 42.1724 34.8743 42.1724 33.297 42.1724H19.8288C17.9158 42.1724 16.9593 42.1724 16.2722 41.784C15.6691 41.443 15.2026 40.9039 14.9518 40.258C14.6662 39.5222 14.8037 38.5757 15.0786 36.6825L17.1618 22.3383Z" fill="#00BB78"/>
  <path d="M23.4675 21.5686C22.0838 21.5686 20.9622 20.4469 20.9622 19.0633C20.9622 18.4216 21.2034 17.8363 21.6001 17.3931" stroke="#55595E" stroke-width="2" stroke-linecap="round"/>
  <path d="M33.4887 21.5686C32.1051 21.5686 30.9834 20.4469 30.9834 19.0633C30.9834 18.4216 31.2246 17.8363 31.6213 17.3931" stroke="#55595E" stroke-width="2" stroke-linecap="round"/>
  <circle cx="21.9414" cy="29.0092" r="1.25265" fill="white"/>
  <circle cx="27.2124" cy="29.0092" r="1.25265" fill="white"/>
  <circle cx="32.4828" cy="29.0092" r="1.25265" fill="white"/>
  <circle cx="21.1478" cy="35.1151" r="1.25265" fill="white"/>
  <circle cx="26.4173" cy="35.1151" r="1.25265" fill="white"/>
  <circle cx="38.4765" cy="37.5707" r="7.96098" fill="#F37021"/>
  <path d="M35.6667 37.1805L37.7371 39.9122L41.2863 35.2292" stroke="white" stroke-width="1.5" stroke-linecap="round" stroke-linejoin="round"/>
</svg>

