<svg width="61" height="60" viewBox="0 0 61 60" fill="none" xmlns="http://www.w3.org/2000/svg">
  <rect x="0.22229" width="60" height="60" rx="12" fill="#F3F6FA"/>
  <path d="M36.8646 18.1357L35.1485 15.3257C35.0651 15.189 34.9137 15.1052 34.7501 15.1052H17.7935C17.63 15.1052 17.4785 15.189 17.395 15.3257L15.679 18.1357C15.594 18.275 15.5924 18.4478 15.6748 18.5885C15.7573 18.7292 15.911 18.8161 16.0776 18.8161H36.4661C36.6326 18.8161 36.7864 18.7292 36.8688 18.5885C36.9512 18.4479 36.9496 18.275 36.8646 18.1357Z" fill="#303030"/>
  <path d="M32.1127 18.8162H36.4662C36.6327 18.8162 36.7865 18.7293 36.8689 18.5885C36.9513 18.4479 36.9497 18.275 36.8647 18.1357L35.1486 15.3257C35.0652 15.189 34.9137 15.1052 34.7501 15.1052H29.8466L32.1127 18.8162Z" fill="#232323"/>
  <path d="M36.812 20.9277C36.7241 20.8383 36.5982 20.7872 36.466 20.7872H16.0775C15.9453 20.7872 15.8195 20.8383 15.7316 20.9277C15.6437 21.0171 15.602 21.1362 15.6172 21.2551L16.2094 25.9001C16.2364 26.1119 16.4344 26.2717 16.6698 26.2717H35.8739C36.1093 26.2717 36.3073 26.112 36.3342 25.9001L36.9265 21.2551C36.9416 21.1362 36.9 21.017 36.812 20.9277Z" fill="#D9DCE1"/>
  <path d="M34.4478 36.6173H18.0958C17.9636 36.6173 17.8377 36.6684 17.7498 36.7578C17.6619 36.8472 17.6203 36.9663 17.6354 37.0852L18.4771 43.6867C18.504 43.8984 18.7021 44.0583 18.9375 44.0583H33.6061C33.8414 44.0583 34.0395 43.8985 34.0664 43.6867L34.908 37.0852C34.9233 36.9662 34.8816 36.8472 34.7936 36.7578C34.7057 36.6684 34.5798 36.6173 34.4478 36.6173Z" fill="#D9DCE1"/>
  <path d="M36.4661 20.7872H32.4472L31.7479 26.6731H35.8739C36.1092 26.6731 36.3073 26.5016 36.3342 26.2742L36.9265 21.2893C36.9417 21.1616 36.9 21.0339 36.8121 20.9379C36.7241 20.8421 36.5983 20.7872 36.4661 20.7872Z" fill="#C6C6C6"/>
  <path d="M34.7937 37.8945C34.7058 37.819 34.5799 37.7759 34.4477 37.7759H30.4288L29.4801 44.0583H33.606C33.8414 44.0583 34.0395 43.9234 34.0664 43.7445L34.908 38.1709C34.9233 38.0705 34.8817 37.97 34.7937 37.8945Z" fill="#C6C6C6"/>
  <path d="M37.7302 17.9153H14.8134C14.5574 17.9153 14.35 18.1169 14.35 18.3657V21.2377C14.35 21.4865 14.5574 21.6881 14.8134 21.6881H37.7302C37.9862 21.6881 38.1936 21.4865 38.1936 21.2377V18.3657C38.1937 18.1169 37.9862 17.9153 37.7302 17.9153Z" fill="#494949"/>
  <path d="M37.7302 17.9153H33.1017V21.6881H37.7302C37.9862 21.6881 38.1936 21.4865 38.1936 21.2377V18.3657C38.1936 18.1169 37.9862 17.9153 37.7302 17.9153Z" fill="#303030"/>
  <path d="M37.3066 25.923C37.2186 25.8271 37.0927 25.7722 36.9606 25.7722H15.5828C15.4506 25.7722 15.3248 25.8271 15.2369 25.923C15.149 26.0189 15.1073 26.1467 15.1224 26.2743L16.5484 38.2779C16.5754 38.5052 16.7735 38.6767 17.0088 38.6767H35.5345C35.7699 38.6767 35.9679 38.5053 35.9948 38.2779L37.4208 26.2743C37.4362 26.1467 37.3945 26.0188 37.3066 25.923Z" fill="#00BB78"/>
  <path d="M37.3067 25.923C37.2187 25.8271 37.0928 25.7722 36.9607 25.7722H32.9418L31.4087 38.6767H35.5346C35.7701 38.6767 35.968 38.5053 35.995 38.2779L37.421 26.2743C37.4363 26.1467 37.3946 26.0188 37.3067 25.923Z" fill="#00A171"/>
  <circle cx="37.3598" cy="37.6734" r="8.36923" fill="#333333"/>
  <ellipse cx="1.15692" cy="1.15409" rx="1.15692" ry="1.15409" transform="matrix(0.498164 -0.867083 0.864962 0.501838 33.4406 36.8037)" stroke="white" stroke-width="1.2"/>
  <ellipse cx="1.15692" cy="1.15409" rx="1.15692" ry="1.15409" transform="matrix(0.498164 -0.867083 0.864962 0.501838 38.1683 39.5469)" stroke="white" stroke-width="1.2"/>
  <path d="M39.0335 35.0733L35.6075 40.4287" stroke="white" stroke-width="1.2" stroke-linecap="round"/>
</svg>
