<svg width="24" height="24" viewBox="0 0 24 24" fill="none" xmlns="http://www.w3.org/2000/svg">
<path d="M10.5652 2.90718C11.0262 1.97314 11.2567 1.50612 11.5696 1.35691C11.8419 1.2271 12.1581 1.2271 12.4304 1.35691C12.7433 1.50612 12.9738 1.97314 13.4348 2.90718L15.4483 6.98708C15.5845 7.26308 15.6527 7.40108 15.7522 7.50819C15.8404 7.60303 15.9461 7.67985 16.0635 7.73437C16.1962 7.79596 16.3484 7.81809 16.653 7.86235L21.1555 8.51659C22.1862 8.66637 22.7016 8.74126 22.9402 8.99275C23.1478 9.21156 23.2456 9.51238 23.2062 9.81142C23.161 10.1551 22.7881 10.5187 22.0422 11.2457L18.7842 14.4215C18.5638 14.6363 18.4536 14.7437 18.3825 14.8715C18.3196 14.9846 18.2792 15.1089 18.2636 15.2375C18.246 15.3826 18.272 15.5343 18.3241 15.8377L19.0932 20.3219C19.2692 21.3485 19.3573 21.8618 19.1918 22.1665C19.0479 22.4315 18.792 22.6174 18.4954 22.6724C18.1546 22.7357 17.6936 22.4933 16.7717 22.0086L12.7445 19.8914C12.4721 19.7482 12.3359 19.6766 12.1924 19.6485C12.0653 19.6235 11.9347 19.6235 11.8076 19.6485C11.6641 19.6766 11.5279 19.7482 11.2555 19.8914L7.22835 22.0086C6.30639 22.4933 5.84542 22.7357 5.50457 22.6724C5.20801 22.6174 4.95212 22.4315 4.80816 22.1665C4.64271 21.8618 4.73075 21.3485 4.90683 20.3219L5.67594 15.8377C5.72797 15.5343 5.75398 15.3826 5.73639 15.2375C5.72082 15.1089 5.68044 14.9846 5.61748 14.8715C5.54638 14.7437 5.43618 14.6363 5.21578 14.4215L1.95778 11.2457C1.21191 10.5187 0.838972 10.1551 0.793766 9.81142C0.754434 9.51238 0.852176 9.21156 1.05977 8.99275C1.29837 8.74126 1.81375 8.66637 2.84453 8.51659L7.34697 7.86235C7.65155 7.81809 7.80384 7.79596 7.93648 7.73437C8.05391 7.67985 8.15964 7.60303 8.24779 7.50819C8.34735 7.40108 8.41545 7.26308 8.55167 6.98708L10.5652 2.90718Z" fill="#D9DCE1"/>
</svg>
