<svg width="80" height="80" viewBox="0 0 80 80" fill="none" xmlns="http://www.w3.org/2000/svg">
    <path d="M26.875 28.9062L15.115 34.1329C14.2553 34.515 13.6247 35.2782 13.4115 36.1944L5.98683 68.1002C5.59934 69.7654 7.34437 71.1176 8.86004 70.3267L23.9583 62.4479L26.875 28.9062Z" fill="#D9DCE1"/>
    <path d="M39.9987 34.7396L26.8737 28.9062L23.957 62.4479L39.9987 72.6562V34.7396Z" fill="#C2C6CC"/>
    <path d="M53.125 28.9062L64.8819 34.1315C65.7433 34.5144 66.3747 35.2799 66.5866 36.1984L74.0064 68.3507C74.3932 70.0267 72.6239 71.3768 71.1094 70.5613L56.0417 62.4479L53.125 28.9062Z" fill="#C2C6CC"/>
    <path d="M40 34.7396L53.125 28.9062L56.0417 62.4479L40 72.6562V34.7396Z" fill="#D9DCE1"/>
    <path d="M53.7098 16.3089C52.5606 14.0432 50.8603 12.1027 48.7651 10.6658C46.67 9.22895 44.2472 8.34184 41.7196 8.08604C40.5762 7.97132 39.4242 7.97132 38.2807 8.08604C35.7532 8.34201 33.3305 9.22909 31.2353 10.6658C29.14 12.1025 27.4395 14.0427 26.2898 16.3082C24.8434 19.1988 24.2847 22.4528 24.6841 25.6603C25.0835 28.8679 26.4232 31.8855 28.5343 34.3331L38.8291 46.8495C38.9712 47.0224 39.1499 47.1617 39.3524 47.2574C39.5548 47.353 39.7759 47.4026 39.9998 47.4026C40.2237 47.4026 40.4448 47.353 40.6472 47.2574C40.8496 47.1617 41.0284 47.0224 41.1705 46.8495L51.4653 34.3331C53.5764 31.8856 54.916 28.8681 55.3154 25.6607C55.7148 22.4533 55.1562 19.1994 53.7098 16.3089Z" fill="#00BB78"/>
    <path d="M44 19L36 27" stroke="white" stroke-width="2" stroke-linecap="round"/>
    <path d="M36 19L44 27" stroke="white" stroke-width="2" stroke-linecap="round"/>
</svg>
