<svg width="24" height="24" viewBox="0 0 24 24" fill="none" xmlns="http://www.w3.org/2000/svg">
  <path d="M12 21C16.9706 21 21 16.9706 21 12C21 7.02944 16.9706 3 12 3C7.02944 3 3 7.02944 3 12C3 16.9706 7.02944 21 12 21Z" stroke="white" stroke-width="1.5" stroke-linecap="round" stroke-linejoin="round"/>
  <mask id="path-2-inside-1_8818_24863" fill="white">
    <path d="M9.5 8.97619C9.5 8.43705 9.93706 8 10.4762 8H12.4286C14.046 8 15.3571 9.31117 15.3571 10.9286C15.3571 12.546 14.046 13.8571 12.4286 13.8571H10.4762C9.93705 13.8571 9.5 13.4201 9.5 12.881V8.97619Z"/>
  </mask>
  <path d="M9.5 8.97619C9.5 8.43705 9.93706 8 10.4762 8H12.4286C14.046 8 15.3571 9.31117 15.3571 10.9286C15.3571 12.546 14.046 13.8571 12.4286 13.8571H10.4762C9.93705 13.8571 9.5 13.4201 9.5 12.881V8.97619Z" stroke="white" stroke-width="3" mask="url(#path-2-inside-1_8818_24863)"/>
  <path d="M10.25 12V16" stroke="white" stroke-width="1.5" stroke-linecap="round" stroke-linejoin="round"/>
</svg>
