<svg width="24" height="24" viewBox="0 0 24 24" fill="none" xmlns="http://www.w3.org/2000/svg">
    <mask id="path-1-inside-1_3357_6888" fill="white">
        <path fill-rule="evenodd" clip-rule="evenodd" d="M11.9999 2C7.30553 2 3.49995 5.80558 3.49995 10.5V15.3448L2.42099 18.6933C2.21295 19.339 2.69446 20 3.3728 20H20.6271C21.3054 20 21.7869 19.339 21.5789 18.6933L20.4999 15.3448V10.5C20.4999 5.80558 16.6944 2 11.9999 2Z"/>
    </mask>
    <path d="M3.49995 15.3448L4.92766 15.8049L4.99995 15.5805V15.3448H3.49995ZM2.42099 18.6933L0.993279 18.2333L0.993279 18.2333L2.42099 18.6933ZM21.5789 18.6933L23.0066 18.2333L23.0066 18.2333L21.5789 18.6933ZM20.4999 15.3448H18.9999V15.5805L19.0722 15.8049L20.4999 15.3448ZM4.99995 10.5C4.99995 6.63401 8.13395 3.5 11.9999 3.5V0.5C6.4771 0.5 1.99995 4.97715 1.99995 10.5H4.99995ZM4.99995 15.3448V10.5H1.99995V15.3448H4.99995ZM3.8487 19.1533L4.92766 15.8049L2.07223 14.8848L0.993279 18.2333L3.8487 19.1533ZM3.3728 18.5C3.71197 18.5 3.95273 18.8305 3.8487 19.1533L0.993279 18.2333C0.473171 19.8474 1.67695 21.5 3.3728 21.5V18.5ZM20.6271 18.5H3.3728V21.5H20.6271V18.5ZM20.1512 19.1533C20.0472 18.8305 20.2879 18.5 20.6271 18.5V21.5C22.323 21.5 23.5267 19.8474 23.0066 18.2333L20.1512 19.1533ZM19.0722 15.8049L20.1512 19.1533L23.0066 18.2333L21.9277 14.8848L19.0722 15.8049ZM18.9999 10.5V15.3448H21.9999V10.5H18.9999ZM11.9999 3.5C15.8659 3.5 18.9999 6.63401 18.9999 10.5H21.9999C21.9999 4.97715 17.5228 0.5 11.9999 0.5V3.5Z" fill="#373E49" mask="url(#path-1-inside-1_3357_6888)"/>
    <path d="M12 1.5V2.5" stroke="#373E49" stroke-width="1.5" stroke-linecap="round"/>
    <path d="M14.5 19.5C14.5 20.8807 13.3807 22 12 22C10.6193 22 9.5 20.8807 9.5 19.5" stroke="#373E49" stroke-width="1.5" stroke-linecap="square"/>
</svg>
