<svg width="24" height="24" viewBox="0 0 24 24" fill="none" xmlns="http://www.w3.org/2000/svg">
<path d="M2.00964 10.1075L2.75873 10.1443L2.00964 10.1075ZM2.00964 11.8925L2.75873 11.8557V11.8557L2.00964 11.8925ZM9.60746 19.4904L9.57066 20.2395H9.57066L9.60746 19.4904ZM11 19.5H11.75C11.75 19.0858 11.4142 18.75 11 18.75V19.5ZM11 22H10.25C10.25 22.3033 10.4327 22.5768 10.713 22.6929C10.9932 22.809 11.3158 22.7448 11.5303 22.5303L11 22ZM13.5 19.5V18.75C13.3011 18.75 13.1103 18.829 12.9697 18.9697L13.5 19.5ZM14.3925 19.4904L14.4293 20.2395H14.4293L14.3925 19.4904ZM21.9904 11.8925L22.7395 11.9293V11.9293L21.9904 11.8925ZM21.9904 10.1075L22.7395 10.0707V10.0707L21.9904 10.1075ZM14.3925 2.50964L14.3557 3.25873H14.3557L14.3925 2.50964ZM9.60746 2.50964L9.64426 3.25873L9.60746 2.50964ZM2.75 11C2.75 10.5268 2.75023 10.3174 2.75873 10.1443L1.26054 10.0707C1.24977 10.2898 1.25 10.5446 1.25 11H2.75ZM2.75873 11.8557C2.75023 11.6826 2.75 11.4732 2.75 11H1.25C1.25 11.4554 1.24977 11.7102 1.26054 11.9293L2.75873 11.8557ZM9.64426 18.7413C5.91991 18.5583 2.9417 15.5801 2.75873 11.8557L1.26054 11.9293C1.48136 16.4243 5.07575 20.0186 9.57066 20.2395L9.64426 18.7413ZM10.5 18.75C10.0268 18.75 9.81739 18.7498 9.64426 18.7413L9.57066 20.2395C9.78984 20.2502 10.0446 20.25 10.5 20.25V18.75ZM11 18.75H10.5V20.25H11V18.75ZM11.75 22V19.5H10.25V22H11.75ZM12.9697 18.9697L10.4697 21.4697L11.5303 22.5303L14.0303 20.0303L12.9697 18.9697ZM14.3557 18.7413C14.1826 18.7498 13.9732 18.75 13.5 18.75V20.25C13.9554 20.25 14.2102 20.2502 14.4293 20.2395L14.3557 18.7413ZM21.2413 11.8557C21.0583 15.5801 18.0801 18.5583 14.3557 18.7413L14.4293 20.2395C18.9243 20.0186 22.5186 16.4243 22.7395 11.9293L21.2413 11.8557ZM21.25 11C21.25 11.4732 21.2498 11.6826 21.2413 11.8557L22.7395 11.9293C22.7502 11.7102 22.75 11.4554 22.75 11H21.25ZM21.2413 10.1443C21.2498 10.3174 21.25 10.5268 21.25 11H22.75C22.75 10.5446 22.7502 10.2898 22.7395 10.0707L21.2413 10.1443ZM14.3557 3.25873C18.0801 3.4417 21.0583 6.41991 21.2413 10.1443L22.7395 10.0707C22.5186 5.57575 18.9243 1.98136 14.4293 1.76054L14.3557 3.25873ZM13.5 3.25C13.9732 3.25 14.1826 3.25023 14.3557 3.25873L14.4293 1.76054C14.2102 1.74977 13.9554 1.75 13.5 1.75V3.25ZM10.5 3.25H13.5V1.75H10.5V3.25ZM9.64426 3.25873C9.81739 3.25023 10.0268 3.25 10.5 3.25V1.75C10.0446 1.75 9.78983 1.74977 9.57066 1.76054L9.64426 3.25873ZM2.75873 10.1443C2.9417 6.41991 5.91991 3.4417 9.64426 3.25873L9.57066 1.76054C5.07575 1.98136 1.48136 5.57575 1.26054 10.0707L2.75873 10.1443Z" fill="#55595E"/>
<circle cx="8" cy="11" r="1" fill="#55595E"/>
<circle cx="12" cy="11" r="1" fill="#55595E"/>
<circle cx="16" cy="11" r="1" fill="#55595E"/>
</svg>
