<svg width="81" height="81" viewBox="0 0 81 81" fill="none" xmlns="http://www.w3.org/2000/svg">
    <g clip-path="url(#clip0_6989_71733)">
        <path d="M53.2258 56.5842C54.1878 56.5842 54.9603 57.3638 54.9603 58.3095C54.9603 59.2551 54.1878 60.0419 53.2258 60.0419C52.2638 60.0419 51.5059 59.2623 51.5059 58.3095C51.5059 57.3566 52.2711 56.5842 53.2258 56.5842ZM53.2258 59.7026C53.9838 59.7026 54.5814 59.0963 54.5814 58.3095C54.5814 57.5226 53.9838 56.9235 53.2258 56.9235C52.4679 56.9235 51.8703 57.5226 51.8703 58.3095C51.8703 59.0963 52.4679 59.7026 53.2258 59.7026ZM53.0145 59.2406H52.6574V57.3566H53.3133C53.685 57.3566 53.9546 57.6165 53.9546 57.9485C53.9546 58.2084 53.787 58.425 53.5392 58.5044L53.9619 59.2406H53.5538L53.1602 58.5405H53.0218V59.2406H53.0145ZM53.255 58.2301C53.4663 58.2301 53.5829 58.129 53.5829 57.9558C53.5829 57.7753 53.4663 57.667 53.255 57.667H53.0072V58.2301H53.255Z" fill="#007350"/>
        <path d="M61.5977 43.4553C60.6649 43.4553 60.009 43.8884 59.4114 44.3793L58.9814 44.9857L58.8283 44.8774L59.3531 44.0039V43.4553H56.0225V54.3842H59.047V47.4472C59.047 46.3211 59.8122 45.9674 60.3296 45.8952C60.8252 45.8302 61.4666 46.1045 61.4666 46.7181V54.377H64.4911V46.848C64.4911 44.5164 63.427 43.4553 61.5977 43.4553Z" fill="#007350"/>
        <path d="M27.7984 52.0309H30.9759V54.377H24.7666V43.4553H27.7984V52.0309Z" fill="#007350"/>
        <path d="M17.5 54.377H23.7093V52.2331H20.5245V49.786H23.7093V47.7431H20.5245V45.6858H23.7093V43.4553H17.5V54.377Z" fill="#007350"/>
        <path d="M32.0332 54.377H38.2425V52.2331H35.065V49.786H38.2425V47.7431H35.065V45.6858H38.2425V43.4553H32.0332V54.377Z" fill="#007350"/>
        <path d="M48.7578 54.377H54.9671V52.2331H51.7823V49.786H54.9671V47.7431H51.7823V45.6858H54.9671V43.4553H48.7578V54.377Z" fill="#007350"/>
        <path d="M44.8164 43.4553L43.6504 50.3851L43.5629 51.5762L43.5556 51.6845H43.4463L43.439 51.5762L43.3516 50.3851L42.1855 43.4553H39.1318L41.6462 54.377H45.3557L47.8701 43.4553H44.8164Z" fill="#007350"/>
        <path d="M56.9351 10.0044H17.5V25.5026H38.3144C42.9568 18.8038 49.3921 13.4043 56.9351 10.0044Z" fill="#F37021"/>
        <path d="M33.168 71.9832H48.8152L48.8371 56.4922H33.1971L33.168 71.9832Z" fill="#EA1D2D"/>
        <path d="M64.5002 25.5385V9.98254C49.5599 14.0538 37.8991 25.9644 34.3135 40.9789H50.3251C52.7301 34.1213 57.89 28.5486 64.4929 25.5457" fill="#EA1D2D"/>
    </g>
    <defs>
        <clipPath id="clip0_6989_71733">
            <rect width="47" height="62" fill="white" transform="translate(17.5 9.98254)"/>
        </clipPath>
    </defs>
</svg>
