<svg width="61" height="60" viewBox="0 0 61 60" fill="none" xmlns="http://www.w3.org/2000/svg">
  <rect x="0.111084" width="60" height="60" rx="12" fill="#F3F6FA"/>
  <path fill-rule="evenodd" clip-rule="evenodd" d="M39.8733 17.3684C39.8733 18.3606 39.069 19.1649 38.0768 19.1649C37.0846 19.1649 36.2803 18.3606 36.2803 17.3684H20.324C18.0837 17.3684 16.9636 17.3684 16.108 17.8044C15.3553 18.1879 14.7434 18.7998 14.3599 19.5524C13.924 20.4081 13.924 21.5282 13.924 23.7684V36.1193C13.924 38.3595 13.924 39.4796 14.3599 40.3352C14.7434 41.0879 15.3553 41.6998 16.108 42.0833C16.9636 42.5193 18.0837 42.5193 20.3239 42.5193H36.2803C36.2803 41.5271 37.0847 40.7228 38.0768 40.7228C39.069 40.7228 39.8733 41.5271 39.8733 42.5193C42.1052 42.5193 43.2227 42.5185 44.0768 42.0833C44.8294 41.6998 45.4413 41.0879 45.8248 40.3352C46.2608 39.4796 46.2608 38.3595 46.2608 36.1193V23.7684C46.2608 21.5282 46.2608 20.4081 45.8248 19.5524C45.4413 18.7998 44.8294 18.1879 44.0768 17.8044C43.2227 17.3692 42.1052 17.3684 39.8733 17.3684Z" fill="#F37021"/>
  <path opacity="0.6" d="M38.0768 21.8596V38.028" stroke="white" stroke-linecap="round" stroke-linejoin="round" stroke-dasharray="1 3"/>
  <circle cx="26.3996" cy="29.9439" r="8.98246" fill="#DA5302"/>
  <circle cx="23.8855" cy="28.5774" r="1.30118" transform="rotate(-60 23.8855 28.5774)" stroke="white" stroke-width="1.2"/>
  <circle cx="29.2224" cy="31.6589" r="1.30118" transform="rotate(-60 29.2224 31.6589)" stroke="white" stroke-width="1.2"/>
  <path d="M28.4215 27.1099L24.5542 33.1257" stroke="white" stroke-width="1.2" stroke-linecap="round"/>
</svg>
