<svg width="81" height="80" viewBox="0 0 81 80" fill="none" xmlns="http://www.w3.org/2000/svg">
  <path fill-rule="evenodd" clip-rule="evenodd" d="M33.5417 16.84C32.0687 19.1211 30.3963 22.0785 28.2791 25.8225L19.8849 40.6665C14.9909 49.321 12.5439 53.6483 12.9415 57.1936C13.2884 60.2866 14.9276 63.0894 17.4551 64.9115C20.3524 67 25.3301 67 35.2855 67H52.0738C62.0292 67 67.007 67 69.9042 64.9115C72.4317 63.0894 74.071 60.2866 74.4178 57.1936C74.8155 53.6483 72.3684 49.321 67.4744 40.6666L59.0803 25.8225C54.0415 16.9121 51.5221 12.4568 48.2145 10.9714C47.1272 10.4831 45.9806 10.1789 44.8195 10.0588V10H43.6797H33.4195V16.84H33.5417Z" fill="#C2C6CC"/>
  <path d="M16.8794 25.8225C21.9182 16.9121 24.4376 12.4568 27.7452 10.9714C30.6292 9.6762 33.9308 9.6762 36.8148 10.9714C40.1224 12.4568 42.6418 16.9121 47.6806 25.8225L56.0748 40.6666C60.9688 49.321 63.4158 53.6483 63.0182 57.1936C62.6713 60.2866 61.0321 63.0894 58.5045 64.9115C55.6073 67 50.6296 67 40.6742 67H23.8858C13.9304 67 8.9527 67 6.05546 64.9115C3.52791 63.0894 1.88871 60.2866 1.54182 57.1936C1.1442 53.6483 3.59122 49.321 8.48525 40.6665L16.8794 25.8225Z" fill="#D9DCE1"/>
  <path d="M22.0198 51.28C22.0198 49.5998 22.0198 48.7597 22.3468 48.118C22.6344 47.5535 23.0933 47.0946 23.6578 46.807C24.2995 46.48 25.1396 46.48 26.8198 46.48H37.7398C39.4199 46.48 40.26 46.48 40.9017 46.807C41.4662 47.0946 41.9252 47.5535 42.2128 48.118C42.5398 48.7597 42.5398 49.5998 42.5398 51.28V67H22.0198V51.28Z" fill="#777C84"/>
  <path d="M64.0049 46.4163C60.6867 43.1946 55.3068 43.1946 51.9887 46.4163C48.6704 49.638 48.6704 54.8615 51.9887 58.0832L63.7646 69.5167C64.105 69.8473 64.554 70.0083 65.0002 69.9997C65.4463 70.0083 65.895 69.8473 66.2354 69.5167L78.0113 58.0832C81.3296 54.8615 81.3296 49.638 78.0113 46.4163C74.6932 43.1946 69.3133 43.1946 65.9951 46.4163L65 47.3824L64.0049 46.4163Z" fill="#EA1D2D"/>
</svg>
