<svg width="50" height="50" viewBox="0 0 50 50" fill="none" xmlns="http://www.w3.org/2000/svg">
    <rect width="50" height="50" rx="12" fill="white"/>
    <path d="M19.0156 18.4194C17.7141 18.0707 14.5848 16.6045 12.4795 13.5295" stroke="#FAA037" stroke-width="2" stroke-linecap="round"/>
    <path d="M30.669 18.4194C31.9705 18.0707 35.0997 16.6045 37.2051 13.5295" stroke="#F57828" stroke-width="2" stroke-linecap="round"/>
    <path d="M24.4225 17.0573C24.3852 17.0694 24.3464 17.0818 24.306 17.0945C23.8714 17.2312 23.2731 17.3969 22.6129 17.5165C21.9485 17.6369 21.2502 17.7052 20.6074 17.6634C19.9593 17.6213 19.434 17.4716 19.0531 17.2158C18.5441 16.8739 17.9078 16.1484 17.5776 15.2752C17.2597 14.4343 17.2523 13.5477 17.8071 12.7218C18.378 11.8718 19.2295 11.4944 20.1456 11.4968C21.0856 11.4992 22.0793 11.9076 22.8041 12.6374C23.8508 13.6914 24.245 14.9273 24.3743 15.929C24.4316 16.3729 24.4355 16.7632 24.4225 17.0573Z" stroke="#FAA037" stroke-width="2"/>
    <path d="M25.2982 17.0573C25.3355 17.0694 25.3743 17.0818 25.4147 17.0945C25.8493 17.2312 26.4476 17.3969 27.1078 17.5165C27.7722 17.6369 28.4705 17.7052 29.1133 17.6634C29.7614 17.6213 30.2867 17.4716 30.6676 17.2158C31.1766 16.8739 31.8129 16.1484 32.1431 15.2752C32.461 14.4343 32.4684 13.5477 31.9137 12.7218C31.3427 11.8718 30.4912 11.4944 29.5751 11.4968C28.6351 11.4992 27.6414 11.9076 26.9166 12.6374C25.8699 13.6914 25.4757 14.9273 25.3464 15.929C25.2891 16.3729 25.2852 16.7632 25.2982 17.0573Z" stroke="#F57828" stroke-width="2"/>
    <path d="M17.2529 32.4377C17.2529 34.6779 17.2529 35.798 17.6889 36.6537C18.0724 37.4063 18.6843 38.0182 19.437 38.4017C20.2926 38.8377 21.4127 38.8377 23.6529 38.8377H32.5793C34.8195 38.8377 35.9396 38.8377 36.7952 38.4017C37.5479 38.0182 38.1598 37.4063 38.5433 36.6537C38.9793 35.798 38.9793 34.6779 38.9793 32.4377V22.5008C38.9793 20.2606 38.9793 19.1405 38.5433 18.2849C38.1598 17.5322 37.5479 16.9203 36.7952 16.5368C35.9396 16.1008 34.8195 16.1008 32.5793 16.1008H23.6529C21.4127 16.1008 20.2926 16.1008 19.437 16.5368C18.6843 16.9203 18.0724 17.5322 17.6889 18.2849C17.2529 19.1405 17.2529 20.2606 17.2529 22.5008V32.4377Z" fill="#D41B29"/>
    <path d="M10.6846 32.4377C10.6846 34.6779 10.6846 35.798 11.1205 36.6537C11.504 37.4063 12.116 38.0182 12.8686 38.4017C13.7243 38.8377 14.8444 38.8377 17.0846 38.8377H19.3793C21.6195 38.8377 22.7396 38.8377 23.5953 38.4017C24.3479 38.0182 24.9599 37.4063 25.3433 36.6537C25.7793 35.798 25.7793 34.6779 25.7793 32.4377V22.5008C25.7793 20.2606 25.7793 19.1405 25.3433 18.2849C24.9599 17.5322 24.3479 16.9203 23.5953 16.5368C22.7396 16.1008 21.6195 16.1008 19.3793 16.1008H17.0846C14.8444 16.1008 13.7243 16.1008 12.8686 16.5368C12.116 16.9203 11.504 17.5322 11.1205 18.2849C10.6846 19.1405 10.6846 20.2606 10.6846 22.5008V32.4377Z" fill="#EA1D2D"/>
    <path d="M15.9189 38.8377H18.5241V16.1008H15.9189V38.8377Z" fill="#FAA037"/>
    <path d="M31.085 38.8377H33.6901V16.1008H31.085V38.8377Z" fill="#F57828"/>
</svg>
