<svg width="50" height="50" viewBox="0 0 50 50" fill="none" xmlns="http://www.w3.org/2000/svg">
<rect width="50" height="50" rx="10" fill="white"/>
<path d="M34.3423 22.0027C33.9251 22.0027 33.5278 21.759 33.3521 21.3515L29.6806 12.8404H19.6106C19.0153 12.8404 18.5327 12.3577 18.5327 11.7625C18.5327 11.1672 19.0153 10.6846 19.6106 10.6846H30.3896C30.8198 10.6846 31.2089 10.9404 31.3793 11.3356L35.3316 20.4977C35.5674 21.0443 35.3154 21.6786 34.7688 21.9143C34.6297 21.9743 34.4848 22.0027 34.3423 22.0027Z" fill="#333333"/>
<path d="M10.4482 22.5414L12.9888 37.6729C13.1825 38.8264 14.0715 39.6609 15.1066 39.6609H35.9076C36.9426 39.6609 37.8316 38.8263 38.0253 37.6729L39.5514 22.5414H10.4482Z" fill="#00A171"/>
<path d="M10.4482 22.5414L11.9744 37.6729C12.168 38.8264 13.057 39.6609 14.0921 39.6609H28.3623C29.3974 39.6609 30.2863 38.8263 30.48 37.6729L32.0061 22.5414H10.4482Z" fill="#00BB78"/>
<path d="M40.6294 22.5414H9.37049C9.07286 22.5414 8.83154 22.3001 8.83154 22.0025V19.8467C8.83154 19.5491 9.07286 19.3077 9.37049 19.3077H40.6294C40.9271 19.3077 41.1684 19.5491 41.1684 19.8467V22.0025C41.1684 22.3001 40.9271 22.5414 40.6294 22.5414Z" fill="#00A171"/>
<path d="M32.5907 24.6972L33.0206 22.5414H10.4482L10.8782 24.6972H32.5907Z" fill="#00A171"/>
<path d="M33.0842 22.5414H9.37049C9.07286 22.5414 8.83154 22.3001 8.83154 22.0025V19.8467C8.83154 19.5491 9.07286 19.3077 9.37049 19.3077H33.0842C33.3818 19.3077 33.6231 19.5491 33.6231 19.8467V22.0025C33.6231 22.3001 33.3818 22.5414 33.0842 22.5414Z" fill="#00BB78"/>
<path d="M26.0778 30.7421H24.9999C24.7023 30.7421 24.4609 30.5008 24.4609 30.2032V28.0474C24.4609 27.7497 24.7023 27.5084 24.9999 27.5084H26.0778C26.3754 27.5084 26.6167 27.7497 26.6167 28.0474V30.2032C26.6167 30.5008 26.3754 30.7421 26.0778 30.7421Z" fill="white"/>
<path d="M21.7663 30.7421H20.6884C20.3907 30.7421 20.1494 30.5008 20.1494 30.2032V28.0474C20.1494 27.7497 20.3907 27.5084 20.6884 27.5084H21.7663C22.0639 27.5084 22.3052 27.7497 22.3052 28.0474V30.2032C22.3052 30.5008 22.0639 30.7421 21.7663 30.7421Z" fill="white"/>
<path d="M17.4547 30.7421H16.3768C16.0792 30.7421 15.8379 30.5008 15.8379 30.2032V28.0474C15.8379 27.7497 16.0792 27.5084 16.3768 27.5084H17.4547C17.7524 27.5084 17.9937 27.7497 17.9937 28.0474V30.2032C17.9937 30.5008 17.7524 30.7421 17.4547 30.7421Z" fill="white"/>
<path d="M26.0778 36.1315H24.9999C24.7023 36.1315 24.4609 35.8902 24.4609 35.5926V33.4368C24.4609 33.1391 24.7023 32.8978 24.9999 32.8978H26.0778C26.3754 32.8978 26.6167 33.1391 26.6167 33.4368V35.5926C26.6167 35.8902 26.3754 36.1315 26.0778 36.1315Z" fill="white"/>
<path d="M21.7663 36.1315H20.6884C20.3907 36.1315 20.1494 35.8902 20.1494 35.5926V33.4368C20.1494 33.1391 20.3907 32.8978 20.6884 32.8978H21.7663C22.0639 32.8978 22.3052 33.1391 22.3052 33.4368V35.5926C22.3052 35.8902 22.0639 36.1315 21.7663 36.1315Z" fill="white"/>
<path d="M17.4547 36.1315H16.3768C16.0792 36.1315 15.8379 35.8902 15.8379 35.5926V33.4368C15.8379 33.1391 16.0792 32.8978 16.3768 32.8978H17.4547C17.7524 32.8978 17.9937 33.1391 17.9937 33.4368V35.5926C17.9937 35.8902 17.7524 36.1315 17.4547 36.1315Z" fill="white"/>
<path d="M15.6577 22.0027C15.5153 22.0027 15.3705 21.9743 15.2313 21.9142C14.6847 21.6784 14.4327 21.0442 14.6685 20.4975L18.6208 11.3354C18.8566 10.7888 19.491 10.5368 20.0375 10.7726C20.5841 11.0084 20.8361 11.6427 20.6003 12.1893L16.648 21.3514C16.4722 21.7589 16.075 22.0027 15.6577 22.0027Z" fill="#55595E"/>
<path d="M26.7971 22.0027C26.3798 22.0027 25.9826 21.7589 25.8068 21.3514L21.8545 12.1893C21.6188 11.6427 21.8707 11.0084 22.4173 10.7726C22.9638 10.5368 23.5982 10.7888 23.834 11.3354L27.7863 20.4975C28.0221 21.0442 27.7702 21.6784 27.2235 21.9142C27.0844 21.9743 26.9396 22.0027 26.7971 22.0027Z" fill="#55595E"/>
</svg>
