<svg width="60" height="60" viewBox="0 0 60 60" fill="none" xmlns="http://www.w3.org/2000/svg">
  <rect width="60" height="60" rx="12" fill="#F3F6FA"/>
  <ellipse cx="32.035" cy="30" rx="13.0238" ry="15.0588" fill="#F57828"/>
  <rect x="27.965" y="14.9412" width="3.25596" height="30.1176" fill="#F57828"/>
  <ellipse cx="27.965" cy="30" rx="13.0238" ry="15.0588" fill="#FAA037"/>
  <ellipse cx="27.965" cy="30.0001" rx="10.5819" ry="12.549" fill="#F57828"/>
  <ellipse opacity="0.6" cx="28.779" cy="30.0001" rx="9.76788" ry="12.549" fill="#FAA037"/>
  <mask id="path-7-inside-1_7243_147289" fill="white">
    <path d="M24.7091 25.1438C24.7091 24.5915 25.1568 24.1438 25.7091 24.1438H28.666C30.9762 24.1438 32.849 26.0166 32.849 28.3268C32.849 30.637 30.9762 32.5098 28.666 32.5098H25.7091C25.1568 32.5098 24.7091 32.0621 24.7091 31.5098V25.1438Z"/>
  </mask>
  <path d="M24.7091 25.1438C24.7091 24.5915 25.1568 24.1438 25.7091 24.1438H28.666C30.9762 24.1438 32.849 26.0166 32.849 28.3268C32.849 30.637 30.9762 32.5098 28.666 32.5098H25.7091C25.1568 32.5098 24.7091 32.0621 24.7091 31.5098V25.1438Z" stroke="white" stroke-width="4" mask="url(#path-7-inside-1_7243_147289)"/>
  <path d="M25.6519 29.1633V35.8561" stroke="white" stroke-width="2" stroke-linecap="round" stroke-linejoin="round"/>
</svg>
