<svg width="60" height="60" viewBox="0 0 60 60" fill="none" xmlns="http://www.w3.org/2000/svg">
<path d="M17.4206 47.1571H13.2045C9.71173 47.1571 6.88037 49.9947 6.88037 53.4953C6.88037 56.9959 9.71173 59.8336 13.2045 59.8336H17.4206C20.9133 59.8336 23.7447 56.9959 23.7447 53.4953C23.7447 49.9947 20.9133 47.1571 17.4206 47.1571Z" fill="#333333"/>
<rect y="18" width="47.3389" height="35.229" rx="3" fill="#00A171"/>
<rect y="18" width="26.4217" height="35.229" rx="3" fill="#00BB78"/>
<path d="M51.5668 47.1571H51.1452C47.6524 47.1571 44.821 49.9947 44.821 53.4953C44.821 56.9959 47.6524 59.8336 51.1452 59.8336H51.5668C55.0595 59.8336 57.8909 56.9959 57.8909 53.4953C57.8909 49.9947 55.0595 47.1571 51.5668 47.1571Z" fill="#333333"/>
<path d="M38.4941 47.1571H34.278C30.7852 47.1571 27.9539 49.9947 27.9539 53.4953C27.9539 56.9959 30.7852 59.8336 34.278 59.8336H38.4941C41.9868 59.8336 44.8182 56.9959 44.8182 53.4953C44.8182 49.9947 41.9868 47.1571 38.4941 47.1571Z" fill="#333333"/>
<path d="M57.8918 53.4928H27.9576C26.7934 53.4928 25.8496 52.5469 25.8496 51.3801V40.8163H59.9998V51.3801C59.9998 52.5469 59.0561 53.4928 57.8918 53.4928Z" fill="#C2C6CC"/>
<path d="M51.173 27.0854H29.0117C27.2653 27.0854 25.8496 28.5042 25.8496 30.2545V40.8183H59.9998C59.9998 39.4319 59.6528 38.0677 58.9904 36.8508L54.8741 29.2875C54.1354 27.93 52.7158 27.0854 51.173 27.0854Z" fill="#333333"/>
<path d="M33.887 27.0854H29.0117C27.2653 27.0854 25.8496 28.5042 25.8496 30.2545V40.8183H42.7139C42.7139 39.4319 42.3669 38.0677 41.7044 36.8508L37.5882 29.2875C36.8495 27.93 35.4299 27.0854 33.887 27.0854Z" fill="#55595E"/>
<path d="M40.6059 53.4928H27.9576C26.7934 53.4928 25.8496 52.5469 25.8496 51.38V40.8163H42.7139V51.38C42.7139 52.5469 41.7702 53.4928 40.6059 53.4928Z" fill="#F7FAFC"/>
<path d="M49.0419 50.3229C50.2061 50.3229 51.1499 49.3769 51.1499 48.2101C51.1499 47.0433 50.2061 46.0974 49.0419 46.0974C47.8776 46.0974 46.9338 47.0433 46.9338 48.2101C46.9338 49.3769 47.8776 50.3229 49.0419 50.3229Z" fill="#F7FAFC"/>
<path d="M55.5692 50.3229C56.7335 50.3229 57.6773 49.3769 57.6773 48.2101C57.6773 47.0433 56.7335 46.0974 55.5692 46.0974C54.405 46.0974 53.4612 47.0433 53.4612 48.2101C53.4612 49.3769 54.405 50.3229 55.5692 50.3229Z" fill="#F7FAFC"/>
<path d="M34.278 59.8336C37.7707 59.8336 40.6021 56.9958 40.6021 53.4953C40.6021 49.9948 37.7707 47.1571 34.278 47.1571C30.7853 47.1571 27.9539 49.9948 27.9539 53.4953C27.9539 56.9958 30.7853 59.8336 34.278 59.8336Z" fill="#55595E"/>
<path d="M34.2838 55.6063C35.4481 55.6063 36.3919 54.6604 36.3919 53.4936C36.3919 52.3267 35.4481 51.3808 34.2838 51.3808C33.1196 51.3808 32.1758 52.3267 32.1758 53.4936C32.1758 54.6604 33.1196 55.6063 34.2838 55.6063Z" fill="#F7FAFC"/>
<path d="M13.2045 59.8336C16.6972 59.8336 19.5286 56.9958 19.5286 53.4953C19.5286 49.9948 16.6972 47.1571 13.2045 47.1571C9.71177 47.1571 6.88037 49.9948 6.88037 53.4953C6.88037 56.9958 9.71177 59.8336 13.2045 59.8336Z" fill="#55595E"/>
<path d="M13.195 55.6063C14.3592 55.6063 15.303 54.6604 15.303 53.4936C15.303 52.3267 14.3592 51.3808 13.195 51.3808C12.0307 51.3808 11.0869 52.3267 11.0869 53.4936C11.0869 54.6604 12.0307 55.6063 13.195 55.6063Z" fill="#F7FAFC"/>
<path d="M55.4005 30.2545L54.8743 29.2875C54.1354 27.9301 52.7158 27.0854 51.173 27.0854H29.0117C27.2653 27.0854 25.8496 28.5042 25.8496 30.2545H55.4005Z" fill="#C2C6CC"/>
<path d="M25.8496 30.2545H38.1146L37.5884 29.2875C36.8495 27.9301 35.4299 27.0854 33.887 27.0854H29.0117C27.2653 27.0854 25.8496 28.5042 25.8496 30.2545Z" fill="#F7FAFC"/>
</svg>
