<svg width="100" height="100" viewBox="0 0 100 100" fill="none" xmlns="http://www.w3.org/2000/svg">
    <rect x="17" y="12.1279" width="60.8957" height="72.1727" rx="6" fill="#00BB78"/>
    <path d="M21.6514 64.3302V21.8496C21.6514 19.0882 23.8899 16.8496 26.6514 16.8496H67.8207C70.5821 16.8496 72.8207 19.0882 72.8207 21.8496V74.6483C72.8207 77.4097 70.5821 79.6483 67.8207 79.6483H36.9695L21.6514 64.3302Z" fill="white"/>
    <path d="M32.9695 64.3306C35.1786 64.3306 36.9695 66.1214 36.9695 68.3306V79.6487L21.6514 64.3306H32.9695Z" fill="#D9DCE1"/>
    <path d="M36.1709 17.7662V12C36.1709 11.4477 36.6186 11 37.1709 11H57.7249C58.2772 11 58.7249 11.4477 58.7249 12V17.7662C58.7249 19.6345 56.7051 21.1493 54.2141 21.1493H40.6817C38.1906 21.1493 36.1709 19.6345 36.1709 17.7662Z" fill="#55595E"/>
    <rect x="31.1494" y="31" width="32.0648" height="2" rx="1" fill="#55595E"/>
    <rect x="31" y="38" width="24.2986" height="2" rx="1" fill="#55595E"/>
    <rect x="31.1494" y="45" width="14.5324" height="2" rx="1" fill="#55595E"/>
    <circle cx="70.5078" cy="76.165" r="16" fill="#F37021"/>
    <path d="M63.5078 76.081L68.6411 81.6923L77.5078 72" stroke="white" stroke-width="2.5" stroke-linecap="round" stroke-linejoin="round"/>
</svg>
