<svg width="19" height="18" viewBox="0 0 19 18" fill="none" xmlns="http://www.w3.org/2000/svg">
<path d="M15.25 7.75C15.25 12.4167 9.25 16.4167 9.25 16.4167C9.25 16.4167 3.25 12.4167 3.25 7.75C3.25 6.1587 3.88214 4.63258 5.00736 3.50736C6.13258 2.38214 7.6587 1.75 9.25 1.75C10.8413 1.75 12.3674 2.38214 13.4926 3.50736C14.6179 4.63258 15.25 6.1587 15.25 7.75Z" stroke="#777C84" stroke-width="1.5" stroke-linecap="round" stroke-linejoin="round"/>
<path d="M9.25195 9.75195C10.3565 9.75195 11.252 8.85652 11.252 7.75195C11.252 6.64738 10.3565 5.75195 9.25195 5.75195C8.14738 5.75195 7.25195 6.64738 7.25195 7.75195C7.25195 8.85652 8.14738 9.75195 9.25195 9.75195Z" stroke="#777C84" stroke-width="1.5" stroke-linecap="round" stroke-linejoin="round"/>
</svg>
