<svg width="50" height="50" viewBox="0 0 50 50" fill="none" xmlns="http://www.w3.org/2000/svg">
<rect width="50" height="50" rx="10" fill="white"/>
<path d="M18.3853 30.5125H16.1462C14.2913 30.5125 12.7876 32.0518 12.7876 33.9507C12.7876 35.8496 14.2913 37.3889 16.1462 37.3889H18.3853C20.2403 37.3889 21.7439 35.8496 21.7439 33.9507C21.7439 32.0518 20.2403 30.5125 18.3853 30.5125Z" fill="#333333"/>
<rect x="14.2949" y="12.7648" width="19.675" height="21.1841" rx="4" fill="#D41B29"/>
<rect x="9" y="12.7648" width="14.6432" height="21.1841" rx="4" fill="#EA1D2D"/>
<path d="M36.5215 30.5125H36.2976C34.4427 30.5125 32.939 32.0518 32.939 33.9507C32.939 35.8496 34.4427 37.3889 36.2976 37.3889H36.5215C38.3764 37.3889 39.8801 35.8496 39.8801 33.9507C39.8801 32.0518 38.3764 30.5125 36.5215 30.5125Z" fill="#333333"/>
<path d="M29.5801 30.5125H27.3411C25.4861 30.5125 23.9824 32.0518 23.9824 33.9507C23.9824 35.8496 25.4861 37.3889 27.3411 37.3889H29.5801C31.4351 37.3889 32.9388 35.8496 32.9388 33.9507C32.9388 32.0518 31.4351 30.5125 29.5801 30.5125Z" fill="#333333"/>
<path d="M39.8799 33.9499H23.9823C23.364 33.9499 22.8628 33.4368 22.8628 32.8038V27.0734H40.9994V32.8038C40.9994 33.4368 40.4982 33.9499 39.8799 33.9499Z" fill="#D9DCE1"/>
<path d="M36.3121 19.6255H24.5426C23.6151 19.6255 22.8633 20.3952 22.8633 21.3446V27.075H40.9999C40.9999 26.323 40.8156 25.583 40.4638 24.9228L38.2777 20.8201C37.8854 20.0836 37.1314 19.6255 36.3121 19.6255Z" fill="#333333"/>
<path d="M27.1318 19.6255H24.5426C23.6151 19.6255 22.8633 20.3952 22.8633 21.3446V27.075H31.8196C31.8196 26.323 31.6353 25.583 31.2835 24.9228L29.0975 20.8201C28.7051 20.0836 27.9512 19.6255 27.1318 19.6255Z" fill="#55595E"/>
<path d="M30.6996 33.9499H23.9823C23.364 33.9499 22.8628 33.4368 22.8628 32.8038V27.0734H31.8191V32.8038C31.8191 33.4368 31.3179 33.9499 30.6996 33.9499Z" fill="#F3F6FA"/>
<path d="M35.1781 32.2317C35.7964 32.2317 36.2977 31.7186 36.2977 31.0857C36.2977 30.4527 35.7964 29.9396 35.1781 29.9396C34.5598 29.9396 34.0586 30.4527 34.0586 31.0857C34.0586 31.7186 34.5598 32.2317 35.1781 32.2317Z" fill="white"/>
<path d="M38.6488 32.2317C39.2671 32.2317 39.7684 31.7186 39.7684 31.0857C39.7684 30.4527 39.2671 29.9396 38.6488 29.9396C38.0305 29.9396 37.5293 30.4527 37.5293 31.0857C37.5293 31.7186 38.0305 32.2317 38.6488 32.2317Z" fill="white"/>
<path d="M27.3411 37.3889C29.196 37.3889 30.6997 35.8496 30.6997 33.9507C30.6997 32.0518 29.196 30.5125 27.3411 30.5125C25.4861 30.5125 23.9824 32.0518 23.9824 33.9507C23.9824 35.8496 25.4861 37.3889 27.3411 37.3889Z" fill="#55595E"/>
<path d="M27.3407 35.0967C27.959 35.0967 28.4603 34.5836 28.4603 33.9506C28.4603 33.3177 27.959 32.8046 27.3407 32.8046C26.7224 32.8046 26.2212 33.3177 26.2212 33.9506C26.2212 34.5836 26.7224 35.0967 27.3407 35.0967Z" fill="white"/>
<path d="M16.1462 37.3889C18.0011 37.3889 19.5049 35.8496 19.5049 33.9507C19.5049 32.0518 18.0011 30.5125 16.1462 30.5125C14.2913 30.5125 12.7876 32.0518 12.7876 33.9507C12.7876 35.8496 14.2913 37.3889 16.1462 37.3889Z" fill="#55595E"/>
<path d="M16.1459 35.0967C16.7642 35.0967 17.2655 34.5836 17.2655 33.9506C17.2655 33.3177 16.7642 32.8046 16.1459 32.8046C15.5276 32.8046 15.0264 33.3177 15.0264 33.9506C15.0264 34.5836 15.5276 35.0967 16.1459 35.0967Z" fill="white"/>
<path d="M38.5573 21.3446L38.2778 20.8201C37.8854 20.0837 37.1314 19.6255 36.3121 19.6255H24.5426C23.6151 19.6255 22.8633 20.3952 22.8633 21.3446H38.5573Z" fill="#D9DCE1"/>
<path d="M22.8633 21.3446H29.377L29.0975 20.8201C28.7051 20.0837 27.9512 19.6255 27.1318 19.6255H24.5426C23.6151 19.6255 22.8633 20.3952 22.8633 21.3446Z" fill="#F3F6FA"/>
</svg>
