<svg width="16" height="16" viewBox="0 0 16 16" fill="none" xmlns="http://www.w3.org/2000/svg">
    <path d="M7.5 3.5C6.80515 3.5 5.85089 3.5 4.99988 3.5C3.89531 3.5 3 4.39543 3 5.5V10.5C3 11.6046 3.89543 12.5 5 12.5H10C11.1046 12.5 12 11.6046 12 10.5V8.5" stroke="#0EB26E" stroke-width="1.5" stroke-linecap="round"/>
    <mask id="path-2-inside-1_3662_10084" fill="white">
        <path d="M7.53033 6.96967C7.23744 7.26256 7.23744 7.73744 7.53033 8.03033C7.82322 8.32322 8.2981 8.32322 8.59099 8.03033L13.1872 3.43414C13.4801 3.14124 13.4801 2.66637 13.1872 2.37348C12.8943 2.08058 12.4194 2.08058 12.1265 2.37348L7.53033 6.96967Z"/>
    </mask>
    <path d="M7.53033 6.96967L12.1265 2.37348L14.2478 4.4948L9.65165 9.09099L7.53033 6.96967ZM13.1872 3.43414L8.59099 8.03033L6.46967 5.90901L11.0659 1.31282L13.1872 3.43414ZM11.0659 1.31282C11.9445 0.434136 13.3692 0.434136 14.2478 1.31282L12.1265 3.43414C12.4194 3.72703 12.8943 3.72703 13.1872 3.43414L11.0659 1.31282ZM12.1265 2.37348C11.8336 2.66637 11.8336 3.14124 12.1265 3.43414L14.2478 1.31282C15.1265 2.1915 15.1265 3.61612 14.2478 4.4948L12.1265 2.37348ZM8.59099 6.96967C8.2981 6.67678 7.82322 6.67678 7.53033 6.96967L9.65165 9.09099C8.77297 9.96967 7.34835 9.96967 6.46967 9.09099L8.59099 6.96967ZM6.46967 9.09099C5.59099 8.21231 5.59099 6.78769 6.46967 5.90901L8.59099 8.03033C8.88388 7.73744 8.88388 7.26256 8.59099 6.96967L6.46967 9.09099Z" fill="#0EB26E" mask="url(#path-2-inside-1_3662_10084)"/>
</svg>