<svg width="18" height="18" viewBox="0 0 18 18" fill="none" xmlns="http://www.w3.org/2000/svg">
    <path d="M16.5872 14.4224C16.5872 14.4224 15.6728 15.3205 15.4487 15.5838C15.0836 15.9734 14.6535 16.1573 14.0897 16.1573C14.0355 16.1573 13.9777 16.1573 13.9234 16.1537C12.85 16.0852 11.8524 15.6668 11.1042 15.3097C9.05852 14.3214 7.26219 12.9183 5.76946 11.1401C4.53697 9.65759 3.7129 8.28694 3.16713 6.8153C2.83099 5.91717 2.70811 5.21741 2.76232 4.55734C2.79846 4.13532 2.96111 3.78545 3.2611 3.48607L4.4936 2.25609C4.6707 2.09017 4.85864 2 5.04298 2C5.27068 2 5.45501 2.13706 5.57067 2.25249C5.57429 2.25609 5.5779 2.2597 5.58152 2.26331C5.80199 2.46891 6.01162 2.68172 6.2321 2.90896C6.34414 3.02438 6.4598 3.1398 6.57546 3.25883L7.56218 4.24353C7.9453 4.62587 7.9453 4.97936 7.56218 5.36169C7.45736 5.4663 7.35616 5.5709 7.25135 5.67189C6.94774 5.98209 7.18624 5.74408 6.87179 6.02542C6.86456 6.03264 6.85733 6.03624 6.85372 6.04346C6.54288 6.35366 6.60071 6.65664 6.66577 6.86224C6.66939 6.87306 6.673 6.88388 6.67662 6.8947C6.93323 7.5151 7.29467 8.09943 7.84405 8.79557L7.84767 8.79918C8.84523 10.0255 9.897 10.9814 11.0572 11.7136C11.2054 11.8074 11.3572 11.8831 11.5018 11.9553C11.6319 12.0202 11.7548 12.0815 11.8596 12.1464C11.8741 12.1537 11.8885 12.1645 11.903 12.1717C12.0259 12.233 12.1415 12.2619 12.2608 12.2619C12.5608 12.2619 12.7487 12.0743 12.8102 12.013L13.5186 11.306C13.6415 11.1833 13.8367 11.0355 14.0644 11.0355C14.2885 11.0355 14.4728 11.1761 14.5849 11.2988C14.5885 11.3024 14.5885 11.3024 14.5921 11.306L16.5836 13.2934C16.9559 13.6613 16.5872 14.4224 16.5872 14.4224Z" stroke="#55595E" stroke-width="1.5" stroke-linecap="round" stroke-linejoin="round"/>
</svg>