<svg width="80" height="80" viewBox="0 0 80 80" fill="none" xmlns="http://www.w3.org/2000/svg">
    <rect x="7" y="12" width="65" height="50" rx="6" fill="#C2C6CC"/>
    <path fill-rule="evenodd" clip-rule="evenodd" d="M5.65396 15.2761C5 16.5595 5 18.2397 5 21.6V52.4C5 55.7603 5 57.4405 5.65396 58.7239C6.2292 59.8529 7.14708 60.7708 8.27606 61.346C9.55953 62 11.2397 62 14.6 62H19V68.4535C19 70.1937 21.0686 71.1037 22.3514 69.9278L31 62H56.4C59.7603 62 61.4405 62 62.7239 61.346C63.8529 60.7708 64.7708 59.8529 65.346 58.7239C66 57.4405 66 55.7603 66 52.4V21.6C66 18.2397 66 16.5595 65.346 15.2761C64.7708 14.1471 63.8529 13.2292 62.7239 12.654C61.4405 12 59.7603 12 56.4 12H14.6C11.2397 12 9.55953 12 8.27606 12.654C7.14708 13.2292 6.2292 14.1471 5.65396 15.2761Z" fill="#D9DCE1"/>
    <rect x="17" y="25" width="24" height="2" rx="1" fill="#777C84"/>
    <rect x="17" y="32" width="20" height="2" rx="1" fill="#777C84"/>
    <rect x="17" y="39" width="16" height="2" rx="1" fill="#777C84"/>
    <path d="M71.6003 7.70648C70.444 7.01963 69.032 6.82212 67.7264 7.16448C66.4296 7.50459 65.3521 8.3233 64.6923 9.46983L46.1963 41.523C46.1281 41.6415 46.085 41.7729 46.0699 41.9089L45.006 51.575C44.9636 51.9594 45.1495 52.3333 45.4815 52.5316C45.6379 52.6251 45.8132 52.6714 45.9883 52.6714C46.1848 52.6714 46.3808 52.6128 46.5492 52.4968L54.5718 46.9661C54.6928 46.8828 54.7935 46.7736 54.867 46.6464L73.3595 14.596C74.7396 12.1962 73.9506 9.10572 71.5998 7.70634L71.6003 7.70648Z" fill="#00BB78"/>
    <path d="M45.4816 52.5317C45.638 52.6252 45.8134 52.6715 45.9884 52.6715C46.185 52.6715 46.3809 52.6129 46.5494 52.4968L54.572 46.9662L46.0699 41.9089L45.006 51.575C44.9636 51.9595 45.1495 52.3333 45.4815 52.5317H45.4816Z" fill="#F3F6FA"/>
    <path d="M71.6003 7.70648C70.444 7.01963 69.032 6.82212 67.7264 7.16448C66.4296 7.50459 65.3521 8.3233 64.6923 9.46983L61.6279 14.7804L70.2816 19.9314L73.3599 14.5961C74.74 12.1963 73.9511 9.10586 71.6003 7.70648Z" fill="#00BB78"/>
    <path d="M67.9896 18.5667L52.4921 45.4261C52.4481 45.5023 52.3932 45.5711 52.3311 45.6328L54.5726 46.9661C54.6936 46.8828 54.7942 46.7735 54.8678 46.6463L70.282 19.9312L67.9896 18.5667Z" fill="#00A171"/>
    <path d="M71.6002 7.70625C71.1212 7.42177 70.598 7.22256 70.057 7.10962C71.7427 8.67419 72.1857 11.2863 70.9843 13.3757L67.9893 18.5666L70.2818 19.9311L73.3601 14.5959C74.7401 12.1961 73.9512 9.10564 71.6004 7.70625H71.6002Z" fill="#00A171"/>
    <path d="M54.5725 46.9666L52.3309 45.6333C52.2894 45.6745 52.2452 45.7129 52.1968 45.7464L45.1104 50.6315L47.376 51.9276L54.5725 46.9666Z" fill="#E8EBF0"/>
    <path d="M45.4816 52.5314C45.638 52.6249 45.8134 52.6712 45.9884 52.6712C46.185 52.6712 46.3809 52.6126 46.5494 52.4966L47.3755 51.9269L45.1099 50.6309L45.006 51.5748C44.9636 51.9592 45.1495 52.3331 45.4815 52.5314H45.4816Z" fill="#55595E"/>
</svg>
