<svg width="24" height="24" viewBox="0 0 24 24" fill="none" xmlns="http://www.w3.org/2000/svg">
<path d="M17.3333 8.33333C18.8061 8.33333 20 7.13943 20 5.66667C20 4.19391 18.8061 3 17.3333 3C15.8605 3 14.6666 4.19391 14.6666 5.66667C14.6666 7.13943 15.8605 8.33333 17.3333 8.33333Z" stroke="#55595E" stroke-width="1.5" stroke-linecap="round" stroke-linejoin="round"/>
<path d="M6.66667 14.556C8.13943 14.556 9.33333 13.3621 9.33333 11.8893C9.33333 10.4166 8.13943 9.22266 6.66667 9.22266C5.19391 9.22266 4 10.4166 4 11.8893C4 13.3621 5.19391 14.556 6.66667 14.556Z" stroke="#55595E" stroke-width="1.5" stroke-linecap="round" stroke-linejoin="round"/>
<path d="M17.3333 20.7777C18.8061 20.7777 20 19.5838 20 18.111C20 16.6382 18.8061 15.4443 17.3333 15.4443C15.8605 15.4443 14.6666 16.6382 14.6666 18.111C14.6666 19.5838 15.8605 20.7777 17.3333 20.7777Z" stroke="#55595E" stroke-width="1.5" stroke-linecap="round" stroke-linejoin="round"/>
<path d="M8.96887 13.2305L15.04 16.7682" stroke="#55595E" stroke-width="1.5" stroke-linecap="round" stroke-linejoin="round"/>
<path d="M15.0311 7.00879L8.96887 10.5466" stroke="#55595E" stroke-width="1.5" stroke-linecap="round" stroke-linejoin="round"/>
</svg>
