<svg width="103" height="102" viewBox="0 0 103 102" fill="none" xmlns="http://www.w3.org/2000/svg">
    <circle opacity="0.55" cx="51.5" cy="51" r="50.5" fill="white" stroke="#EA1D2D"/>
    <path d="M45.3236 63H40.6164V44.8453H40.4838L35.2905 48.105V43.9282L40.8927 40.3702H45.3236V63ZM58.6277 40.0608C60.2999 40.0608 61.8211 40.4217 63.1912 41.1436C64.5688 41.8656 65.6811 43.0479 66.5283 44.6906C67.3754 46.3333 67.8027 48.4659 67.81 51.0884C67.81 53.6225 67.4306 55.8103 66.6719 57.6519C65.9132 59.4862 64.8303 60.8895 63.4233 61.8619C62.0236 62.8269 60.3809 63.3094 58.4951 63.3094C57.0071 63.3094 55.6737 63.0221 54.4951 62.4475C53.3165 61.8729 52.3699 61.081 51.6553 60.0718C50.9408 59.0552 50.5062 57.9098 50.3515 56.6354H54.9813C55.1728 57.4678 55.578 58.116 56.1968 58.5801C56.8155 59.0442 57.5817 59.2762 58.4951 59.2762C59.5043 59.2762 60.3588 58.9853 61.0586 58.4033C61.7658 57.8214 62.2999 56.9889 62.6609 55.9061C63.0218 54.8158 63.206 53.5157 63.2133 52.0055H63.0034C62.6572 52.6611 62.1894 53.2284 61.6001 53.7072C61.0108 54.186 60.3404 54.5543 59.589 54.8122C58.8376 55.0626 58.0457 55.1878 57.2133 55.1878C55.8726 55.1878 54.6608 54.8748 53.578 54.2486C52.5025 53.6225 51.6553 52.7569 51.0365 51.6519C50.4251 50.5396 50.1194 49.291 50.1194 47.9061C50.1194 46.4033 50.473 45.0589 51.1802 43.8729C51.8947 42.6796 52.8966 41.7477 54.1857 41.0773C55.4748 40.3996 56.9555 40.0608 58.6277 40.0608ZM54.694 47.7293C54.694 48.4807 54.8634 49.1621 55.2023 49.7735C55.5411 50.3849 56.0126 50.8674 56.6167 51.221C57.2207 51.5746 57.9058 51.7514 58.6719 51.7514C59.4159 51.7514 60.0973 51.5709 60.7161 51.2099C61.3349 50.849 61.8211 50.3665 62.1747 49.7624C62.5356 49.151 62.7161 48.488 62.7161 47.7735C62.7161 47.0589 62.543 46.3959 62.1968 45.7845C61.8505 45.1657 61.3717 44.6759 60.7603 44.3149C60.1489 43.9466 59.4638 43.7624 58.705 43.7624C57.9463 43.7624 57.2612 43.9392 56.6498 44.2928C56.0384 44.639 55.5596 45.1179 55.2133 45.7293C54.8671 46.3333 54.694 47 54.694 47.7293Z" fill="#EA1D2D"/>
</svg>
