<svg width="40" height="53" viewBox="0 0 40 53" fill="none" xmlns="http://www.w3.org/2000/svg">
<g clip-path="url(#clip0_8334_16984)">
<path d="M30.4052 39.8369C31.2239 39.8369 31.8814 40.5033 31.8814 41.3117C31.8814 42.1201 31.2239 42.7927 30.4052 42.7927C29.5865 42.7927 28.9414 42.1262 28.9414 41.3117C28.9414 40.4972 29.5927 39.8369 30.4052 39.8369ZM30.4052 42.5026C31.0503 42.5026 31.5589 41.9843 31.5589 41.3117C31.5589 40.6391 31.0503 40.1269 30.4052 40.1269C29.7601 40.1269 29.2515 40.6391 29.2515 41.3117C29.2515 41.9843 29.7601 42.5026 30.4052 42.5026ZM30.2253 42.1077H29.9214V40.4972H30.4796C30.796 40.4972 31.0255 40.7193 31.0255 41.0032C31.0255 41.2253 30.8828 41.4104 30.6719 41.4783L31.0317 42.1077H30.6843L30.3494 41.5092H30.2315V42.1077H30.2253ZM30.43 41.2438C30.6099 41.2438 30.7091 41.1574 30.7091 41.0093C30.7091 40.8551 30.6099 40.7625 30.43 40.7625H30.2191V41.2438H30.43Z" fill="#007350"/>
<path d="M37.5301 28.6138C36.7362 28.6138 36.1779 28.984 35.6693 29.4036L35.3034 29.922L35.1731 29.8294L35.6197 29.0827V28.6138H32.7852V37.9562H35.3592V32.0262C35.3592 31.0635 36.0105 30.7612 36.4508 30.6995C36.8726 30.6439 37.4184 30.8784 37.4184 31.4029V37.95H39.9925V31.514C39.9925 29.5209 39.0869 28.6138 37.5301 28.6138Z" fill="#007350"/>
<path d="M8.76482 35.9445H11.4691V37.95H6.18457V28.6138H8.76482V35.9445Z" fill="#007350"/>
<path d="M0 37.95H5.28454V36.1173H2.57404V34.0255H5.28454V32.2792H2.57404V30.5205H5.28454V28.6138H0V37.95Z" fill="#007350"/>
<path d="M12.3682 37.95H17.6527V36.1173H14.9484V34.0255H17.6527V32.2792H14.9484V30.5205H17.6527V28.6138H12.3682V37.95Z" fill="#007350"/>
<path d="M26.6025 37.95H31.8871V36.1173H29.1766V34.0255H31.8871V32.2792H29.1766V30.5205H31.8871V28.6138H26.6025V37.95Z" fill="#007350"/>
<path d="M23.2481 28.6138L22.2557 34.5376L22.1813 35.5558L22.1751 35.6484H22.082L22.0758 35.5558L22.0014 34.5376L21.009 28.6138H18.4102L20.55 37.95H23.7071L25.847 28.6138H23.2481Z" fill="#007350"/>
<path d="M33.5618 0.0186768H0V13.2671H17.7144C21.6654 7.54074 27.1422 2.92507 33.5618 0.0186768Z" fill="#F37021"/>
<path d="M13.335 53.0006H26.6518L26.6704 39.7583H13.3598L13.335 53.0006Z" fill="#EA1D2D"/>
<path d="M40.0004 13.2978V0C27.2852 3.48027 17.3612 13.6619 14.3096 26.4969H27.9365C29.9833 20.6348 34.3747 15.871 39.9942 13.304" fill="#EA1D2D"/>
</g>
<defs>
<clipPath id="clip0_8334_16984">
<rect width="40" height="53" fill="white"/>
</clipPath>
</defs>
</svg>
