<svg width="59" height="58" viewBox="0 0 59 58" fill="none" xmlns="http://www.w3.org/2000/svg">
    <circle cx="29.5" cy="29" r="29" fill="#333C4A"/>
    <path d="M24.6406 24.5156H26.1758V30.0586C26.1699 31.8809 24.7988 33.1289 22.7305 33.1289C20.6504 33.1289 19.291 31.8809 19.2852 30.0586V24.5156H20.8086V29.9297C20.8145 31.002 21.5586 31.7637 22.7305 31.7695C23.9023 31.7637 24.6406 31.002 24.6406 29.9297V24.5156ZM27.6861 33V24.5156H30.8736C32.8189 24.5156 33.856 25.6055 33.8619 27.2227C33.856 28.377 33.3287 29.2324 32.3326 29.6367L34.1666 33H32.4673L30.8033 29.8945H29.2095V33H27.6861ZM29.2095 28.6172H30.6392C31.7877 28.623 32.3033 28.1309 32.3033 27.2227C32.3033 26.3203 31.7877 25.793 30.6392 25.793H29.2095V28.6172ZM35.1144 33V24.5156H36.6378V31.7109H40.3878V33H35.1144Z" fill="white"/>
</svg>
