<svg width="60" height="60" viewBox="0 0 60 60" fill="none" xmlns="http://www.w3.org/2000/svg">
<path d="M25.1648 54.318C25.1648 55.9982 25.1648 56.8383 25.4918 57.48C25.7794 58.0445 26.2383 58.5034 26.8028 58.7911C27.4446 59.118 28.2846 59.118 29.9648 59.118H54.3611C56.0413 59.118 56.8814 59.118 57.5231 58.7911C58.0876 58.5034 58.5465 58.0445 58.8341 57.48C59.1611 56.8383 59.1611 55.9982 59.1611 54.318V20.8C59.1611 19.1198 59.1611 18.2798 58.8341 17.638C58.5465 17.0735 58.0876 16.6146 57.5231 16.327C56.8814 16 56.0413 16 54.3611 16H29.9648C28.2846 16 27.4446 16 26.8028 16.327C26.2383 16.6146 25.7794 17.0735 25.4918 17.638C25.1648 18.2798 25.1648 19.1198 25.1648 20.8V54.318Z" fill="#333333"/>
<path d="M12.9175 54.318C12.9175 55.9982 12.9175 56.8383 13.2445 57.48C13.5321 58.0445 13.991 58.5034 14.5555 58.7911C15.1972 59.118 16.0373 59.118 17.7175 59.118H42.1138C43.794 59.118 44.6341 59.118 45.2758 58.7911C45.8403 58.5034 46.2992 58.0445 46.5868 57.48C46.9138 56.8383 46.9138 55.9982 46.9138 54.318V20.8C46.9138 19.1198 46.9138 18.2798 46.5868 17.638C46.2992 17.0735 45.8403 16.6146 45.2758 16.327C44.6341 16 43.794 16 42.1138 16H17.7175C16.0373 16 15.1972 16 14.5555 16.327C13.991 16.6146 13.5321 17.0735 13.2445 17.638C12.9175 18.2798 12.9175 19.1198 12.9175 20.8V54.318Z" fill="#55595E"/>
<path opacity="0.5" d="M12.9175 23.7016C12.9175 24.8217 12.9175 25.3817 13.1355 25.8095C13.3272 26.1859 13.6332 26.4918 14.0095 26.6836C14.4373 26.9016 14.9974 26.9016 16.1175 26.9016H48.2303C49.3504 26.9016 49.9105 26.9016 50.3383 26.6836C50.7146 26.4918 51.0206 26.1859 51.2123 25.8095C51.4303 25.3817 51.4303 24.8217 51.4303 23.7016V22.3811C51.4303 21.261 51.4303 20.7009 51.2123 20.2731C51.0206 19.8968 50.7146 19.5908 50.3383 19.3991C49.9105 19.1811 49.3504 19.1811 48.2303 19.1811H16.1175C14.9974 19.1811 14.4373 19.1811 14.0095 19.3991C13.6332 19.5908 13.3272 19.8968 13.1355 20.2731C12.9175 20.7009 12.9175 21.261 12.9175 22.3811V23.7016Z" fill="#333333"/>
<path d="M35.6943 45.0302H20.0665C19.1444 45.0302 18.397 44.1373 18.397 43.0358V38.2622C18.397 37.1606 19.1444 36.2677 20.0665 36.2677H35.6943C36.6164 36.2677 37.3638 37.1606 37.3638 38.2622V43.0358C37.3638 44.1373 36.6164 45.0302 35.6943 45.0302Z" fill="#333333"/>
<path d="M35.6943 45.0302H22.952C22.0299 45.0302 21.2826 44.1373 21.2826 43.0358V38.2622C21.2826 37.1606 22.0299 36.2677 22.952 36.2677H35.6943C36.6164 36.2677 37.3638 37.1606 37.3638 38.2622V43.0358C37.3638 44.1373 36.6164 45.0302 35.6943 45.0302Z" fill="white"/>
<path d="M35.1196 31.8018C38.2078 31.8018 40.7114 29.234 40.7114 26.0667H29.5278C29.5278 29.234 32.0314 31.8018 35.1196 31.8018Z" fill="#D41B29"/>
<path d="M40.7114 26.0662H29.5278V24.9192C29.5278 21.7518 32.0314 19.1841 35.1196 19.1841H46.3031C43.2149 19.1841 40.7114 21.7518 40.7114 24.9192V26.0662Z" fill="#EA1D2D"/>
<path d="M23.9404 31.8018C27.0286 31.8018 29.5322 29.234 29.5322 26.0667H18.3486C18.3486 29.234 20.8522 31.8018 23.9404 31.8018Z" fill="#00A171"/>
<path d="M29.5322 26.0662H18.3486V24.9192C18.3486 21.7518 20.8522 19.1841 23.9404 19.1841H35.1239C32.0357 19.1841 29.5322 21.7518 29.5322 24.9192V26.0662Z" fill="#00BB78"/>
<path d="M12.7519 31.8017C15.8401 31.8017 18.3437 29.2339 18.3437 26.0665H7.16016C7.16016 29.2339 9.66373 31.8017 12.7519 31.8017Z" fill="#E65F0D"/>
<path d="M18.3437 26.0662H7.16016V24.9192C7.16016 21.7518 9.66373 19.1841 12.7519 19.1841H24.3083H23.9354C20.8473 19.1841 18.3437 21.7518 18.3437 24.9192V26.0662Z" fill="#F37021"/>
<rect x="8.38379" y="38.7812" width="15.7703" height="20.5014" rx="2" fill="#F57828"/>
<rect x="0.5" y="38.7812" width="16.5588" height="20.5014" rx="2" fill="#FAA037"/>
<path d="M6.01978 38.7812H10.7509V42.7009C10.7509 43.2609 10.7509 43.5409 10.6419 43.7548C10.546 43.943 10.393 44.096 10.2049 44.1919C9.99094 44.3009 9.71092 44.3009 9.15086 44.3009H7.61977C7.05972 44.3009 6.7797 44.3009 6.56578 44.1919C6.37762 44.096 6.22464 43.943 6.12877 43.7548C6.01978 43.5409 6.01978 43.2609 6.01978 42.7009V38.7812Z" fill="#F57828"/>
<rect opacity="0.5" x="2.96289" y="53.7637" width="4.73109" height="3.15406" rx="1" fill="white"/>
</svg>
