<svg width="60" height="60" viewBox="0 0 60 60" fill="none" xmlns="http://www.w3.org/2000/svg">
  <rect width="60" height="60" rx="12" fill="#F3F6FA"/>
  <path d="M39.3423 27.0027C38.9251 27.0027 38.5278 26.759 38.3521 26.3515L34.6806 17.8404H24.6106C24.0153 17.8404 23.5327 17.3577 23.5327 16.7625C23.5327 16.1672 24.0153 15.6846 24.6106 15.6846H35.3896C35.8198 15.6846 36.2089 15.9404 36.3793 16.3356L40.3316 25.4977C40.5674 26.0443 40.3154 26.6786 39.7688 26.9143C39.6297 26.9743 39.4848 27.0027 39.3423 27.0027Z" fill="#333333"/>
  <path d="M15.4485 27.5414L17.9891 42.6729C18.1828 43.8264 19.0718 44.6609 20.1068 44.6609H40.9078C41.9429 44.6609 42.8319 43.8263 43.0255 42.6729L44.5516 27.5414H15.4485Z" fill="#00A171"/>
  <path d="M15.4485 27.5414L16.9746 42.6729C17.1683 43.8264 18.0573 44.6609 19.0923 44.6609H33.3625C34.3976 44.6609 35.2866 43.8263 35.4803 42.6729L37.0064 27.5414H15.4485Z" fill="#00BB78"/>
  <path d="M45.6296 27.5414H14.3706C14.073 27.5414 13.8317 27.3001 13.8317 27.0025V24.8467C13.8317 24.5491 14.073 24.3077 14.3706 24.3077H45.6296C45.9272 24.3077 46.1685 24.5491 46.1685 24.8467V27.0025C46.1685 27.3001 45.9272 27.5414 45.6296 27.5414Z" fill="#00A171"/>
  <path d="M37.5909 29.6972L38.0209 27.5414H15.4485L15.8784 29.6972H37.5909Z" fill="#00A171"/>
  <path d="M38.0843 27.5414H14.3706C14.073 27.5414 13.8317 27.3001 13.8317 27.0025V24.8467C13.8317 24.5491 14.073 24.3077 14.3706 24.3077H38.0843C38.3819 24.3077 38.6232 24.5491 38.6232 24.8467V27.0025C38.6232 27.3001 38.3819 27.5414 38.0843 27.5414Z" fill="#00BB78"/>
  <path d="M31.078 35.7421H30.0001C29.7025 35.7421 29.4612 35.5008 29.4612 35.2032V33.0474C29.4612 32.7497 29.7025 32.5084 30.0001 32.5084H31.078C31.3757 32.5084 31.617 32.7497 31.617 33.0474V35.2032C31.617 35.5008 31.3757 35.7421 31.078 35.7421Z" fill="white"/>
  <path d="M26.7664 35.7421H25.6885C25.3908 35.7421 25.1495 35.5008 25.1495 35.2032V33.0474C25.1495 32.7497 25.3908 32.5084 25.6885 32.5084H26.7664C27.064 32.5084 27.3053 32.7497 27.3053 33.0474V35.2032C27.3053 35.5008 27.064 35.7421 26.7664 35.7421Z" fill="white"/>
  <path d="M22.4549 35.7421H21.377C21.0793 35.7421 20.838 35.5008 20.838 35.2032V33.0474C20.838 32.7497 21.0793 32.5084 21.377 32.5084H22.4549C22.7525 32.5084 22.9938 32.7497 22.9938 33.0474V35.2032C22.9938 35.5008 22.7525 35.7421 22.4549 35.7421Z" fill="white"/>
  <path d="M31.078 41.1315H30.0001C29.7025 41.1315 29.4612 40.8902 29.4612 40.5926V38.4368C29.4612 38.1391 29.7025 37.8978 30.0001 37.8978H31.078C31.3757 37.8978 31.617 38.1391 31.617 38.4368V40.5926C31.617 40.8902 31.3757 41.1315 31.078 41.1315Z" fill="white"/>
  <path d="M26.7664 41.1315H25.6885C25.3908 41.1315 25.1495 40.8902 25.1495 40.5926V38.4368C25.1495 38.1391 25.3908 37.8978 25.6885 37.8978H26.7664C27.064 37.8978 27.3053 38.1391 27.3053 38.4368V40.5926C27.3053 40.8902 27.064 41.1315 26.7664 41.1315Z" fill="white"/>
  <path d="M22.4549 41.1315H21.377C21.0793 41.1315 20.838 40.8902 20.838 40.5926V38.4368C20.838 38.1391 21.0793 37.8978 21.377 37.8978H22.4549C22.7525 37.8978 22.9938 38.1391 22.9938 38.4368V40.5926C22.9938 40.8902 22.7525 41.1315 22.4549 41.1315Z" fill="white"/>
  <path d="M20.6579 27.0027C20.5154 27.0027 20.3706 26.9743 20.2314 26.9142C19.6848 26.6784 19.4328 26.0442 19.6686 25.4975L23.6209 16.3354C23.8567 15.7888 24.4911 15.5368 25.0376 15.7726C25.5843 16.0084 25.8362 16.6427 25.6004 17.1893L21.6481 26.3514C21.4724 26.7589 21.0751 27.0027 20.6579 27.0027Z" fill="#55595E"/>
  <path d="M31.7971 27.0027C31.3798 27.0027 30.9826 26.7589 30.8068 26.3514L26.8545 17.1893C26.6188 16.6427 26.8707 16.0084 27.4173 15.7726C27.9638 15.5368 28.5982 15.7888 28.834 16.3354L32.7863 25.4975C33.0221 26.0442 32.7702 26.6784 32.2235 26.9142C32.0844 26.9743 31.9396 27.0027 31.7971 27.0027Z" fill="#55595E"/>
</svg>
