<svg width="50" height="50" viewBox="0 0 50 50" fill="none" xmlns="http://www.w3.org/2000/svg">
    <rect width="50" height="50" rx="12" fill="white"/>
    <rect x="15.7148" y="10.688" width="20.2845" height="25.5761" rx="4" fill="#00A171"/>
    <rect x="9.54199" y="10.688" width="20.2845" height="25.5761" rx="4" fill="#00BB78"/>
    <path d="M15.3245 17.5944C16.2378 17.5944 16.9782 16.854 16.9782 15.9407C16.9782 15.0275 16.2378 14.2871 15.3245 14.2871C14.4113 14.2871 13.6709 15.0275 13.6709 15.9407C13.6709 16.854 14.4113 17.5944 15.3245 17.5944Z" fill="#00A171"/>
    <path d="M24.1439 17.5944C25.0571 17.5944 25.7975 16.854 25.7975 15.9407C25.7975 15.0275 25.0571 14.2871 24.1439 14.2871C23.2306 14.2871 22.4902 15.0275 22.4902 15.9407C22.4902 16.854 23.2306 17.5944 24.1439 17.5944Z" fill="#00A171"/>
    <path d="M19.7343 22.1336C16.9989 22.1336 14.7734 19.9082 14.7734 17.1727V15.9406C14.7734 15.6362 15.0202 15.3894 15.3246 15.3894C15.6291 15.3894 15.8759 15.6362 15.8759 15.9406V17.1727C15.8759 19.3003 17.6068 21.0312 19.7343 21.0312C21.8618 21.0312 23.5928 19.3003 23.5928 17.1727V15.9406C23.5928 15.6362 23.8396 15.3894 24.144 15.3894C24.4484 15.3894 24.6952 15.6362 24.6952 15.9406V17.1727C24.6952 19.9082 22.4698 22.1336 19.7343 22.1336Z" fill="#E6E6EB"/>
    <circle cx="32.3595" cy="32.6734" r="8.36923" fill="#333333"/>
    <ellipse cx="1.15692" cy="1.15409" rx="1.15692" ry="1.15409" transform="matrix(0.498164 -0.867083 0.864962 0.501838 28.4404 31.8037)" stroke="white" stroke-width="1.2"/>
    <ellipse cx="1.15692" cy="1.15409" rx="1.15692" ry="1.15409" transform="matrix(0.498164 -0.867083 0.864962 0.501838 33.168 34.5469)" stroke="white" stroke-width="1.2"/>
    <path d="M34.0334 30.073L30.6074 35.4285" stroke="white" stroke-width="1.2" stroke-linecap="round"/>
</svg>
