<svg width="101" height="100" viewBox="0 0 101 100" fill="none" xmlns="http://www.w3.org/2000/svg">
    <path d="M36.2563 68.041H30.5057C25.7418 68.041 21.8799 71.9115 21.8799 76.6862C21.8799 81.4608 25.7418 85.3313 30.5057 85.3313H36.2563C41.0203 85.3313 44.8822 81.4608 44.8822 76.6862C44.8822 71.9115 41.0203 68.041 36.2563 68.041Z" fill="#333333"/>
    <path d="M76.4905 73.8025V31.1532C76.4905 29.5616 75.2032 28.2715 73.6152 28.2715H44.8623C46.4504 28.2715 47.7376 29.5616 47.7376 31.1532V73.8025C47.7376 75.3941 46.4504 76.6842 44.8623 76.6842H73.6152C75.2032 76.6842 76.4905 75.3941 76.4905 73.8025Z" fill="#00A171"/>
    <path d="M15.4065 28.2715H45.5974C46.7883 28.2715 47.7539 29.2392 47.7539 30.4328C47.7539 30.5469 47.745 30.659 47.728 30.7683C47.7448 30.8942 47.7534 31.0227 47.7534 31.1532V70.1571C47.7537 70.1715 47.7539 70.1859 47.7539 70.2004C47.7539 70.2149 47.7537 70.2293 47.7534 70.2437V73.8025C47.7534 75.3941 46.4662 76.6842 44.8781 76.6842H16.1257C14.5376 76.6842 13.2504 75.3941 13.2504 73.8025V70.2435C13.2501 70.2292 13.25 70.2148 13.25 70.2004C13.25 70.186 13.2501 70.1716 13.2504 70.1573V31.1532C13.2504 31.0227 13.2591 30.8942 13.2758 30.7683C13.2588 30.659 13.25 30.5469 13.25 30.4328C13.25 29.2392 14.2156 28.2715 15.4065 28.2715Z" fill="#00BB78"/>
    <path d="M82.8313 68.041H82.2562C77.4922 68.041 73.6304 71.9115 73.6304 76.6862C73.6304 81.4608 77.4922 85.3313 82.2562 85.3313H82.8313C87.5953 85.3313 91.4571 81.4608 91.4571 76.6862C91.4571 71.9115 87.5953 68.041 82.8313 68.041Z" fill="#333333"/>
    <path d="M65.0024 68.041H59.2518C54.4878 68.041 50.626 71.9115 50.626 76.6862C50.626 81.4608 54.4878 85.3313 59.2518 85.3313H65.0024C69.7664 85.3313 73.6283 81.4608 73.6283 76.6862C73.6283 71.9115 69.7664 68.041 65.0024 68.041Z" fill="#333333"/>
    <path d="M91.4612 76.6829H50.6321C49.0441 76.6829 47.7568 75.3927 47.7568 73.8011V59.3926H94.3365V73.8011C94.3365 75.3927 93.0493 76.6829 91.4612 76.6829Z" fill="#C2C6CC"/>
    <path d="M82.2969 40.666H52.0698C49.6878 40.666 47.7568 42.6013 47.7568 44.9886V59.3972H94.3365C94.3365 57.5062 93.8631 55.6455 92.9596 53.9857L87.3452 43.6697C86.3376 41.818 84.4013 40.666 82.2969 40.666Z" fill="#333333"/>
    <path d="M58.7196 40.666H52.0698C49.6878 40.666 47.7568 42.6013 47.7568 44.9886V59.3972H70.7591C70.7591 57.5062 70.2858 55.6455 69.3822 53.9857L63.7679 43.6697C62.7603 41.818 60.8239 40.666 58.7196 40.666Z" fill="#55595E"/>
    <path d="M67.8838 76.6828H50.6321C49.0441 76.6828 47.7568 75.3927 47.7568 73.8011V59.3926H70.7591V73.8011C70.7591 75.3927 69.4719 76.6828 67.8838 76.6828Z" fill="#F7FAFC"/>
    <path d="M79.3875 72.3572C80.9755 72.3572 82.2628 71.067 82.2628 69.4755C82.2628 67.8839 80.9755 66.5938 79.3875 66.5938C77.7995 66.5938 76.5122 67.8839 76.5122 69.4755C76.5122 71.067 77.7995 72.3572 79.3875 72.3572Z" fill="#F7FAFC"/>
    <path d="M88.2933 72.3572C89.8812 72.3572 91.1685 71.067 91.1685 69.4755C91.1685 67.8839 89.8812 66.5938 88.2933 66.5938C86.7053 66.5938 85.418 67.8839 85.418 69.4755C85.418 71.067 86.7053 72.3572 88.2933 72.3572Z" fill="#F7FAFC"/>
    <path d="M59.2518 85.3313C64.0158 85.3313 67.8777 81.4607 67.8777 76.6862C67.8777 71.9116 64.0158 68.041 59.2518 68.041C54.4879 68.041 50.626 71.9116 50.626 76.6862C50.626 81.4607 54.4879 85.3313 59.2518 85.3313Z" fill="#55595E"/>
    <path d="M59.2591 79.5642C60.8471 79.5642 62.1344 78.274 62.1344 76.6825C62.1344 75.091 60.8471 73.8008 59.2591 73.8008C57.6711 73.8008 56.3838 75.091 56.3838 76.6825C56.3838 78.274 57.6711 79.5642 59.2591 79.5642Z" fill="#F7FAFC"/>
    <path d="M30.5057 85.3313C35.2697 85.3313 39.1316 81.4607 39.1316 76.6862C39.1316 71.9116 35.2697 68.041 30.5057 68.041C25.7418 68.041 21.8799 71.9116 21.8799 76.6862C21.8799 81.4607 25.7418 85.3313 30.5057 85.3313Z" fill="#55595E"/>
    <path d="M30.49 79.5642C32.078 79.5642 33.3653 78.274 33.3653 76.6825C33.3653 75.091 32.078 73.8008 30.49 73.8008C28.9021 73.8008 27.6147 75.091 27.6147 76.6825C27.6147 78.274 28.9021 79.5642 30.49 79.5642Z" fill="#F7FAFC"/>
    <path d="M88.0631 44.9886L87.3454 43.6697C86.3376 41.8182 84.4013 40.666 82.2969 40.666H52.0698C49.6878 40.666 47.7568 42.6013 47.7568 44.9886H88.0631Z" fill="#C2C6CC"/>
    <path d="M47.7568 44.9886H64.4858L63.768 43.6697C62.7603 41.8182 60.8239 40.666 58.7196 40.666H52.0698C49.6878 40.666 47.7568 42.6013 47.7568 44.9886Z" fill="#F7FAFC"/>
    <circle cx="19.5" cy="27.998" r="16" fill="#F37021"/>
    <path d="M12.5 28.081L17.6333 33.6923L26.5 24" stroke="white" stroke-width="2.5" stroke-linecap="round" stroke-linejoin="round"/>
</svg>
