<svg width="18" height="18" viewBox="0 0 18 18" fill="none" xmlns="http://www.w3.org/2000/svg">
<path d="M2 5C2 4.44772 2.44772 4 3 4H15C15.5523 4 16 4.44772 16 5V15C16 15.5523 15.5523 16 15 16H3C2.44772 16 2 15.5523 2 15V5Z" stroke="#55595E" stroke-width="1.5"/>
<path d="M2 10C2 9.44772 2.44772 9 3 9H15C15.5523 9 16 9.44772 16 10V15C16 15.5523 15.5523 16 15 16H3C2.44772 16 2 15.5523 2 15V10Z" stroke="#55595E" stroke-width="1.5"/>
<path d="M5 1.75C5 1.33579 5.33579 1 5.75 1C6.16421 1 6.5 1.33579 6.5 1.75V3.25C6.5 3.66421 6.16421 4 5.75 4C5.33579 4 5 3.66421 5 3.25V1.75Z" fill="#55595E"/>
<path d="M12 1.75C12 1.33579 12.3358 1 12.75 1C13.1642 1 13.5 1.33579 13.5 1.75V3.25C13.5 3.66421 13.1642 4 12.75 4C12.3358 4 12 3.66421 12 3.25V1.75Z" fill="#55595E"/>
</svg>
