<svg width="19" height="18" viewBox="0 0 19 18" fill="none" xmlns="http://www.w3.org/2000/svg">
<path d="M10.375 2.5H4.875C4.51033 2.5 4.16059 2.64487 3.90273 2.90273C3.64487 3.16059 3.5 3.51033 3.5 3.875V14.875C3.5 15.2397 3.64487 15.5894 3.90273 15.8473C4.16059 16.1051 4.51033 16.25 4.875 16.25H13.125C13.4897 16.25 13.8394 16.1051 14.0973 15.8473C14.3551 15.5894 14.5 15.2397 14.5 14.875V6.625L10.375 2.5Z" stroke="#777C84" stroke-width="1.5" stroke-linecap="round" stroke-linejoin="round"/>
<path d="M10.375 2.5V6.625H14.5" stroke="#777C84" stroke-width="1.5" stroke-linecap="round" stroke-linejoin="round"/>
<path d="M11.75 10.0625H6.25" stroke="#777C84" stroke-width="1.5" stroke-linecap="round" stroke-linejoin="round"/>
<path d="M11.75 12.8125H6.25" stroke="#777C84" stroke-width="1.5" stroke-linecap="round" stroke-linejoin="round"/>
<path d="M7.625 7.3125H6.9375H6.25" stroke="#777C84" stroke-width="1.5" stroke-linecap="round" stroke-linejoin="round"/>
</svg>
