<svg width="34" height="34" viewBox="0 0 34 34" fill="none" xmlns="http://www.w3.org/2000/svg">
<g clip-path="url(#clip0_3696_51916)">
<path d="M22 27H25C26.1046 27 27 26.1046 27 25V22M12 27H9C7.89543 27 7 26.1046 7 25V22M7 12V9C7 7.89543 7.89543 7 9 7H12M22 7H25C26.1046 7 27 7.89543 27 9V12" stroke="white" stroke-width="1.5" stroke-linecap="round"/>
<path d="M12.5 12V22" stroke="white" stroke-width="1.5" stroke-linecap="round"/>
<path d="M15.5 12V22" stroke="white" stroke-width="1.5" stroke-linecap="round"/>
<path d="M18.5 12V22" stroke="white" stroke-width="1.5" stroke-linecap="round"/>
<path d="M21.5 12V22" stroke="white" stroke-width="1.5" stroke-linecap="round"/>
<path d="M7 17H27" stroke="#F37021" stroke-width="1.5" stroke-linecap="round"/>
</g>
<defs>
<clipPath id="clip0_3696_51916">
<rect width="34" height="34" fill="white" transform="matrix(-1 0 0 1 34 0)"/>
</clipPath>
</defs>
</svg>
