<svg width="19" height="18" viewBox="0 0 19 18" fill="none" xmlns="http://www.w3.org/2000/svg">
    <path d="M7.75 11L15.75 3" stroke="#55595E" stroke-width="1.5" stroke-linecap="round"/>
    <path d="M9.25 3H7.55C5.86984 3 5.02976 3 4.38803 3.32698C3.82354 3.6146 3.3646 4.07354 3.07698 4.63803C2.75 5.27976 2.75 6.11984 2.75 7.8V11.2C2.75 12.8802 2.75 13.7202 3.07698 14.362C3.3646 14.9265 3.82354 15.3854 4.38803 15.673C5.02976 16 5.86984 16 7.55 16H10.95C12.6302 16 13.4702 16 14.112 15.673C14.6765 15.3854 15.1354 14.9265 15.423 14.362C15.75 13.7202 15.75 12.8802 15.75 11.2V9.5" stroke="#55595E" stroke-width="1.5" stroke-linecap="round"/>
</svg>
