<svg width="61" height="60" viewBox="0 0 61 60" fill="none" xmlns="http://www.w3.org/2000/svg">
  <rect x="0.22229" width="60" height="60" rx="12" fill="#F3F6FA"/>
  <path d="M24.2377 23.4196C22.9363 23.0709 19.807 21.6047 17.7017 18.5298" stroke="#FAA037" stroke-width="2" stroke-linecap="round"/>
  <path d="M35.8911 23.4196C37.1925 23.0709 40.3218 21.6047 42.4271 18.5298" stroke="#F57828" stroke-width="2" stroke-linecap="round"/>
  <path d="M29.6444 22.0574C29.6071 22.0695 29.5683 22.0819 29.5279 22.0946C29.0933 22.2313 28.4951 22.397 27.8348 22.5166C27.1704 22.637 26.4722 22.7053 25.8293 22.6635C25.1812 22.6214 24.6559 22.4718 24.275 22.2159C23.7661 21.874 23.1297 21.1486 22.7996 20.2753C22.4816 19.4344 22.4742 18.5478 23.029 17.7219C23.5999 16.872 24.4515 16.4946 25.3675 16.4969C26.3075 16.4993 27.3012 16.9077 28.0261 17.6376C29.0728 18.6915 29.4669 19.9274 29.5962 20.9291C29.6535 21.3731 29.6575 21.7633 29.6444 22.0574Z" stroke="#FAA037" stroke-width="2"/>
  <path d="M30.5201 22.0574C30.5574 22.0695 30.5963 22.0819 30.6366 22.0946C31.0712 22.2313 31.6695 22.397 32.3298 22.5166C32.9942 22.637 33.6924 22.7053 34.3352 22.6635C34.9833 22.6214 35.5086 22.4718 35.8895 22.2159C36.3985 21.874 37.0348 21.1486 37.365 20.2753C37.6829 19.4344 37.6903 18.5478 37.1356 17.7219C36.5646 16.872 35.7131 16.4946 34.797 16.4969C33.857 16.4993 32.8633 16.9077 32.1385 17.6376C31.0918 18.6915 30.6977 19.9274 30.5683 20.9291C30.511 21.3731 30.5071 21.7633 30.5201 22.0574Z" stroke="#F57828" stroke-width="2"/>
  <path d="M22.4749 37.4378C22.4749 39.678 22.4749 40.7981 22.9108 41.6538C23.2943 42.4064 23.9062 43.0183 24.6589 43.4018C25.5145 43.8378 26.6346 43.8378 28.8749 43.8378H37.8012C40.0414 43.8378 41.1615 43.8378 42.0171 43.4018C42.7698 43.0183 43.3817 42.4064 43.7652 41.6538C44.2012 40.7981 44.2012 39.678 44.2012 37.4378V27.5009C44.2012 25.2607 44.2012 24.1406 43.7652 23.285C43.3817 22.5323 42.7698 21.9204 42.0171 21.5369C41.1615 21.101 40.0414 21.101 37.8012 21.101H28.8749C26.6346 21.101 25.5145 21.101 24.6589 21.5369C23.9062 21.9204 23.2943 22.5323 22.9108 23.285C22.4749 24.1406 22.4749 25.2607 22.4749 27.501V37.4378Z" fill="#D41B29"/>
  <path d="M15.9065 37.4378C15.9065 39.678 15.9065 40.7981 16.3425 41.6538C16.726 42.4064 17.3379 43.0183 18.0905 43.4018C18.9462 43.8378 20.0663 43.8378 22.3065 43.8378H24.6012C26.8415 43.8378 27.9616 43.8378 28.8172 43.4018C29.5699 43.0183 30.1818 42.4064 30.5653 41.6538C31.0012 40.7981 31.0012 39.678 31.0012 37.4378V27.5009C31.0012 25.2607 31.0012 24.1406 30.5653 23.285C30.1818 22.5323 29.5699 21.9204 28.8172 21.5369C27.9616 21.101 26.8415 21.101 24.6012 21.101H22.3065C20.0663 21.101 18.9462 21.101 18.0905 21.5369C17.3379 21.9204 16.726 22.5323 16.3425 23.285C15.9065 24.1406 15.9065 25.2607 15.9065 27.501V37.4378Z" fill="#EA1D2D"/>
  <path d="M21.1407 43.8378H23.7459V21.101H21.1407V43.8378Z" fill="#FAA037"/>
  <path d="M36.3068 43.8378H38.9119V21.101H36.3068V43.8378Z" fill="#F57828"/>
</svg>
