<svg width="60" height="60" viewBox="0 0 60 60" fill="none" xmlns="http://www.w3.org/2000/svg">
  <rect x="0.111084" width="60" height="60" rx="12" fill="#F3F6FA"/>
  <rect x="21.0321" y="16.8235" width="19.6481" height="24.7737" rx="4" fill="#E65F0D"/>
  <rect x="15.0522" y="16.8235" width="19.6481" height="24.7737" rx="4" fill="#F37021"/>
  <path d="M20.6536 23.5132C21.5382 23.5132 22.2554 22.7961 22.2554 21.9114C22.2554 21.0268 21.5382 20.3097 20.6536 20.3097C19.769 20.3097 19.0519 21.0268 19.0519 21.9114C19.0519 22.7961 19.769 23.5132 20.6536 23.5132Z" fill="#E65F0D"/>
  <path d="M29.1962 23.5132C30.0808 23.5132 30.798 22.7961 30.798 21.9114C30.798 21.0268 30.0808 20.3097 29.1962 20.3097C28.3116 20.3097 27.5945 21.0268 27.5945 21.9114C27.5945 22.7961 28.3116 23.5132 29.1962 23.5132Z" fill="#E65F0D"/>
  <path d="M24.9249 27.9101C22.2752 27.9101 20.1196 25.7544 20.1196 23.1048V21.9114C20.1196 21.6165 20.3587 21.3774 20.6535 21.3774C20.9484 21.3774 21.1875 21.6165 21.1875 21.9114V23.1048C21.1875 25.1656 22.8641 26.8422 24.9249 26.8422C26.9856 26.8422 28.6623 25.1657 28.6623 23.1048V21.9114C28.6623 21.6165 28.9013 21.3774 29.1962 21.3774C29.491 21.3774 29.7301 21.6165 29.7301 21.9114V23.1048C29.7301 25.7544 27.5745 27.9101 24.9249 27.9101Z" fill="#E6E6EB"/>
  <path d="M37.0761 45.3405H34.9405C30.2225 45.3405 26.3978 41.5159 26.3978 36.7979C26.3978 32.08 30.2225 28.2552 34.9405 28.2552H37.0761C41.7941 28.2552 45.6188 32.0799 45.6188 36.7979C45.6188 41.5159 41.7942 45.3405 37.0761 45.3405Z" fill="#333333"/>
  <path d="M34.9405 45.3405C39.6585 45.3405 43.4831 41.5159 43.4831 36.7979C43.4831 32.0799 39.6585 28.2552 34.9405 28.2552C30.2225 28.2552 26.3978 32.0799 26.3978 36.7979C26.3978 41.5159 30.2225 45.3405 34.9405 45.3405Z" fill="#55595E"/>
  <path d="M34.9404 43.2048C38.4789 43.2048 41.3474 40.3363 41.3474 36.7979C41.3474 33.2594 38.4789 30.3909 34.9404 30.3909C31.402 30.3909 28.5334 33.2594 28.5334 36.7979C28.5334 40.3363 31.402 43.2048 34.9404 43.2048Z" fill="white"/>
  <path d="M34.9404 37.3318C34.6456 37.3318 34.4065 37.0928 34.4065 36.7979V31.9927C34.4065 31.6978 34.6456 31.4587 34.9404 31.4587C35.2353 31.4587 35.4743 31.6978 35.4743 31.9927V36.7979C35.4743 37.0928 35.2353 37.3318 34.9404 37.3318Z" fill="#F37021"/>
  <path d="M34.9405 38.3997C35.8251 38.3997 36.5422 37.6825 36.5422 36.7979C36.5422 35.9133 35.8251 35.1962 34.9405 35.1962C34.0559 35.1962 33.3387 35.9133 33.3387 36.7979C33.3387 37.6825 34.0559 38.3997 34.9405 38.3997Z" fill="#333333"/>
  <path d="M34.9403 37.5101C35.3335 37.5101 35.6522 37.1914 35.6522 36.7982C35.6522 36.405 35.3335 36.0863 34.9403 36.0863C34.5471 36.0863 34.2284 36.405 34.2284 36.7982C34.2284 37.1914 34.5471 37.5101 34.9403 37.5101Z" fill="#FF6C00"/>
  <path d="M39.7457 37.3317H39.2118C38.9169 37.3317 38.6779 37.0927 38.6779 36.7978C38.6779 36.503 38.9169 36.2639 39.2118 36.2639H39.7457C40.0405 36.2639 40.2796 36.503 40.2796 36.7978C40.2796 37.0927 40.0405 37.3317 39.7457 37.3317Z" fill="#333333"/>
  <path d="M34.4065 41.6031V41.0692C34.4065 40.7743 34.6456 40.5353 34.9404 40.5353C35.2353 40.5353 35.4743 40.7743 35.4743 41.0692V41.6031C35.4743 41.898 35.2353 42.137 34.9404 42.137C34.6456 42.137 34.4065 41.898 34.4065 41.6031Z" fill="#333333"/>
  <path d="M30.1352 36.2639H30.6691C30.964 36.2639 31.2031 36.503 31.2031 36.7978C31.2031 37.0927 30.964 37.3317 30.6691 37.3317H30.1352C29.8404 37.3317 29.6013 37.0927 29.6013 36.7978C29.6013 36.503 29.8404 36.2639 30.1352 36.2639Z" fill="#333333"/>
</svg>
