<svg width="80" height="80" viewBox="0 0 80 80" fill="none" xmlns="http://www.w3.org/2000/svg">
    <path d="M68.7505 60.8118C67.9504 60.8118 67.1889 60.3448 66.8519 59.5639L59.274 42.0078C58.822 40.9604 59.305 39.745 60.3531 39.2932C61.4009 38.8414 62.6171 39.3242 63.0694 40.3716L70.6472 57.9277C71.0993 58.9751 70.6162 60.1905 69.5681 60.6423C69.3014 60.7573 69.0237 60.8118 68.7505 60.8118Z" fill="#333333"/>
    <path d="M12.1006 43.1963L16.9717 72.1907C17.3431 74.401 19.0476 76 21.0321 76H60.9142C62.8987 76 64.6032 74.4008 64.9746 72.1907L67.9006 43.1963H12.1006Z" fill="#00A171"/>
    <path fill-rule="evenodd" clip-rule="evenodd" d="M50.8379 58.7071C50.8379 57.5242 51.7974 56.5652 52.9811 56.5652H68.2897C69.4734 56.5652 70.433 57.5242 70.433 58.7071C70.433 59.8901 69.4734 60.849 68.2897 60.849H52.9811C51.7974 60.849 50.8379 59.8901 50.8379 58.7071Z" fill="#333333"/>
    <path d="M12.1006 43.1963L15.0266 72.1907C15.398 74.401 17.1025 76 19.087 76H46.4475C48.432 76 50.1365 74.4008 50.5079 72.1907L53.4339 43.1963H12.1006Z" fill="#00BB78"/>
    <path d="M69.9667 43.1963H10.0333C9.46267 43.1963 9 42.7339 9 42.1636V38.0327C9 37.4624 9.46267 37 10.0333 37H69.9667C70.5373 37 71 37.4624 71 38.0327V42.1636C71 42.7339 70.5373 43.1963 69.9667 43.1963Z" fill="#00A171"/>
    <path d="M54.5547 47.3271L55.379 43.1963H12.1006L12.9249 47.3271H54.5547Z" fill="#00A171"/>
    <path d="M55.5 43.1963H10.0333C9.46267 43.1963 9 42.7339 9 42.1636V38.0327C9 37.4624 9.46267 37 10.0333 37H55.5C56.0707 37 56.5333 37.4624 56.5333 38.0327V42.1636C56.5333 42.7339 56.0707 43.1963 55.5 43.1963Z" fill="#00BB78"/>
    <path d="M42.0658 58.9104H39.9992C39.4285 58.9104 38.9658 58.448 38.9658 57.8777V53.7468C38.9658 53.1765 39.4285 52.7141 39.9992 52.7141H42.0658C42.6365 52.7141 43.0992 53.1765 43.0992 53.7468V57.8777C43.0992 58.448 42.6365 58.9104 42.0658 58.9104Z" fill="white"/>
    <path d="M33.7992 58.9104H31.7326C31.1619 58.9104 30.6992 58.448 30.6992 57.8777V53.7468C30.6992 53.1765 31.1619 52.7141 31.7326 52.7141H33.7992C34.3699 52.7141 34.8326 53.1765 34.8326 53.7468V57.8777C34.8326 58.448 34.3699 58.9104 33.7992 58.9104Z" fill="white"/>
    <path d="M25.5326 58.9104H23.466C22.8953 58.9104 22.4326 58.448 22.4326 57.8777V53.7468C22.4326 53.1765 22.8953 52.7141 23.466 52.7141H25.5326C26.1033 52.7141 26.566 53.1765 26.566 53.7468V57.8777C26.566 58.448 26.1033 58.9104 25.5326 58.9104Z" fill="white"/>
    <path d="M42.0658 69.2375H39.9992C39.4285 69.2375 38.9658 68.7751 38.9658 68.2048V64.074C38.9658 63.5037 39.4285 63.0413 39.9992 63.0413H42.0658C42.6365 63.0413 43.0992 63.5037 43.0992 64.074V68.2048C43.0992 68.7751 42.6365 69.2375 42.0658 69.2375Z" fill="white"/>
    <path d="M33.7992 69.2375H31.7326C31.1619 69.2375 30.6992 68.7751 30.6992 68.2048V64.074C30.6992 63.5037 31.1619 63.0413 31.7326 63.0413H33.7992C34.3699 63.0413 34.8326 63.5037 34.8326 64.074V68.2048C34.8326 68.7751 34.3699 69.2375 33.7992 69.2375Z" fill="white"/>
    <path d="M25.5326 69.2375H23.466C22.8953 69.2375 22.4326 68.7751 22.4326 68.2048V64.074C22.4326 63.5037 22.8953 63.0413 23.466 63.0413H25.5326C26.1033 63.0413 26.566 63.5037 26.566 64.074V68.2048C26.566 68.7751 26.1033 69.2375 25.5326 69.2375Z" fill="white"/>
    <path d="M12.1815 60.8118C11.9083 60.8118 11.6307 60.7573 11.3638 60.6423C10.3158 60.1905 9.83271 58.9751 10.2848 57.9277L17.8626 40.3716C18.3147 39.3242 19.5311 38.8414 20.5789 39.2932C21.6269 39.745 22.11 40.9604 21.6579 42.0078L14.0801 59.5639C13.7431 60.3448 12.9814 60.8118 12.1815 60.8118Z" fill="#333333"/>
    <path d="M52.8286 60.8121C52.0286 60.8121 51.267 60.345 50.93 59.5642L43.3522 42.0081C42.9001 40.9607 43.3832 39.7453 44.4312 39.2935C45.479 38.8417 46.6953 39.3245 47.1475 40.3719L54.7253 57.928C55.1774 58.9754 54.6943 60.1908 53.6462 60.6426C53.3795 60.7576 53.1018 60.8121 52.8286 60.8121Z" fill="#333333"/>
    <path d="M40.001 14V22.75" stroke="#C2C6CC" stroke-width="3" stroke-linecap="round"/>
    <path d="M25 15.8713L27.2647 24.3232" stroke="#C2C6CC" stroke-width="3" stroke-linecap="round"/>
    <path d="M55 15.8728L52.7353 24.3247" stroke="#C2C6CC" stroke-width="3" stroke-linecap="round"/>
</svg>
