<svg width="59" height="58" viewBox="0 0 59 58" fill="none" xmlns="http://www.w3.org/2000/svg">
    <circle cx="29.5" cy="29" r="29" fill="#FAE100"/>
    <g clip-path="url(#clip0_3930_12903)">
        <path d="M29.8672 19C31.9224 19 33.8233 19.4 35.5698 20.2C37.3163 21 38.6971 22.0878 39.712 23.4634C40.7269 24.839 41.2344 26.3395 41.2344 27.9649C41.2344 29.5903 40.7269 31.0929 39.712 32.4728C38.6971 33.8527 37.3184 34.9426 35.5761 35.7426C33.8338 36.5425 31.9309 36.9426 29.8672 36.9426C29.216 36.9426 28.5435 36.896 27.85 36.8029C24.839 38.8938 23.2363 39.952 23.0418 39.9774C22.9488 40.0113 22.8599 40.007 22.7754 39.9648C22.7415 39.9393 22.7162 39.9055 22.6993 39.8631C22.6823 39.8208 22.6739 39.7827 22.6739 39.7488V39.6981C22.7247 39.3679 23.1095 37.9923 23.8284 35.5712C22.196 34.7585 20.8999 33.6813 19.9399 32.3395C18.98 30.9977 18.5 29.5395 18.5 27.9649C18.5 26.3395 19.0075 24.839 20.0224 23.4634C21.0373 22.0878 22.418 21 24.1646 20.2C25.9111 19.4 27.812 19 29.8672 19Z" fill="#3B1E1E"/>
    </g>
    <defs>
        <clipPath id="clip0_3930_12903">
            <rect width="24" height="24" fill="white" transform="translate(17.5 17)"/>
        </clipPath>
    </defs>
</svg>
