<svg width="50" height="50" viewBox="0 0 50 50" fill="none" xmlns="http://www.w3.org/2000/svg">
<rect width="50" height="50" rx="10" fill="white"/>
<rect x="15.9214" y="11.8235" width="19.6481" height="24.7737" rx="4" fill="#E65F0D"/>
<rect x="9.94141" y="11.8235" width="19.6481" height="24.7737" rx="4" fill="#F37021"/>
<path d="M15.5427 18.5132C16.4273 18.5132 17.1444 17.7961 17.1444 16.9114C17.1444 16.0268 16.4273 15.3097 15.5427 15.3097C14.658 15.3097 13.9409 16.0268 13.9409 16.9114C13.9409 17.7961 14.658 18.5132 15.5427 18.5132Z" fill="#E65F0D"/>
<path d="M24.0856 18.5132C24.9703 18.5132 25.6874 17.7961 25.6874 16.9114C25.6874 16.0268 24.9703 15.3097 24.0856 15.3097C23.201 15.3097 22.4839 16.0268 22.4839 16.9114C22.4839 17.7961 23.201 18.5132 24.0856 18.5132Z" fill="#E65F0D"/>
<path d="M19.814 22.9101C17.1644 22.9101 15.0088 20.7544 15.0088 18.1048V16.9114C15.0088 16.6165 15.2478 16.3774 15.5427 16.3774C15.8376 16.3774 16.0766 16.6165 16.0766 16.9114V18.1048C16.0766 20.1656 17.7532 21.8422 19.814 21.8422C21.8748 21.8422 23.5514 20.1657 23.5514 18.1048V16.9114C23.5514 16.6165 23.7905 16.3774 24.0854 16.3774C24.3802 16.3774 24.6193 16.6165 24.6193 16.9114V18.1048C24.6193 20.7544 22.4637 22.9101 19.814 22.9101Z" fill="#E6E6EB"/>
<path d="M31.9654 40.3405H29.8298C25.1118 40.3405 21.2871 36.5159 21.2871 31.7979C21.2871 27.08 25.1117 23.2552 29.8298 23.2552H31.9654C36.6834 23.2552 40.5081 27.0799 40.5081 31.7979C40.5081 36.5159 36.6834 40.3405 31.9654 40.3405Z" fill="#333333"/>
<path d="M29.8298 40.3405C34.5477 40.3405 38.3724 36.5159 38.3724 31.7979C38.3724 27.0799 34.5477 23.2552 29.8298 23.2552C25.1118 23.2552 21.2871 27.0799 21.2871 31.7979C21.2871 36.5159 25.1118 40.3405 29.8298 40.3405Z" fill="#55595E"/>
<path d="M29.8298 38.2048C33.3683 38.2048 36.2368 35.3363 36.2368 31.7979C36.2368 28.2594 33.3683 25.3909 29.8298 25.3909C26.2914 25.3909 23.4229 28.2594 23.4229 31.7979C23.4229 35.3363 26.2914 38.2048 29.8298 38.2048Z" fill="white"/>
<path d="M29.8298 32.3318C29.535 32.3318 29.2959 32.0928 29.2959 31.7979V26.9927C29.2959 26.6978 29.535 26.4587 29.8298 26.4587C30.1247 26.4587 30.3637 26.6978 30.3637 26.9927V31.7979C30.3637 32.0928 30.1247 32.3318 29.8298 32.3318Z" fill="#F37021"/>
<path d="M29.8298 33.3997C30.7144 33.3997 31.4315 32.6825 31.4315 31.7979C31.4315 30.9133 30.7144 30.1962 29.8298 30.1962C28.9452 30.1962 28.228 30.9133 28.228 31.7979C28.228 32.6825 28.9452 33.3997 29.8298 33.3997Z" fill="#333333"/>
<path d="M29.8296 32.5101C30.2228 32.5101 30.5415 32.1914 30.5415 31.7982C30.5415 31.405 30.2228 31.0863 29.8296 31.0863C29.4364 31.0863 29.1177 31.405 29.1177 31.7982C29.1177 32.1914 29.4364 32.5101 29.8296 32.5101Z" fill="#FF6C00"/>
<path d="M34.6352 32.3317H34.1013C33.8064 32.3317 33.5674 32.0927 33.5674 31.7978C33.5674 31.503 33.8064 31.2639 34.1013 31.2639H34.6352C34.9301 31.2639 35.1691 31.503 35.1691 31.7978C35.1691 32.0927 34.9301 32.3317 34.6352 32.3317Z" fill="#333333"/>
<path d="M29.2959 36.6031V36.0692C29.2959 35.7743 29.535 35.5353 29.8298 35.5353C30.1247 35.5353 30.3637 35.7743 30.3637 36.0692V36.6031C30.3637 36.898 30.1247 37.137 29.8298 37.137C29.535 37.137 29.2959 36.898 29.2959 36.6031Z" fill="#333333"/>
<path d="M25.0246 31.2639H25.5586C25.8534 31.2639 26.0925 31.503 26.0925 31.7978C26.0925 32.0927 25.8534 32.3317 25.5586 32.3317H25.0246C24.7298 32.3317 24.4907 32.0927 24.4907 31.7978C24.4907 31.503 24.7298 31.2639 25.0246 31.2639Z" fill="#333333"/>
</svg>
