<svg width="60" height="60" viewBox="0 0 60 60" fill="none" xmlns="http://www.w3.org/2000/svg">
  <rect width="60" height="60" rx="12" fill="#F3F6FA"/>
  <path d="M40.4048 26.1025L37.344 19.1063H23.4853L20.4245 26.1025C19.9824 27.113 19.7542 28.2041 19.7542 29.3072V42.5594C19.7542 43.737 20.7087 44.6915 21.8863 44.6915H38.9431C40.1206 44.6915 41.0752 43.737 41.0752 42.5594V29.3072C41.0752 28.2041 40.8469 27.113 40.4048 26.1025Z" fill="#FAA037"/>
  <path d="M22.9523 14.8422H36.2779C36.8667 14.8422 37.344 15.3194 37.344 15.9082V19.1064H22.9523C22.3635 19.1064 21.8862 18.6291 21.8862 18.0403V15.9082C21.8862 15.3194 22.3635 14.8422 22.9523 14.8422Z" fill="#FAA037"/>
  <path d="M35.7449 14.8422H36.2779C36.8667 14.8422 37.344 15.3194 37.344 15.9082V19.1064H35.7449C35.1561 19.1064 34.6788 18.6291 34.6788 18.0403V15.9082C34.6788 15.3194 35.1561 14.8422 35.7449 14.8422Z" fill="#F57828"/>
  <path d="M40.4048 26.1025L37.344 19.1063H23.4853L23.0189 20.1724H35.8115L33.2171 26.1025C32.775 27.113 32.5467 28.2041 32.5467 29.3072V42.5594C32.5467 43.737 33.5013 44.6915 34.6789 44.6915H38.9431C40.1206 44.6915 41.0752 43.737 41.0752 42.5594V29.3072C41.0752 28.2041 40.8469 27.113 40.4048 26.1025Z" fill="#F57828"/>
  <path d="M20.0502 36.3999C19.7068 36.3999 19.4284 36.1214 19.4284 35.778V35.3635C19.4284 34.3348 18.5915 33.4979 17.5628 33.4979C17.2194 33.4979 16.9409 33.2194 16.9409 32.876C16.9409 32.5326 17.2194 32.2542 17.5628 32.2542C19.2773 32.2542 20.6721 33.649 20.6721 35.3635V35.778C20.6721 36.1214 20.3937 36.3999 20.0502 36.3999Z" fill="#333333"/>
  <path d="M22.5377 34.7416C21.5819 34.7416 20.7105 35.1014 20.0503 35.6924C19.3901 35.1014 18.5186 34.7416 17.5628 34.7416C15.5021 34.7416 13.8317 36.4121 13.8317 38.4728C13.8317 41.9966 16.3191 44.6914 18.1847 44.6914C20.0503 44.6914 20.0503 44.6914 20.0503 44.6914C20.0503 44.6914 20.0503 44.6914 21.9159 44.6914C23.7815 44.6914 26.2689 41.9966 26.2689 38.4728C26.2689 36.4121 24.5984 34.7416 22.5377 34.7416Z" fill="#EA1D2D"/>
  <path d="M16.941 38.4729C17.6279 38.4729 18.1847 37.9161 18.1847 37.2292C18.1847 36.5423 17.6279 35.9855 16.941 35.9855C16.2541 35.9855 15.6973 36.5423 15.6973 37.2292C15.6973 37.9161 16.2541 38.4729 16.941 38.4729Z" fill="#F04B37"/>
  <path d="M23.1596 29.7668C21.4424 29.7668 20.0503 31.159 20.0503 32.8762V33.498H20.6722C22.3894 33.498 23.7815 32.1059 23.7815 30.3887C23.7815 30.0453 23.503 29.7668 23.1596 29.7668Z" fill="#00BB78"/>
  <path d="M38.7062 29.7668H39.7723V27.1016C39.7723 26.8073 39.5336 26.5686 39.2392 26.5686H36.0411C35.7467 26.5686 35.5081 26.8073 35.5081 27.1016C35.5081 27.396 35.7467 27.6347 36.0411 27.6347H38.7062V29.7668Z" fill="#E0F8EE"/>
  <path d="M45.1025 29.7668H36.5741C35.9853 29.7668 35.5081 30.2441 35.5081 30.8329V43.6255C35.5081 44.2143 35.9853 44.6916 36.5741 44.6916H45.1025C45.6913 44.6916 46.1686 44.2143 46.1686 43.6255V30.8329C46.1686 30.2441 45.6913 29.7668 45.1025 29.7668Z" fill="#00BB78"/>
  <path d="M45.1026 29.7668H40.8384C40.2496 29.7668 39.7723 30.2441 39.7723 30.8329V43.6255C39.7723 44.2143 40.2496 44.6916 40.8384 44.6916H45.1026C45.6914 44.6916 46.1686 44.2143 46.1686 43.6255V30.8329C46.1686 30.2441 45.6914 29.7668 45.1026 29.7668Z" fill="#00A171"/>
</svg>
