<svg width="18" height="19" viewBox="0 0 18 19" fill="none" xmlns="http://www.w3.org/2000/svg">
    <path d="M7.85424 17.0049C8.21817 17.3578 8.78183 17.3578 9.14576 17.0049C10.789 15.4115 15 10.9879 15 7.5C15 3.91015 12.0899 1 8.5 1C4.91015 1 2 3.91015 2 7.5C2 10.9879 6.21103 15.4115 7.85424 17.0049Z" stroke="#55595E" stroke-width="1.5"/>
    <path d="M10.5767 7.2293C10.5767 8.37605 9.64702 9.30569 8.50027 9.30569C7.35351 9.30569 6.42388 8.37605 6.42388 7.2293C6.42388 6.08254 7.35351 5.15291 8.50027 5.15291C9.64702 5.15291 10.5767 6.08254 10.5767 7.2293Z" stroke="#55595E" stroke-width="1.5"/>
</svg>
