<svg width="38" height="49" viewBox="0 0 38 49" fill="none" xmlns="http://www.w3.org/2000/svg">
<path d="M35.8698 10.3328C34.4558 7.51513 32.3636 5.10197 29.7855 3.31513C27.2075 1.52828 24.2264 0.425102 21.1162 0.107001C19.7093 -0.0356671 18.2917 -0.0356671 16.8848 0.107001C13.7747 0.425311 10.7936 1.52846 8.21547 3.31509C5.63734 5.10172 3.54484 7.51453 2.13024 10.3318C0.35045 13.9265 -0.337008 17.9731 0.15445 21.9619C0.645908 25.9507 2.2943 29.7033 4.89202 32.7471L17.5595 48.3121C17.7344 48.5272 17.9543 48.7004 18.2034 48.8194C18.4525 48.9383 18.7245 49 19 49C19.2755 49 19.5476 48.9383 19.7966 48.8194C20.0457 48.7004 20.2656 48.5272 20.4406 48.3121L33.108 32.7471C35.7057 29.7035 37.3541 25.951 37.8456 21.9624C38.337 17.9737 37.6496 13.9273 35.8698 10.3328Z" fill="#F93948"/>
<circle cx="19" cy="18" r="6" fill="white"/>
</svg>
