<svg width="295" height="120" viewBox="0 0 295 120" fill="none" xmlns="http://www.w3.org/2000/svg">
<path d="M155.602 20.3511C153.193 19.7055 150.575 21.6487 149.76 24.6926L151.731 17.3363C152.546 14.2931 151.253 11.302 148.842 10.6554C146.432 10.0097 143.814 11.9529 142.999 14.9962L141.772 19.5766C142.588 16.533 141.294 13.5416 138.883 12.8957C136.473 12.25 133.856 14.1932 133.039 17.2368L125.292 46.1477C124.289 40.8819 122.754 35.7316 120.71 30.7761C118.409 25.4844 108.896 27.6752 112.563 33.4177C116.231 39.1602 117.988 60.7795 117.988 60.7795L116.753 65.3858L136.765 70.7488C141.012 65.4165 147.945 56.1982 148.953 51.6325C150.42 44.9786 158.696 50.1554 156.581 55.5241C154.522 60.4735 151.966 65.2008 148.951 69.6331L157.808 64.5196L164.737 38.6519C165.553 35.6083 164.259 32.6175 161.848 31.9709C159.437 31.3243 156.824 33.267 156.005 36.3127L158.491 27.0298C159.307 23.9885 158.014 20.9974 155.602 20.3511Z" fill="#F9C0B4"/>
<path d="M153.982 38.8946L151.482 48.2195C151.394 48.549 151.44 48.9001 151.611 49.1956C151.781 49.491 152.062 49.7066 152.392 49.7949C152.721 49.8832 153.073 49.837 153.368 49.6664C153.664 49.4958 153.879 49.2149 153.967 48.8853L156.468 39.5597C156.556 39.2301 156.51 38.879 156.339 38.5836C156.169 38.2881 155.888 38.0725 155.558 37.9842C155.229 37.8959 154.878 37.9422 154.582 38.1127C154.287 38.2833 154.071 38.5643 153.983 38.8938L153.982 38.8946Z" fill="#F9BCAF"/>
<path d="M147.645 27.6158L142.227 47.8363C142.145 48.1635 142.195 48.5097 142.366 48.8004C142.538 49.091 142.816 49.3028 143.142 49.3902C143.467 49.4775 143.815 49.4335 144.108 49.2674C144.402 49.1014 144.618 48.8267 144.711 48.5025L150.127 28.2825C150.174 28.1183 150.188 27.9464 150.168 27.7768C150.148 27.6072 150.094 27.4433 150.01 27.2947C149.926 27.146 149.813 27.0156 149.678 26.9111C149.543 26.8066 149.388 26.73 149.223 26.6858C149.058 26.6416 148.886 26.6308 148.717 26.6538C148.548 26.6769 148.385 26.7334 148.237 26.8201C148.09 26.9069 147.962 27.022 147.86 27.1589C147.758 27.2957 147.684 27.4516 147.642 27.6173L147.645 27.6158Z" fill="#F9BCAF"/>
<path d="M139.652 22.5201L133.495 45.4967C133.451 45.6599 133.44 45.83 133.462 45.9975C133.484 46.165 133.539 46.3265 133.623 46.4728C133.708 46.6191 133.82 46.7473 133.954 46.8501C134.088 46.953 134.241 47.0284 134.405 47.0721C134.568 47.1158 134.738 47.127 134.905 47.1049C135.073 47.0829 135.234 47.0281 135.381 46.9436C135.527 46.8592 135.655 46.7467 135.758 46.6127C135.861 46.4787 135.936 46.3257 135.98 46.1625L142.137 23.186C142.18 23.0228 142.191 22.8526 142.169 22.6852C142.147 22.5177 142.092 22.3562 142.008 22.2099C141.924 22.0636 141.811 21.9354 141.677 21.8325C141.543 21.7297 141.39 21.6543 141.227 21.6106C141.064 21.5668 140.894 21.5557 140.726 21.5777C140.559 21.5998 140.397 21.6546 140.251 21.7391C140.105 21.8235 139.976 21.936 139.874 22.07C139.771 22.204 139.695 22.357 139.652 22.5201Z" fill="#F9BCAF"/>
<path d="M119.691 86.1467L134.418 111.655C134.808 112.331 135.45 112.823 136.203 113.025C136.957 113.227 137.759 113.121 138.434 112.732L146.979 107.798L129.312 77.1972L120.767 82.1306C120.092 82.5204 119.599 83.1626 119.397 83.9158C119.195 84.669 119.301 85.4715 119.691 86.1467Z" fill="#575F64"/>
<path d="M183.499 60.1264L179.393 62.4972C182.122 60.9217 183.322 57.8922 182.073 55.7299C180.824 53.5657 177.601 53.0923 174.872 54.6678L148.952 69.633C151.966 65.2002 154.522 60.4725 156.58 55.5227C158.695 50.154 150.42 44.9772 148.953 51.6311C147.486 58.2851 133.44 74.8143 133.44 74.8143L129.313 77.1976L146.872 107.611L150.422 107.846C153.152 108.026 155.875 107.392 158.244 106.023L182.146 92.2233C184.875 90.6478 186.076 87.6184 184.827 85.4567C183.579 83.295 180.355 82.8191 177.627 84.3946L185.946 79.5913C188.675 78.0158 189.875 74.9863 188.627 72.824C187.377 70.6597 184.155 70.1863 181.426 71.7618L188.019 67.9552C190.748 66.3797 191.948 63.3502 190.7 61.1886C189.452 59.0262 186.228 58.5509 183.499 60.1264Z" fill="#FFDDCE"/>
<path d="M173.794 85.1208L164.251 90.6308C163.955 90.8014 163.74 91.0823 163.651 91.4118C163.563 91.7413 163.609 92.0924 163.78 92.3879C163.95 92.6833 164.231 92.8989 164.561 92.9872C164.89 93.0755 165.241 93.0292 165.537 92.8587L175.081 87.3487C175.376 87.1781 175.592 86.8972 175.68 86.5676C175.768 86.2381 175.722 85.887 175.551 85.5916C175.381 85.2961 175.1 85.0806 174.77 84.9923C174.441 84.904 174.09 84.9502 173.794 85.1208Z" fill="#F9C0B4"/>
<path d="M177.595 72.4876L159.731 82.8013C159.436 82.9719 159.22 83.2528 159.132 83.5824C159.044 83.9119 159.09 84.263 159.26 84.5584C159.431 84.8538 159.712 85.0694 160.041 85.1577C160.371 85.246 160.722 85.1998 161.017 85.0292L178.881 74.7155C179.177 74.545 179.392 74.264 179.481 73.9345C179.569 73.605 179.523 73.2539 179.352 72.9585C179.181 72.663 178.901 72.4474 178.571 72.3591C178.241 72.2708 177.89 72.3171 177.595 72.4876Z" fill="#F9C0B4"/>
<path d="M175.561 63.2229L155.211 74.9725C154.915 75.143 154.7 75.424 154.611 75.7535C154.523 76.083 154.569 76.4341 154.74 76.7295C154.91 77.025 155.191 77.2406 155.521 77.3289C155.85 77.4171 156.201 77.3709 156.497 77.2004L176.848 65.4508C177.143 65.2803 177.359 64.9993 177.447 64.6698C177.535 64.3403 177.489 63.9892 177.318 63.6937C177.148 63.3983 176.867 63.1827 176.537 63.0944C176.208 63.0061 175.857 63.0524 175.561 63.2229Z" fill="#F9C0B4"/>
<path d="M114.2 74.9142C113.999 75.6673 114.104 76.4696 114.494 77.1447C114.884 77.8199 115.526 78.3126 116.279 78.5145L123.622 80.4822L133.44 74.8141C133.44 74.8141 134.823 73.1864 136.765 70.7486L116.752 65.3856L114.2 74.9142Z" fill="#474F54"/>
<path d="M59.5338 45.6005L53.0338 44.1005C50.2338 45.7005 49.8671 51.7671 50.0338 54.6005L57.5338 55.1005C56.7338 51.9005 58.5338 47.4338 59.5338 45.6005Z" fill="#FFBB00"/>
<path d="M92.5338 87.6007L86.0338 86.1007C83.2338 87.7007 82.8671 93.7674 83.0338 96.6007L90.5338 97.1007C89.7338 93.9007 91.5338 89.434 92.5338 87.6007Z" fill="#00BB78"/>
<path d="M88.5 46.1005C88.1 43.7005 84.6667 40.4338 83 39.1005C84.1667 37.7671 86.7 35.1005 87.5 35.1005C88.3 35.1005 92.5 39.4338 94.5 41.6005L88.5 46.1005Z" fill="#FFBB00"/>
<path d="M210 99.1005L210.5 93.1005C212.9 94.7005 216.167 94.4338 217.5 94.1005V100.1C215.1 101.7 211.5 100.1 210 99.1005Z" fill="#00BB78"/>
<path d="M55 80.6005C58.6 78.2005 58.8333 73.9338 58.5 72.1005L64 74.1005C64.4 78.1005 62.1667 80.7671 61 81.6005C59 82.4005 56.1667 81.2671 55 80.6005Z" fill="#EA1D2D"/>
<path d="M226.177 73.3821C229.78 75.7764 233.806 74.3444 235.369 73.3291L235.647 79.1748C232.112 81.0881 228.79 80.0575 227.571 79.303C226.06 77.7669 226.012 74.7157 226.177 73.3821Z" fill="#EA1D2D"/>
<path d="M214 65.6005C217.6 63.2005 217.833 58.9338 217.5 57.1005L223 59.1005C223.4 63.1005 221.167 65.7671 220 66.6005C218 67.4005 215.167 66.2671 214 65.6005Z" fill="#FFBB00"/>
<path d="M260 60.6005C263.6 58.2005 263.833 53.9338 263.5 52.1005L269 54.1005C269.4 58.1005 267.167 60.7671 266 61.6005C264 62.4005 261.167 61.2671 260 60.6005Z" fill="#FFBB00"/>
<path d="M210.5 41.1005C210.1 39.1005 207.333 35.6005 206 34.1005L210.5 30.1005C210.5 30.1005 212.727 31.8275 214 33.1005C215.273 34.3734 217 36.6005 217 36.6005L210.5 41.1005Z" fill="#EA1D2D"/>
<path d="M60.1102 18.8812C61.6605 20.2066 65.9985 21.2489 67.9737 21.6044L66.9072 27.53C66.9072 27.53 64.089 27.5482 62.3016 27.3339C60.5142 27.1196 57.7802 26.4358 57.7802 26.4358L60.1102 18.8812Z" fill="#00BB78"/>
</svg>
