<svg width="295" height="120" viewBox="0 0 295 120" fill="none" xmlns="http://www.w3.org/2000/svg">
<circle cx="88" cy="76.5" r="7" fill="#00BB78"/>
<circle cx="218" cy="82.5" r="4" fill="#F37021"/>
<circle cx="83.5" cy="19" r="4.5" fill="#00BB78"/>
<ellipse cx="206" cy="96.4999" rx="2" ry="6" transform="rotate(32.7081 206 96.4999)" fill="#00BB78"/>
<ellipse cx="70.9251" cy="63.6293" rx="2" ry="6" transform="rotate(32.7081 70.9251 63.6293)" fill="#E0F8EE"/>
<ellipse cx="212.74" cy="64.194" rx="3.5" ry="6" transform="rotate(45.7441 212.74 64.194)" fill="#FEF1E9"/>
<ellipse cx="95.6029" cy="50.3982" rx="3.5" ry="6" transform="rotate(-23.51 95.6029 50.3982)" fill="#F37021"/>
<ellipse cx="223.603" cy="36.3982" rx="3.5" ry="6" transform="rotate(-23.51 223.603 36.3982)" fill="#E65F0D"/>
<path d="M150.5 80.5C167.345 80.5 181 66.8447 181 50C181 33.1553 167.345 19.5 150.5 19.5C133.655 19.5 120 33.1553 120 50C120 66.8447 133.655 80.5 150.5 80.5Z" fill="#FFCE33"/>
<path d="M150.603 75.5C164.686 75.5 176.103 64.0833 176.103 50C176.103 35.9167 164.686 24.5 150.603 24.5C136.519 24.5 125.103 35.9167 125.103 50C125.103 64.0833 136.519 75.5 150.603 75.5Z" fill="#F39110"/>
<path d="M144 39.5H152.258C153.898 39.5 155.299 39.8089 156.463 40.4268C157.627 41.0447 158.507 41.9056 159.104 43.0097C159.701 44.1036 160 45.3646 160 46.7928C160 48.2109 159.696 49.4719 159.089 50.576C158.492 51.6699 157.607 52.5258 156.433 53.1436C155.259 53.7514 153.847 54.0552 152.197 54.0552H147.947V61.5H144V39.5ZM151.651 50.8039C153.088 50.8039 154.166 50.4443 154.884 49.7251C155.603 48.9959 155.962 48.0184 155.962 46.7928C155.962 45.5571 155.603 44.5847 154.884 43.8757C154.166 43.1667 153.088 42.8122 151.651 42.8122H147.947V50.8039H151.651Z" fill="#FFCE33"/>
<path d="M117 60.5H185V99.1C185 101.34 185 102.46 184.564 103.316C184.181 104.069 183.569 104.681 182.816 105.064C181.96 105.5 180.84 105.5 178.6 105.5H123.4C121.16 105.5 120.04 105.5 119.184 105.064C118.431 104.681 117.819 104.069 117.436 103.316C117 102.46 117 101.34 117 99.1V60.5Z" fill="#A9ADB4"/>
<path d="M117 60.5H163V99.1C163 101.34 163 102.46 162.564 103.316C162.181 104.069 161.569 104.681 160.816 105.064C159.96 105.5 158.84 105.5 156.6 105.5H123.4C121.16 105.5 120.04 105.5 119.184 105.064C118.431 104.681 117.819 104.069 117.436 103.316C117 102.46 117 101.34 117 99.1V60.5Z" fill="#C2C6CC"/>
<path d="M115.823 60.5H162.823L151.869 75.9732C150.819 77.4573 150.293 78.1993 149.614 78.7355C149.013 79.2102 148.326 79.5654 147.591 79.7819C146.761 80.0263 145.852 80.0263 144.034 80.0263H108.186C106.186 80.0263 105.186 80.0263 104.646 79.6111C104.177 79.2496 103.892 78.6985 103.868 78.1063C103.841 77.4262 104.419 76.6099 105.574 74.9773L115.823 60.5Z" fill="#D9DCE1"/>
<path d="M185.606 60.5H162.823L174.187 76.0828C175.24 77.5278 175.767 78.2503 176.441 78.7718C177.038 79.2337 177.717 79.5788 178.442 79.789C179.261 80.0263 180.155 80.0263 181.943 80.0263H193.552C195.582 80.0263 196.597 80.0263 197.139 79.606C197.61 79.2401 197.893 78.683 197.911 78.0867C197.932 77.4016 197.333 76.5814 196.137 74.9408L185.606 60.5Z" fill="#C2C6CC"/>
</svg>
