<svg width="295" height="121" viewBox="0 0 295 121" fill="none" xmlns="http://www.w3.org/2000/svg">
<g clip-path="url(#clip0_6839_22882)">
<path d="M175.64 64.894C175.64 72.1785 172.776 78.7738 168.106 83.6461C163.174 88.7918 156.223 92.0002 148.534 92.0002C133.561 92.0002 121.428 79.8672 121.428 64.894C121.428 62.8739 121.654 60.9012 122.069 58.9998C124.767 46.867 135.581 37.788 148.534 37.788C153.323 37.788 157.815 39.0238 161.713 41.2105C161.724 41.2105 161.736 41.2105 161.748 41.2224L171.825 51.0262C174.25 55.0784 175.64 59.8199 175.64 64.894Z" fill="#333333"/>
<path d="M168.106 83.6463C163.174 88.7919 156.223 92.0003 148.534 92.0003C133.561 92.0003 121.428 79.8673 121.428 64.8942C121.428 62.8741 121.654 60.9014 122.069 59C126.538 74.1989 140.584 85.2862 157.233 85.2862C161.012 85.2862 164.672 84.7156 168.106 83.6463Z" fill="black"/>
<path d="M174.984 47.868L171.825 51.0262L171.822 51.0229C170.803 52.0419 167.748 50.6383 164.997 47.8879C162.247 45.1377 160.844 42.082 161.862 41.0632L161.713 41.2104L165.013 37.9098" fill="black"/>
<path d="M174.976 47.867C175.994 46.8482 174.591 43.7929 171.841 41.0428C169.091 38.2927 166.035 36.8893 165.017 37.9082C163.998 38.927 165.401 41.9823 168.151 44.7324C170.901 47.4824 173.957 48.8859 174.976 47.867Z" fill="#333333"/>
<path d="M178.391 35.9229L170.712 43.602C170.515 43.7987 170.257 43.8983 169.998 43.8983C169.74 43.8983 169.481 43.7985 169.283 43.602C168.89 43.2074 168.89 42.5677 169.283 42.1731L172.914 38.5423C172.915 38.541 172.918 38.5383 172.919 38.537L176.962 34.4954C177.357 34.1008 177.997 34.1008 178.391 34.4954C178.786 34.8899 178.786 35.5284 178.391 35.9229Z" fill="#8FA3A9"/>
<path d="M178.391 35.9229L174.348 39.9658C174.151 40.1625 173.893 40.2621 173.634 40.2621C173.376 40.2621 173.117 40.1624 172.919 39.9658C172.527 39.5726 172.526 38.9369 172.914 38.5423C172.915 38.541 172.918 38.5383 172.919 38.537L176.962 34.4954C177.357 34.1008 177.996 34.1008 178.391 34.4954C178.786 34.8899 178.786 35.5284 178.391 35.9229Z" fill="#EA1D2D"/>
<path d="M143.611 42.8345C137.579 43.777 154.926 56.9531 164.848 61.9261C166.232 62.6199 167.878 61.6946 168.035 60.1541C168.208 58.457 168.065 56.0664 166.882 53.1335C164.798 47.9641 152.919 41.349 143.611 42.8345Z" fill="#777C84"/>
<path d="M177.959 31.8053C177.401 31.8053 176.949 31.3532 176.949 30.7952V26.0103C176.949 25.4524 177.401 25.0002 177.959 25.0002C178.517 25.0002 178.969 25.4524 178.969 26.0103V30.7953C178.969 31.3532 178.517 31.8053 177.959 31.8053Z" fill="#F49F00"/>
<path d="M177.959 46.0155C177.401 46.0155 176.949 45.5634 176.949 45.0054V40.2204C176.949 39.6624 177.401 39.2103 177.959 39.2103C178.517 39.2103 178.969 39.6624 178.969 40.2204V45.0056C178.969 45.5634 178.517 46.0155 177.959 46.0155Z" fill="#F49F00"/>
<path d="M174.93 32.908C174.642 32.908 174.356 32.7853 174.156 32.5472L171.08 28.8815C170.721 28.454 170.777 27.8171 171.205 27.4585C171.632 27.0996 172.269 27.1557 172.628 27.583L175.703 31.2486C176.062 31.6761 176.006 32.313 175.579 32.6716C175.39 32.8306 175.159 32.908 174.93 32.908Z" fill="#F49F00"/>
<path d="M184.065 43.7934C183.777 43.7934 183.491 43.6707 183.291 43.4326L180.215 39.7671C179.856 39.3396 179.912 38.7027 180.339 38.3442C180.767 37.9858 181.404 38.0414 181.762 38.4686L184.838 42.1341C185.197 42.5616 185.141 43.1985 184.714 43.5571C184.525 43.7159 184.294 43.7934 184.065 43.7934Z" fill="#F49F00"/>
<path d="M173.319 35.6999C173.261 35.6999 173.202 35.6949 173.143 35.6844L168.43 34.8535C167.881 34.7566 167.514 34.2328 167.611 33.6835C167.708 33.1342 168.231 32.7669 168.781 32.8643L173.494 33.6952C174.043 33.7921 174.41 34.3159 174.313 34.8652C174.227 35.355 173.8 35.6999 173.319 35.6999Z" fill="#F49F00"/>
<path d="M187.313 38.1675C187.255 38.1675 187.196 38.1625 187.137 38.152L182.425 37.3211C181.875 37.2242 181.508 36.7004 181.605 36.1511C181.702 35.6017 182.226 35.2343 182.775 35.3319L187.488 36.1628C188.037 36.2597 188.404 36.7835 188.307 37.3328C188.22 37.8226 187.794 38.1675 187.313 38.1675Z" fill="#F49F00"/>
<path d="M182.041 34.1618C181.692 34.1618 181.353 33.9807 181.166 33.6567C180.887 33.1736 181.052 32.5559 181.535 32.2769L185.679 29.8843C186.162 29.6057 186.78 29.7707 187.059 30.254C187.338 30.7371 187.173 31.3548 186.69 31.6337L182.546 34.0264C182.387 34.1181 182.213 34.1618 182.041 34.1618Z" fill="#F49F00"/>
</g>
<path d="M114.5 67.0002H182.5V105.6C182.5 107.84 182.5 108.961 182.064 109.816C181.681 110.569 181.069 111.181 180.316 111.564C179.46 112 178.34 112 176.1 112H120.9C118.66 112 117.54 112 116.684 111.564C115.931 111.181 115.319 110.569 114.936 109.816C114.5 108.961 114.5 107.84 114.5 105.6V67.0002Z" fill="#A9ADB4"/>
<path d="M114.5 67.0002H160.5V105.6C160.5 107.84 160.5 108.961 160.064 109.816C159.681 110.569 159.069 111.181 158.316 111.564C157.46 112 156.34 112 154.1 112H120.9C118.66 112 117.54 112 116.684 111.564C115.931 111.181 115.319 110.569 114.936 109.816C114.5 108.961 114.5 107.84 114.5 105.6V67.0002Z" fill="#C2C6CC"/>
<path d="M113.323 67.0002H160.323L149.369 82.4735C148.319 83.9575 147.793 84.6995 147.114 85.2357C146.513 85.7105 145.826 86.0657 145.091 86.2821C144.261 86.5266 143.352 86.5266 141.534 86.5266H105.686C103.686 86.5266 102.686 86.5266 102.146 86.1114C101.677 85.7499 101.392 85.1987 101.368 84.6066C101.341 83.9265 101.919 83.1102 103.074 81.4776L113.323 67.0002Z" fill="#D9DCE1"/>
<path d="M183.106 67.0002H160.323L171.687 82.583C172.74 84.028 173.267 84.7505 173.941 85.272C174.538 85.7339 175.217 86.079 175.942 86.2892C176.761 86.5266 177.655 86.5266 179.443 86.5266H191.052C193.082 86.5266 194.097 86.5266 194.639 86.1062C195.11 85.7403 195.393 85.1832 195.411 84.5869C195.432 83.9019 194.833 83.0816 193.637 81.4411L183.106 67.0002Z" fill="#C2C6CC"/>
<path d="M228.75 50V53" stroke="#F37021" stroke-width="2" stroke-linecap="round"/>
<path d="M228.75 61V64" stroke="#F37021" stroke-width="2" stroke-linecap="round"/>
<path d="M235.75 57L232.75 57" stroke="#F37021" stroke-width="2" stroke-linecap="round"/>
<path d="M224.75 57L221.75 57" stroke="#F37021" stroke-width="2" stroke-linecap="round"/>
<path d="M233.871 62.1211L231.75 59.9998" stroke="#F37021" stroke-width="2" stroke-linecap="round"/>
<path d="M225.871 54.1211L223.75 51.9998" stroke="#F37021" stroke-width="2" stroke-linecap="round"/>
<path d="M223.75 62.1211L225.871 59.9998" stroke="#F37021" stroke-width="2" stroke-linecap="round"/>
<path d="M231.75 54.1211L233.871 51.9998" stroke="#F37021" stroke-width="2" stroke-linecap="round"/>
<path d="M112.423 17V19.3777" stroke="#EA1D2D" stroke-width="1.5" stroke-linecap="round"/>
<path d="M112.423 25.718V28.0957" stroke="#EA1D2D" stroke-width="1.5" stroke-linecap="round"/>
<path d="M117.971 22.5479L115.593 22.5479" stroke="#EA1D2D" stroke-width="1.5" stroke-linecap="round"/>
<path d="M109.253 22.5479L106.875 22.5479" stroke="#EA1D2D" stroke-width="1.5" stroke-linecap="round"/>
<path d="M116.481 26.6066L114.8 24.9253" stroke="#EA1D2D" stroke-width="1.5" stroke-linecap="round"/>
<path d="M110.142 20.2661L108.46 18.5849" stroke="#EA1D2D" stroke-width="1.5" stroke-linecap="round"/>
<path d="M108.46 26.6066L110.141 24.9253" stroke="#EA1D2D" stroke-width="1.5" stroke-linecap="round"/>
<path d="M114.801 20.2661L116.482 18.5849" stroke="#EA1D2D" stroke-width="1.5" stroke-linecap="round"/>
<circle cx="88.375" cy="43" r="3" fill="#F37021"/>
<circle cx="192.875" cy="12.5" r="4.5" fill="#EA1D2D"/>
<circle cx="213.875" cy="74.5" r="2.5" fill="#EA1D2D"/>
<defs>
<clipPath id="clip0_6839_22882">
<rect width="67" height="67" fill="white" transform="translate(121.375 25.0002)"/>
</clipPath>
</defs>
</svg>
