<svg width="35" height="34" viewBox="0 0 35 34" fill="none" xmlns="http://www.w3.org/2000/svg">
<circle cx="17.5" cy="17" r="17" fill="#F37021"/>
<path fill-rule="evenodd" clip-rule="evenodd" d="M6.08984 17.2349C5.67563 16.5175 5.92144 15.6001 6.63888 15.1859L21.3613 6.68585C22.0788 6.27164 22.9961 6.51745 23.4104 7.23489L25.4104 10.699C24.6929 11.1132 24.4471 12.0306 24.8613 12.748C25.2755 13.4655 26.1929 13.7113 26.9104 13.2971L28.9104 16.7612C29.3246 17.4786 29.0788 18.396 28.3613 18.8102L13.6389 27.3102C12.9214 27.7244 12.0041 27.4786 11.5898 26.7612L9.58984 23.2971C10.3073 22.8829 10.5531 21.9655 10.1389 21.248C9.72467 20.5306 8.80728 20.2848 8.08984 20.699L6.08984 17.2349Z" fill="white"/>
<path d="M15.3258 14.7608C15.1511 13.9936 16.0726 13.4616 16.6497 13.9965L17.2503 14.5532C17.5076 14.7917 17.8903 14.8347 18.1941 14.6593L18.9428 14.227C19.6055 13.8444 20.3756 14.5212 20.0812 15.2276L19.7098 16.1189C19.5808 16.4284 19.6585 16.7854 19.9044 17.0133L20.5916 17.6503C21.1628 18.1798 20.7174 19.1304 19.945 19.0304L19.1768 18.9309C18.8189 18.8846 18.4744 19.0835 18.3356 19.4165L18.0376 20.1316C17.738 20.8505 16.6921 20.7609 16.5192 20.0015L16.3111 19.0879C16.2367 18.761 15.9663 18.5152 15.6338 18.4722L14.6762 18.3482C13.9173 18.2499 13.7162 17.2446 14.3789 16.862L15.1276 16.4297C15.4314 16.2543 15.5855 15.9014 15.5076 15.5593L15.3258 14.7608Z" fill="#F37021"/>
</svg>
