<svg width="34" height="34" viewBox="0 0 34 34" fill="none" xmlns="http://www.w3.org/2000/svg">
<circle cx="17" cy="17" r="17" fill="#A9ADB4"/>
<path fill-rule="evenodd" clip-rule="evenodd" d="M5.58984 17.2368C5.17563 16.5194 5.42144 15.602 6.13888 15.1878L20.8613 6.68781C21.5788 6.27359 22.4961 6.5194 22.9104 7.23684L24.9104 10.7009C24.1929 11.1152 23.9471 12.0325 24.3613 12.75C24.7755 13.4674 25.6929 13.7132 26.4104 13.299L28.4104 16.7631C28.8246 17.4806 28.5788 18.3979 27.8613 18.8122L13.1389 27.3122C12.4214 27.7264 11.5041 27.4806 11.0898 26.7631L9.08984 23.299C9.80728 22.8848 10.0531 21.9674 9.63888 21.25C9.22467 20.5325 8.30728 20.2867 7.58984 20.7009L5.58984 17.2368Z" fill="white"/>
<path d="M14.8258 14.7628C14.6511 13.9956 15.5726 13.4635 16.1497 13.9984L16.7503 14.5551C17.0076 14.7936 17.3903 14.8366 17.6941 14.6612L18.4428 14.229C19.1055 13.8464 19.8756 14.5232 19.5812 15.2295L19.2098 16.1208C19.0808 16.4303 19.1585 16.7874 19.4044 17.0153L20.0916 17.6522C20.6628 18.1817 20.2174 19.1323 19.445 19.0323L18.6768 18.9328C18.3189 18.8865 17.9744 19.0854 17.8356 19.4185L17.5376 20.1335C17.238 20.8525 16.1921 20.7629 16.0192 20.0034L15.8111 19.0899C15.7367 18.763 15.4663 18.5172 15.1338 18.4741L14.1762 18.3501C13.4173 18.2519 13.2162 17.2465 13.8789 16.8639L14.6276 16.4317C14.9314 16.2563 15.0855 15.9033 15.0076 15.5612L14.8258 14.7628Z" fill="#A9ADB4"/>
</svg>
