<svg width="35" height="34" viewBox="0 0 35 34" fill="none" xmlns="http://www.w3.org/2000/svg">
<circle cx="17.833" cy="17" r="17" fill="#00BB78"/>
<path d="M17.2679 16.6112L17.7674 17.4764L14.5113 19.3562L14.8175 19.8865L17.1525 18.5384L18.3449 20.6036L13.6283 23.3268L13.8968 23.7919L18.8367 20.9399L19.3416 21.8144L13.2389 25.3378L12.0035 23.1981L16.7108 20.4803L16.4691 20.0617L11.7525 22.7848L11.2637 21.9383L13.636 20.5686L13.3298 20.0384L10.0831 21.9129L9.58358 21.0477L17.2679 16.6112ZM9.24212 19.7688C10.8923 18.7168 11.5192 17.8153 11.4837 17.1846L9.11146 18.5542L8.60658 17.6797L11.1277 16.2241L10.741 15.5543L11.9132 14.8776L12.2999 15.5474L14.8396 14.0811L15.3445 14.9555L12.949 16.3386C13.4728 16.6874 14.5716 16.5925 16.3217 15.6814L16.4824 16.7546C14.8645 17.5832 13.5431 17.8189 12.6403 17.4905C12.4733 18.4366 11.6131 19.4604 10.0726 20.4553L9.24212 19.7688ZM19.6015 12.2124C20.2065 13.271 21.3881 13.9533 22.9721 13.6031L22.882 14.908C21.7977 15.1246 20.8226 14.8752 20.0213 14.3145C20.1326 15.3666 19.8461 16.4065 19.0885 17.2966L17.8988 16.7183C19.057 15.448 19.0225 13.9918 18.3585 12.8309L17.8912 12.0215L19.0913 11.3287L19.6015 12.2124ZM20.6614 18.3235L20.1189 17.3839L25.9333 14.027L27.6896 17.0691L26.5081 17.7512L25.2943 15.6487L20.6614 18.3235ZM21.5013 12.7529L20.9373 11.7761L22.5282 10.8577L21.6204 9.28545L22.8019 8.60332L25.7131 13.6456L24.5316 14.3277L23.0921 11.8345L21.5013 12.7529Z" fill="white"/>
</svg>
