<svg width="52" height="60" viewBox="0 0 52 60" fill="none" xmlns="http://www.w3.org/2000/svg">
    <g filter="url(#filter0_d_4573_9394)">
        <mask id="path-1-inside-1_4573_9394" fill="white">
            <path d="M26 5.21057C21.7581 5.21543 17.6913 6.85518 14.6918 9.7701C11.6923 12.685 10.005 16.6371 10 20.7594C9.99611 24.128 11.1283 27.405 13.2233 30.0888C13.2233 30.0888 13.6596 30.6471 13.7309 30.7277L25.2465 43.9259C25.645 44.3826 26.355 44.3826 26.7535 43.9259L38.2749 30.7206C38.3389 30.6457 38.7767 30.0888 38.7767 30.0888L38.7782 30.0845C40.8717 27.4018 42.0034 24.1264 42 20.7594C41.995 16.6371 40.3077 12.685 37.3082 9.7701C34.3087 6.85518 30.2419 5.21543 26 5.21057Z"/>
        </mask>
        <path d="M26 5.21057C21.7581 5.21543 17.6913 6.85518 14.6918 9.7701C11.6923 12.685 10.005 16.6371 10 20.7594C9.99611 24.128 11.1283 27.405 13.2233 30.0888C13.2233 30.0888 13.6596 30.6471 13.7309 30.7277L25.2465 43.9259C25.645 44.3826 26.355 44.3826 26.7535 43.9259L38.2749 30.7206C38.3389 30.6457 38.7767 30.0888 38.7767 30.0888L38.7782 30.0845C40.8717 27.4018 42.0034 24.1264 42 20.7594C41.995 16.6371 40.3077 12.685 37.3082 9.7701C34.3087 6.85518 30.2419 5.21543 26 5.21057Z" fill="#00BB78"/>
        <path d="M26 5.21057L26.0017 3.71057L25.9983 3.71057L26 5.21057ZM10 20.7594L8.50001 20.7576V20.7577L10 20.7594ZM13.2233 30.0888L12.0409 31.0118L12.0414 31.0124L13.2233 30.0888ZM13.7309 30.7277L14.8612 29.7415L14.8544 29.7338L13.7309 30.7277ZM38.2749 30.7206L39.4052 31.7068L39.4103 31.7009L39.4154 31.6949L38.2749 30.7206ZM38.7767 30.0888L39.956 31.0158L40.1131 30.8159L40.1956 30.5755L38.7767 30.0888ZM38.7782 30.0845L37.5956 29.1617L37.4409 29.3599L37.3593 29.5978L38.7782 30.0845ZM42 20.7594L43.5 20.7579V20.7576L42 20.7594ZM25.2465 43.9259L26.3767 42.9397L25.2465 43.9259ZM26.7535 43.9259L27.8838 44.912L26.7535 43.9259ZM25.9983 3.71057C21.3727 3.71588 16.9299 5.50352 13.6464 8.69439L15.7372 10.8458C18.4528 8.20684 22.1434 6.71499 26.0017 6.71057L25.9983 3.71057ZM13.6464 8.69439C10.3615 11.8867 8.50551 16.2241 8.50001 20.7576L11.5 20.7613C11.5045 17.0502 13.0231 13.4834 15.7372 10.8458L13.6464 8.69439ZM8.50001 20.7577C8.49572 24.4652 9.74213 28.067 12.0409 31.0118L14.4057 29.1658C12.5145 26.7431 11.4965 23.7908 11.5 20.7612L8.50001 20.7577ZM13.2233 30.0888C12.0414 31.0124 12.0414 31.0124 12.0414 31.0125C12.0414 31.0125 12.0414 31.0125 12.0414 31.0125C12.0415 31.0125 12.0415 31.0125 12.0415 31.0126C12.0416 31.0127 12.0417 31.0128 12.0418 31.0129C12.042 31.0132 12.0424 31.0137 12.0428 31.0142C12.0437 31.0153 12.0449 31.017 12.0466 31.0191C12.0499 31.0233 12.0547 31.0295 12.0609 31.0374C12.0732 31.0531 12.0908 31.0755 12.1121 31.1027C12.1546 31.157 12.2123 31.2305 12.2725 31.3067C12.3717 31.4326 12.5354 31.6402 12.6074 31.7215L14.8544 29.7338C14.8551 29.7346 14.7651 29.6228 14.6283 29.4493C14.5704 29.3759 14.5146 29.3048 14.4731 29.2518C14.4524 29.2254 14.4353 29.2036 14.4234 29.1885C14.4175 29.1809 14.4129 29.175 14.4098 29.171C14.4082 29.169 14.4071 29.1675 14.4063 29.1665C14.4059 29.166 14.4056 29.1657 14.4054 29.1654C14.4053 29.1653 14.4052 29.1652 14.4052 29.1652C14.4052 29.1651 14.4052 29.1651 14.4052 29.1651C14.4052 29.1651 14.4052 29.1651 14.4052 29.1651C14.4052 29.1651 14.4052 29.1651 13.2233 30.0888ZM12.6007 31.7138L24.1162 44.9121L26.3767 42.9397L14.8612 29.7415L12.6007 31.7138ZM27.8838 44.912L39.4052 31.7068L37.1446 29.7345L25.6232 42.9397L27.8838 44.912ZM39.4154 31.6949C39.4715 31.6293 39.6225 31.4384 39.7266 31.3067C39.786 31.2316 39.8433 31.1589 39.8857 31.1051C39.9069 31.0781 39.9244 31.0559 39.9367 31.0403C39.9428 31.0326 39.9476 31.0265 39.9509 31.0223C39.9525 31.0202 39.9538 31.0186 39.9546 31.0175C39.9551 31.017 39.9554 31.0165 39.9556 31.0163C39.9557 31.0161 39.9558 31.016 39.9559 31.0159C39.9559 31.0159 39.9559 31.0159 39.9559 31.0158C39.9559 31.0158 39.956 31.0158 39.956 31.0158C39.956 31.0158 39.956 31.0158 38.7767 30.0888C37.5975 29.1617 37.5975 29.1617 37.5975 29.1617C37.5975 29.1617 37.5975 29.1617 37.5975 29.1618C37.5975 29.1618 37.5974 29.1618 37.5974 29.1618C37.5974 29.1619 37.5973 29.162 37.5972 29.1621C37.597 29.1623 37.5967 29.1627 37.5963 29.1632C37.5955 29.1643 37.5943 29.1658 37.5927 29.1678C37.5896 29.1718 37.5849 29.1777 37.5789 29.1853C37.5669 29.2005 37.5498 29.2224 37.5289 29.2488C37.4872 29.3018 37.431 29.3731 37.373 29.4465C37.3148 29.5201 37.2556 29.5948 37.2076 29.655C37.1508 29.7262 37.13 29.7514 37.1344 29.7463L39.4154 31.6949ZM40.1956 30.5755L40.197 30.5713L37.3593 29.5978L37.3579 29.602L40.1956 30.5755ZM39.9607 31.0073C42.2579 28.0636 43.5037 24.4637 43.5 20.7579L40.5 20.7609C40.503 23.7891 39.4855 26.7399 37.5956 29.1617L39.9607 31.0073ZM43.5 20.7576C43.4945 16.224 41.6385 11.8867 38.3536 8.69439L36.2628 10.8458C38.9769 13.4834 40.4955 17.0502 40.5 20.7613L43.5 20.7576ZM38.3536 8.69439C35.0701 5.50352 30.6273 3.71588 26.0017 3.71057L25.9983 6.71057C29.8566 6.71499 33.5472 8.20684 36.2628 10.8458L38.3536 8.69439ZM24.1162 44.9121C25.1125 46.0539 26.8875 46.0539 27.8838 44.912L25.6232 42.9397C25.8225 42.7114 26.1775 42.7114 26.3767 42.9397L24.1162 44.9121Z" fill="#00A171" mask="url(#path-1-inside-1_4573_9394)"/>
    </g>
    <circle cx="25.8947" cy="21.2105" r="5.89474" fill="white"/>
    <defs>
        <filter id="filter0_d_4573_9394" x="0" y="0.210571" width="52" height="59.0579" filterUnits="userSpaceOnUse" color-interpolation-filters="sRGB">
            <feFlood flood-opacity="0" result="BackgroundImageFix"/>
            <feColorMatrix in="SourceAlpha" type="matrix" values="0 0 0 0 0 0 0 0 0 0 0 0 0 0 0 0 0 0 127 0" result="hardAlpha"/>
            <feOffset dy="5"/>
            <feGaussianBlur stdDeviation="5"/>
            <feComposite in2="hardAlpha" operator="out"/>
            <feColorMatrix type="matrix" values="0 0 0 0 0.215686 0 0 0 0 0.243137 0 0 0 0 0.286275 0 0 0 0.1 0"/>
            <feBlend mode="normal" in2="BackgroundImageFix" result="effect1_dropShadow_4573_9394"/>
            <feBlend mode="normal" in="SourceGraphic" in2="effect1_dropShadow_4573_9394" result="shape"/>
        </filter>
    </defs>
</svg>
