<svg width="70" height="70" viewBox="0 0 70 70" fill="none" xmlns="http://www.w3.org/2000/svg">
<path d="M28.833 11H42.6746V16.0333H28.833V11Z" fill="#41A4E8"/>
<path d="M45.1914 22.325H53.9997V48.7499H45.1914V22.325Z" fill="#1783CF"/>
<path d="M23.7998 22.325H45.1914V48.7499H23.7998V22.325Z" fill="#41A4E8"/>
<path d="M42.6748 16.0334H48.9665L53.9998 22.3251H45.1915L42.6748 16.0334Z" fill="#D9DCE1"/>
<path d="M45.1914 22.3251H23.7998L28.8331 16.0334H42.6748L45.1914 22.3251Z" fill="#F3F6FA"/>
<path d="M42.6748 11H48.9665V16.0333H42.6748V11Z" fill="#1783CF"/>
<path d="M65.2663 42.6508C65.2237 37.5132 61.0231 33.323 55.8854 33.2924C54.8496 33.2862 53.8523 33.4472 52.9187 33.7497C52.0833 34.0203 51.1834 34.0203 50.3479 33.7497C49.4142 33.4472 48.417 33.2862 47.3812 33.2924C42.2434 33.323 38.0429 37.5132 38.0003 42.6508C37.9857 44.4159 38.4561 46.0699 39.2856 47.4882H39.2849L44.0288 55.6009H44.0292C45.0298 57.3119 46.8862 58.4615 49.0115 58.4615C49.6925 58.4615 50.3459 58.3435 50.9525 58.1267C51.3917 57.9697 51.8747 57.9697 52.314 58.1267C52.9206 58.3435 53.5741 58.4615 54.2551 58.4615C56.3803 58.4615 58.2367 57.3119 59.2373 55.6009H59.2377L63.9816 47.4882H63.9809C64.8105 46.0699 65.2809 44.4159 65.2663 42.6508Z" fill="#D41B29"/>
<path d="M47.9628 35.3896C47.9628 34.6488 49.1582 34.028 50.7672 33.8611C50.6261 33.8311 50.4861 33.7944 50.3479 33.7497C49.4143 33.4473 48.417 33.2862 47.3812 33.2924C42.2435 33.323 38.0429 37.5132 38.0004 42.6508C38.0002 42.6775 38.0011 42.704 38.0011 42.7307H38C38 46.4954 41.0519 49.5473 44.8167 49.5473C48.5814 49.5473 51.6333 46.4954 51.6333 42.7307V36.9627C49.6062 36.9627 47.9628 36.2584 47.9628 35.3896Z" fill="#EA1D2D"/>
<path d="M42.7196 39.5846C43.5883 39.5846 44.2926 38.8803 44.2926 38.0116C44.2926 37.1428 43.5883 36.4385 42.7196 36.4385C41.8508 36.4385 41.1465 37.1428 41.1465 38.0116C41.1465 38.8803 41.8508 39.5846 42.7196 39.5846Z" fill="#F5826E"/>
<path d="M51.0694 35.9141C51.359 35.9141 51.5938 35.6793 51.5938 35.3897V32.2436C51.5938 29.3523 49.2415 27 46.3502 27H44.7771C44.4875 27 44.2527 27.2348 44.2527 27.5244C44.2527 27.8139 44.4875 28.0487 44.7771 28.0487H46.3502C48.6632 28.0487 50.545 29.9305 50.545 32.2436V35.3897C50.545 35.6793 50.7798 35.9141 51.0694 35.9141Z" fill="#333333"/>
<path d="M58.4108 27H55.2646C52.9479 27 51.0697 28.8781 51.0697 31.1949V32.2436H55.2646C57.5814 32.2436 59.4595 30.3655 59.4595 28.0487C59.4595 27.4695 58.99 27 58.4108 27Z" fill="#00BB78"/>
<path fill-rule="evenodd" clip-rule="evenodd" d="M18.1252 32.1513L18.1252 32.1513L14.1491 39.1826C11.8309 43.282 10.6718 45.3317 10.8601 47.011C11.0245 48.4761 11.8009 49.8038 12.9982 50.6668C14.3705 51.6561 16.7283 51.6561 21.444 51.6561H21.444H29.3963H29.3963C34.1119 51.6561 36.4698 51.6561 37.8421 50.6668C39.0394 49.8038 39.8158 48.4761 39.9801 47.011C40.1685 45.3317 39.0094 43.282 36.6912 39.1826L32.7151 32.1513C30.3283 27.9306 29.1349 25.8202 27.5682 25.1166C27.0531 24.8853 26.5099 24.7412 25.9598 24.6843V24.6565L25.4372 24.6565C25.4258 24.6565 25.4145 24.6565 25.4031 24.6565L20.5599 24.6565V27.8965H20.618C19.9203 28.977 19.1281 30.3778 18.1252 32.1513Z" fill="#D9DCE1"/>
<path d="M12.7248 32.1513C15.1116 27.9306 16.305 25.8202 17.8717 25.1166C19.2378 24.5031 20.8017 24.5031 22.1678 25.1166C23.7345 25.8202 24.9279 27.9306 27.3147 32.1513L31.2908 39.1826C33.609 43.282 34.7681 45.3317 34.5797 47.011C34.4154 48.4761 33.639 49.8038 32.4417 50.6668C31.0694 51.6561 28.7115 51.6561 23.9959 51.6561H16.0436C11.328 51.6561 8.97012 51.6561 7.59776 50.6668C6.40052 49.8038 5.62406 48.4761 5.45975 47.011C5.27141 45.3317 6.4305 43.282 8.7487 39.1826L12.7248 32.1513Z" fill="#F3F6FA"/>
<path d="M15.1602 44.1232C15.1602 43.0031 15.1602 42.4431 15.3781 42.0152C15.5699 41.6389 15.8759 41.333 16.2522 41.1412C16.68 40.9232 17.2401 40.9232 18.3602 40.9232H21.68C22.8001 40.9232 23.3602 40.9232 23.788 41.1412C24.1643 41.333 24.4703 41.6389 24.662 42.0152C24.88 42.4431 24.88 43.0031 24.88 44.1232V51.656H15.1602V44.1232Z" fill="#333333"/>
<rect x="47" y="46" width="23" height="24" rx="4" fill="#00A171"/>
<path d="M15.3983 48.3304C14.8884 47.4806 14.6334 47.0557 14.2824 46.7471C13.9718 46.474 13.6081 46.268 13.2141 46.1422C12.7688 46 12.2733 46 11.2823 46H6.4C4.15979 46 3.03969 46 2.18404 46.436C1.43139 46.8195 0.819467 47.4314 0.435974 48.184C0 49.0397 0 50.1598 0 52.4V63.6C0 65.8402 0 66.9603 0.435974 67.816C0.819467 68.5686 1.43139 69.1805 2.18404 69.564C3.03969 70 4.15979 70 6.4 70H47.6C49.8402 70 50.9603 70 51.816 69.564C52.5686 69.1805 53.1805 68.5686 53.564 67.816C54 66.9603 54 65.8402 54 63.6V52.4C54 50.1598 54 49.0397 53.564 48.184C53.1805 47.4314 52.5686 46.8195 51.816 46.436C50.9603 46 49.8402 46 47.6 46H42.7177C41.7267 46 41.2312 46 40.7859 46.1422C40.3919 46.268 40.0282 46.474 39.7176 46.7471C39.3666 47.0557 39.1116 47.4806 38.6017 48.3304L38.3983 48.6696C37.8884 49.5194 37.6334 49.9443 37.2824 50.2529C36.9718 50.526 36.6081 50.732 36.2141 50.8578C35.7688 51 35.2733 51 34.2823 51H19.7177C18.7267 51 18.2312 51 17.7859 50.8578C17.3919 50.732 17.0282 50.526 16.7176 50.2529C16.3666 49.9443 16.1116 49.5194 15.6017 48.6696L15.3983 48.3304Z" fill="#00BB78"/>
<g opacity="0.3">
<path d="M8.42676 14.1166L13.4876 18.8746" stroke="white" stroke-width="1.5" stroke-linecap="round"/>
<path d="M3.41992 21.8586L8.87112 24.4149" stroke="white" stroke-width="1.5" stroke-linecap="round"/>
<path d="M16.4868 9.64148L19.1507 15.1099" stroke="white" stroke-width="1.5" stroke-linecap="round"/>
</g>
</svg>
