<svg width="41" height="40" viewBox="0 0 41 40" fill="none" xmlns="http://www.w3.org/2000/svg">
<g clip-path="url(#clip0_6931_121698)">
<path d="M17.0365 6.43621C17.0365 4.53844 15.498 3 13.6003 3C11.7025 3 10.1641 4.53844 10.1641 6.43621" stroke="#333333" stroke-width="2"/>
<path d="M30.7806 6.43621C30.7806 4.53844 29.2422 3 27.3444 3C25.4466 3 23.9082 4.53844 23.9082 6.43621" stroke="#333333" stroke-width="2"/>
<path d="M8.61172 10.7789C8.33678 8.88575 8.19932 7.93917 8.48493 7.20341C8.73565 6.55756 9.20217 6.01839 9.80529 5.67745C10.4924 5.28906 11.4489 5.28906 13.3619 5.28906H32.1649C33.6378 5.28906 34.3743 5.28906 34.9674 5.55964C35.4901 5.79808 35.9334 6.18162 36.2445 6.66464C36.5975 7.21273 36.7034 7.94156 36.915 9.39921L40.2903 32.6404C40.5652 34.5336 40.7027 35.4802 40.4171 36.2159C40.1663 36.8618 39.6998 37.4009 39.0967 37.7419C38.4096 38.1303 37.4531 38.1303 35.5401 38.1303H16.7371C15.2642 38.1303 14.5277 38.1303 13.9346 37.8597C13.4118 37.6213 12.9686 37.2377 12.6575 36.7547C12.3045 36.2066 12.1986 35.4778 11.9869 34.0201L8.61172 10.7789Z" fill="#00A171"/>
<path d="M5.17249 9.39922C5.38418 7.94156 5.49002 7.21273 5.84303 6.66464C6.15413 6.18162 6.59738 5.79808 7.1201 5.55964C7.71324 5.28906 8.44971 5.28906 9.92266 5.28906H30.3659C32.1548 5.28906 33.0493 5.28906 33.7133 5.64508C34.2969 5.95794 34.7605 6.45506 35.032 7.05896C35.341 7.74618 35.2787 8.63848 35.1543 10.4231L33.5331 33.6643C33.4233 35.2378 33.3685 36.0245 33.027 36.6209C32.7264 37.1459 32.2741 37.5678 31.7294 37.8312C31.1107 38.1303 30.3221 38.1303 28.7447 38.1303H6.54744C4.63442 38.1303 3.6779 38.1303 2.99084 37.7419C2.38772 37.4009 1.92119 36.8618 1.67048 36.2159C1.38486 35.4802 1.52233 34.5336 1.79727 32.6404L5.17249 9.39922Z" fill="#00BB78"/>
<path d="M13.6003 9.8735C11.7025 9.8735 10.1641 8.33506 10.1641 6.43729C10.1641 5.55722 10.4949 4.75441 11.039 4.14648" stroke="#55595E" stroke-width="2" stroke-linecap="round"/>
<path d="M27.3444 9.8735C25.4466 9.8735 23.9082 8.33506 23.9082 6.43729C23.9082 5.55722 24.2391 4.75441 24.7832 4.14648" stroke="#55595E" stroke-width="2" stroke-linecap="round"/>
<path d="M12.5234 22.6909L17.0188 28.5144L24.7251 18.5312" stroke="white" stroke-width="2" stroke-linecap="round" stroke-linejoin="round"/>
</g>
<defs>
<clipPath id="clip0_6931_121698">
<rect width="40" height="40" fill="white" transform="translate(0.833984)"/>
</clipPath>
</defs>
</svg>
