<svg width="41" height="40" viewBox="0 0 41 40" fill="none" xmlns="http://www.w3.org/2000/svg">
<rect x="4.16797" y="3" width="32" height="36" rx="4" fill="#777C84"/>
<path d="M8.11776 29.4394C7.76731 29.0928 7.59209 28.9195 7.46674 28.7167C7.35561 28.5369 7.27369 28.3406 7.22401 28.1352C7.16797 27.9035 7.16797 27.657 7.16797 27.1641V9.2C7.16797 8.0799 7.16797 7.51984 7.38596 7.09202C7.5777 6.71569 7.88366 6.40973 8.25999 6.21799C8.68781 6 9.24786 6 10.368 6H29.968C31.0881 6 31.6481 6 32.076 6.21799C32.4523 6.40973 32.7582 6.71569 32.95 7.09202C33.168 7.51984 33.168 8.0799 33.168 9.2V32.8C33.168 33.9201 33.168 34.4802 32.95 34.908C32.7582 35.2843 32.4523 35.5903 32.076 35.782C31.6481 36 31.0881 36 29.968 36H16.0664C15.581 36 15.3382 36 15.1096 35.9455C14.9069 35.8972 14.713 35.8175 14.5349 35.7093C14.334 35.5873 14.1614 35.4166 13.8162 35.0752L8.11776 29.4394Z" fill="white"/>
<mask id="mask0_6931_121725" style="mask-type:alpha" maskUnits="userSpaceOnUse" x="7" y="6" width="27" height="30">
<path d="M8.11776 29.4394C7.76731 29.0928 7.59209 28.9195 7.46674 28.7167C7.35561 28.5369 7.27369 28.3406 7.22401 28.1352C7.16797 27.9035 7.16797 27.657 7.16797 27.1641V9.2C7.16797 8.0799 7.16797 7.51984 7.38596 7.09202C7.5777 6.71569 7.88366 6.40973 8.25999 6.21799C8.68781 6 9.24786 6 10.368 6H29.968C31.0881 6 31.6481 6 32.076 6.21799C32.4523 6.40973 32.7582 6.71569 32.95 7.09202C33.168 7.51984 33.168 8.0799 33.168 9.2V32.8C33.168 33.9201 33.168 34.4802 32.95 34.908C32.7582 35.2843 32.4523 35.5903 32.076 35.782C31.6481 36 31.0881 36 29.968 36H16.0664C15.581 36 15.3382 36 15.1096 35.9455C14.9069 35.8972 14.713 35.8175 14.5349 35.7093C14.334 35.5873 14.1614 35.4166 13.8162 35.0752L8.11776 29.4394Z" fill="white"/>
</mask>
<g mask="url(#mask0_6931_121725)">
<path d="M12.168 29C13.2725 29 14.168 29.8954 14.168 31V37L6.16797 29H12.168Z" fill="#D9DCE1"/>
</g>
<path d="M13.5488 5.37094V3C13.5488 2.44772 13.9965 2 14.5488 2H25.7853C26.3376 2 26.7853 2.44772 26.7853 3V5.37094C26.7853 6.30173 25.5999 7.0564 24.138 7.0564H16.1961C14.7342 7.0564 13.5488 6.30173 13.5488 5.37094Z" fill="#333333"/>
<rect x="12" y="13.4648" width="15.9748" height="1.5" rx="0.75" fill="#55595E"/>
<rect x="12" y="17.9512" width="12.1056" height="1.5" rx="0.75" fill="#55595E"/>
<rect x="12" y="22.4395" width="7.24007" height="1.5" rx="0.75" fill="#55595E"/>
</svg>
