<svg width="40" height="40" viewBox="0 0 40 40" fill="none" xmlns="http://www.w3.org/2000/svg">
<rect x="12.5" y="2.5" width="24" height="31.2" rx="3" fill="#F57828"/>
<rect x="0.5" y="2.5" width="25.2" height="31.2" rx="3" fill="#FAA037"/>
<path d="M8.90039 2.5H16.1004V9.3C16.1004 9.86005 16.1004 10.1401 15.9914 10.354C15.8955 10.5422 15.7425 10.6951 15.5544 10.791C15.3405 10.9 15.0604 10.9 14.5004 10.9H10.5004C9.94034 10.9 9.66031 10.9 9.4464 10.791C9.25824 10.6951 9.10526 10.5422 9.00938 10.354C8.90039 10.1401 8.90039 9.86005 8.90039 9.3V2.5Z" fill="#F57828"/>
<rect opacity="0.5" x="3.90039" y="25.3008" width="7.2" height="4.8" rx="1" fill="white"/>
<path d="M30 40H27.5C21.9772 40 17.5 35.5229 17.5 30C17.5 24.4772 21.9771 20 27.5 20H30C35.5228 20 40 24.4771 40 30C40 35.5229 35.5229 40 30 40Z" fill="#333333"/>
<path d="M27.5 40C33.0228 40 37.5 35.5228 37.5 30C37.5 24.4772 33.0228 20 27.5 20C21.9772 20 17.5 24.4772 17.5 30C17.5 35.5228 21.9772 40 27.5 40Z" fill="#55595E"/>
<path d="M27.5 37.5C31.6421 37.5 35 34.1421 35 30C35 25.8579 31.6421 22.5 27.5 22.5C23.3579 22.5 20 25.8579 20 30C20 34.1421 23.3579 37.5 27.5 37.5Z" fill="white"/>
<path d="M27.5 30.625C27.1548 30.625 26.875 30.3452 26.875 30V24.375C26.875 24.0298 27.1548 23.75 27.5 23.75C27.8452 23.75 28.125 24.0298 28.125 24.375V30C28.125 30.3452 27.8452 30.625 27.5 30.625Z" fill="#F37021"/>
<path d="M27.5 31.875C28.5355 31.875 29.375 31.0355 29.375 30C29.375 28.9645 28.5355 28.125 27.5 28.125C26.4645 28.125 25.625 28.9645 25.625 30C25.625 31.0355 26.4645 31.875 27.5 31.875Z" fill="#333333"/>
<path d="M27.4994 30.8347C27.9596 30.8347 28.3327 30.4616 28.3327 30.0013C28.3327 29.5411 27.9596 29.168 27.4994 29.168C27.0391 29.168 26.666 29.5411 26.666 30.0013C26.666 30.4616 27.0391 30.8347 27.4994 30.8347Z" fill="#FF6C00"/>
<path d="M33.125 30.625H32.5C32.1548 30.625 31.875 30.3452 31.875 30C31.875 29.6548 32.1548 29.375 32.5 29.375H33.125C33.4702 29.375 33.75 29.6548 33.75 30C33.75 30.3452 33.4702 30.625 33.125 30.625Z" fill="#333333"/>
<path d="M26.875 35.625V35C26.875 34.6548 27.1548 34.375 27.5 34.375C27.8452 34.375 28.125 34.6548 28.125 35V35.625C28.125 35.9702 27.8452 36.25 27.5 36.25C27.1548 36.25 26.875 35.9702 26.875 35.625Z" fill="#333333"/>
<path d="M21.875 29.375H22.5C22.8452 29.375 23.125 29.6548 23.125 30C23.125 30.3452 22.8452 30.625 22.5 30.625H21.875C21.5298 30.625 21.25 30.3452 21.25 30C21.25 29.6548 21.5298 29.375 21.875 29.375Z" fill="#333333"/>
</svg>
