<svg width="42" height="42" viewBox="0 0 42 42" fill="none" xmlns="http://www.w3.org/2000/svg">
<rect width="42" height="42" rx="21" transform="matrix(-1 0 0 1 42 0)" fill="white"/>
<path d="M12 27V21C12 18.6131 12.9482 16.3239 14.636 14.636C16.3239 12.9482 18.6131 12 21 12C23.3869 12 25.6761 12.9482 27.364 14.636C29.0518 16.3239 30 18.6131 30 21V27" stroke="#333333" stroke-width="1.5" stroke-linecap="round" stroke-linejoin="round"/>
<path d="M30 28C30 28.5304 29.7893 29.0391 29.4142 29.4142C29.0391 29.7893 28.5304 30 28 30H27C26.4696 30 25.9609 29.7893 25.5858 29.4142C25.2107 29.0391 25 28.5304 25 28V24C25 23.4696 25.2107 22.9609 25.5858 22.5858C25.9609 22.2107 26.4696 22 27 22H30V28ZM12 28C12 28.5304 12.2107 29.0391 12.5858 29.4142C12.9609 29.7893 13.4696 30 14 30H15C15.5304 30 16.0391 29.7893 16.4142 29.4142C16.7893 29.0391 17 28.5304 17 28V24C17 23.4696 16.7893 22.9609 16.4142 22.5858C16.0391 22.2107 15.5304 22 15 22H12V28Z" stroke="#333333" stroke-width="1.5" stroke-linecap="round" stroke-linejoin="round"/>
</svg>
