<svg width="305" height="82" viewBox="0 0 305 82" fill="none" xmlns="http://www.w3.org/2000/svg">
<path d="M4.67789 0H0.484375V62.3003H4.67789V0Z" fill="black"/>
<path d="M8.87117 0H6.77441V62.3003H8.87117V0Z" fill="black"/>
<path d="M19.3547 0H13.0645V62.3003H19.3547V0Z" fill="black"/>
<path d="M25.6456 0H23.5488V62.3003H25.6456V0Z" fill="black"/>
<path d="M31.9357 0H27.7422V62.3003H31.9357V0Z" fill="black"/>
<path d="M42.4192 0H36.1289V62.3003H42.4192V0Z" fill="black"/>
<path d="M48.71 0H46.6133V62.3003H48.71V0Z" fill="black"/>
<path d="M55.0002 0H50.8066V62.3003H55.0002V0Z" fill="black"/>
<path d="M67.5803 0H61.29V62.3003H67.5803V0Z" fill="black"/>
<path d="M73.8713 0H69.6777V62.3003H73.8713V0Z" fill="black"/>
<path d="M80.1612 0H78.0645V62.3003H80.1612V0Z" fill="black"/>
<path d="M90.6448 0H84.3545V62.3003H90.6448V0Z" fill="black"/>
<path d="M94.8389 0H92.7422V62.3003H94.8389V0Z" fill="black"/>
<path d="M103.226 0H101.129V62.3003H103.226V0Z" fill="black"/>
<path d="M113.709 0H105.322V62.3003H113.709V0Z" fill="black"/>
<path d="M117.902 0H115.806V62.3003H117.902V0Z" fill="black"/>
<path d="M124.194 0H120V62.3003H124.194V0Z" fill="black"/>
<path d="M134.677 0H128.387V62.3003H134.677V0Z" fill="black"/>
<path d="M143.064 0H138.87V62.3003H143.064V0Z" fill="black"/>
<path d="M149.355 0H145.161V62.3003H149.355V0Z" fill="black"/>
<path d="M159.838 0H155.645V62.3003H159.838V0Z" fill="black"/>
<path d="M168.225 0H161.935V62.3003H168.225V0Z" fill="black"/>
<path d="M174.516 0H170.322V62.3003H174.516V0Z" fill="black"/>
<path d="M182.903 0H176.612V62.3003H182.903V0Z" fill="black"/>
<path d="M187.096 0H184.999V62.3003H187.096V0Z" fill="black"/>
<path d="M193.386 0H189.192V62.3003H193.386V0Z" fill="black"/>
<path d="M203.87 0H197.58V62.3003H203.87V0Z" fill="black"/>
<path d="M214.354 0H208.063V62.3003H214.354V0Z" fill="black"/>
<path d="M218.547 0H216.45V62.3003H218.547V0Z" fill="black"/>
<path d="M229.032 0H220.645V62.3003H229.032V0Z" fill="black"/>
<path d="M235.321 0H231.128V62.3003H235.321V0Z" fill="black"/>
<path d="M241.611 0H239.515V62.3003H241.611V0Z" fill="black"/>
<path d="M249.999 0H243.709V62.3003H249.999V0Z" fill="black"/>
<path d="M258.386 0H254.192V62.3003H258.386V0Z" fill="black"/>
<path d="M268.87 0H266.773V62.3003H268.87V0Z" fill="black"/>
<path d="M273.064 0H270.967V62.3003H273.064V0Z" fill="black"/>
<path d="M281.45 0H277.257V62.3003H281.45V0Z" fill="black"/>
<path d="M294.031 0H287.74V62.3003H294.031V0Z" fill="black"/>
<path d="M298.225 0H296.128V62.3003H298.225V0Z" fill="black"/>
<path d="M304.514 0H300.32V62.3003H304.514V0Z" fill="black"/>
<path d="M99.2146 80.2852H98.1539V72.9012H98.1041L96.0406 74.2686V73.2078L98.1539 71.799H99.2146V80.2852ZM101.432 79.5144L104.324 76.4647C104.706 76.0586 104.996 75.7327 105.194 75.4868C105.396 75.2382 105.549 74.9992 105.654 74.77C105.759 74.5379 105.813 74.2962 105.816 74.0448C105.813 73.7575 105.737 73.5048 105.588 73.2865C105.442 73.0683 105.24 72.8998 104.983 72.781C104.729 72.6622 104.443 72.6028 104.125 72.6028C103.794 72.6028 103.503 72.6691 103.251 72.8017C103.003 72.9343 102.811 73.1208 102.675 73.3611C102.543 73.6015 102.476 73.8791 102.476 74.194H101.474C101.471 73.7023 101.585 73.2672 101.817 72.8887C102.052 72.5075 102.374 72.212 102.783 72.002C103.192 71.7893 103.65 71.6829 104.159 71.6829C104.661 71.6829 105.113 71.7879 105.514 71.9979C105.917 72.205 106.232 72.4882 106.458 72.8473C106.685 73.2064 106.799 73.6056 106.802 74.0448C106.799 74.368 106.739 74.6774 106.62 74.973C106.504 75.2658 106.306 75.5918 106.027 75.9509C105.751 76.31 105.357 76.752 104.846 77.2769L102.907 79.2824V79.3487H106.951V80.2852H101.44L101.432 79.5144ZM108.053 77.6829L111.873 71.799H113.166V77.6249H114.359V78.5531H113.166V80.2852H112.163V78.5531H108.053V77.6829ZM112.163 77.6249V73.1332H112.064L109.188 77.5586V77.6249H112.163ZM118.646 80.4012C118.088 80.4012 117.588 80.3073 117.146 80.1194C116.704 79.9316 116.354 79.6678 116.097 79.328C115.843 78.9882 115.707 78.5973 115.687 78.1553H116.756C116.776 78.4178 116.87 78.6484 117.038 78.8473C117.207 79.0434 117.429 79.1954 117.705 79.3031C117.984 79.4108 118.292 79.4647 118.629 79.4647C118.999 79.4647 119.331 79.4026 119.624 79.2783C119.917 79.1512 120.146 78.9744 120.312 78.7479C120.477 78.5213 120.56 78.2631 120.56 77.973C120.56 77.6636 120.479 77.3901 120.316 77.1526C120.155 76.915 119.921 76.7299 119.611 76.5973C119.302 76.4647 118.93 76.3984 118.497 76.3984H117.809V75.4702H118.497C118.839 75.4702 119.143 75.4095 119.408 75.2879C119.676 75.1664 119.883 74.9965 120.03 74.7782C120.179 74.5573 120.254 74.3017 120.254 74.0117C120.254 73.7327 120.189 73.4868 120.059 73.2741C119.929 73.0614 119.744 72.897 119.504 72.781C119.263 72.6622 118.983 72.6028 118.662 72.6028C118.359 72.6028 118.073 72.6567 117.805 72.7644C117.539 72.8722 117.324 73.0269 117.158 73.2285C116.992 73.4274 116.903 73.6608 116.889 73.9288H115.87C115.886 73.4923 116.021 73.1042 116.276 72.7644C116.53 72.4219 116.868 72.1567 117.291 71.9689C117.713 71.7782 118.176 71.6829 118.679 71.6829C119.201 71.6829 119.658 71.7865 120.051 71.9937C120.446 72.2009 120.748 72.4785 120.958 72.8266C121.171 73.1747 121.276 73.5531 121.273 73.962C121.276 74.2769 121.219 74.5642 121.103 74.8238C120.987 75.0835 120.82 75.3031 120.602 75.4827C120.383 75.6622 120.126 75.7934 119.831 75.8763V75.9426C120.196 75.9979 120.51 76.118 120.776 76.3031C121.044 76.4854 121.248 76.7216 121.389 77.0117C121.53 77.299 121.599 77.6222 121.596 77.9813C121.599 78.4371 121.472 78.8501 121.215 79.2202C120.961 79.5876 120.607 79.8763 120.154 80.0863C119.704 80.2962 119.201 80.4012 118.646 80.4012ZM123.074 79.5144L125.966 76.4647C126.348 76.0586 126.638 75.7327 126.836 75.4868C127.038 75.2382 127.191 74.9992 127.296 74.77C127.401 74.5379 127.455 74.2962 127.458 74.0448C127.455 73.7575 127.379 73.5048 127.23 73.2865C127.084 73.0683 126.882 72.8998 126.625 72.781C126.371 72.6622 126.085 72.6028 125.767 72.6028C125.436 72.6028 125.145 72.6691 124.893 72.8017C124.645 72.9343 124.453 73.1208 124.317 73.3611C124.185 73.6015 124.118 73.8791 124.118 74.194H123.116C123.113 73.7023 123.227 73.2672 123.459 72.8887C123.694 72.5075 124.016 72.212 124.425 72.002C124.834 71.7893 125.292 71.6829 125.801 71.6829C126.303 71.6829 126.755 71.7879 127.156 71.9979C127.559 72.205 127.874 72.4882 128.1 72.8473C128.327 73.2064 128.441 73.6056 128.444 74.0448C128.441 74.368 128.381 74.6774 128.262 74.973C128.146 75.2658 127.948 75.5918 127.669 75.9509C127.393 76.31 126.999 76.752 126.488 77.2769L124.549 79.2824V79.3487H128.593V80.2852H123.082L123.074 79.5144ZM132.866 80.4012C132.241 80.4012 131.707 80.2313 131.262 79.8915C130.82 79.549 130.482 79.0517 130.247 78.3998C130.015 77.7479 129.899 76.962 129.899 76.0421C129.899 75.1305 130.016 74.3487 130.251 73.6968C130.486 73.0421 130.826 72.5434 131.27 72.2009C131.715 71.8556 132.247 71.6829 132.866 71.6829C133.484 71.6829 134.016 71.8556 134.461 72.2009C134.906 72.5434 135.245 73.0421 135.48 73.6968C135.715 74.3487 135.832 75.1305 135.832 76.0421C135.832 76.962 135.715 77.7479 135.48 78.3998C135.248 79.0517 134.91 79.549 134.465 79.8915C134.023 80.2313 133.49 80.4012 132.866 80.4012ZM130.926 76.0421C130.926 76.7686 131.002 77.3887 131.154 77.9026C131.306 78.4136 131.527 78.8017 131.817 79.0669C132.107 79.3321 132.457 79.4647 132.866 79.4647C133.274 79.4647 133.624 79.3321 133.914 79.0669C134.204 78.8017 134.425 78.4136 134.577 77.9026C134.729 77.3887 134.805 76.7686 134.805 76.0421C134.805 75.3155 134.727 74.6954 134.573 74.1816C134.421 73.665 134.2 73.2727 133.91 73.0048C133.62 72.7368 133.272 72.6028 132.866 72.6028C132.459 72.6028 132.111 72.7368 131.821 73.0048C131.531 73.2727 131.309 73.665 131.154 74.1816C131.002 74.6954 130.926 75.3155 130.926 76.0421ZM139.995 71.6829C140.539 71.6829 141.044 71.8073 141.511 72.0559C141.978 72.3045 142.361 72.7285 142.659 73.328C142.96 73.9247 143.111 74.7161 143.111 75.7023C143.111 76.6968 142.981 77.5462 142.721 78.2506C142.461 78.9523 142.09 79.4868 141.606 79.8542C141.123 80.2189 140.55 80.4012 139.887 80.4012C139.398 80.4012 138.957 80.3073 138.565 80.1194C138.173 79.9316 137.852 79.6678 137.604 79.328C137.358 78.9854 137.199 78.589 137.127 78.1387H138.171C138.271 78.5393 138.467 78.8611 138.76 79.1042C139.055 79.3445 139.431 79.4647 139.887 79.4647C140.345 79.4647 140.742 79.3363 141.076 79.0794C141.413 78.8224 141.671 78.4509 141.851 77.9647C142.03 77.4758 142.122 76.8901 142.124 76.2078H142.008C141.763 76.5642 141.45 76.8418 141.072 77.0407C140.696 77.2368 140.285 77.3349 139.837 77.3349C139.334 77.3349 138.87 77.2147 138.445 76.9744C138.022 76.7313 137.685 76.3957 137.434 75.9675C137.185 75.5393 137.061 75.0586 137.061 74.5255C137.061 74.0034 137.181 73.5255 137.421 73.0918C137.664 72.6581 138.008 72.3155 138.453 72.0642C138.901 71.81 139.414 71.6829 139.995 71.6829ZM138.089 74.5172C138.089 74.8653 138.17 75.1843 138.333 75.4744C138.499 75.7617 138.727 75.9896 139.017 76.1581C139.307 76.3238 139.633 76.4067 139.995 76.4067C140.354 76.4067 140.682 76.3183 140.981 76.1415C141.282 75.962 141.519 75.7258 141.693 75.4329C141.87 75.1401 141.959 74.8294 141.959 74.5006C141.959 74.1747 141.874 73.8666 141.706 73.5766C141.537 73.2865 141.305 73.0531 141.01 72.8763C140.717 72.6995 140.39 72.6111 140.028 72.6111C139.666 72.6111 139.336 72.6968 139.037 72.868C138.742 73.0393 138.508 73.2713 138.337 73.5642C138.169 73.8542 138.086 74.1719 138.089 74.5172ZM144.318 77.6829L148.138 71.799H149.431V77.6249H150.625V78.5531H149.431V80.2852H148.428V78.5531H144.318V77.6829ZM148.428 77.6249V73.1332H148.329L145.453 77.5586V77.6249H148.428ZM154.86 80.2852H153.799V72.9012H153.75L151.686 74.2686V73.2078L153.799 71.799H154.86V80.2852ZM157.078 79.5144L159.97 76.4647C160.351 76.0586 160.641 75.7327 160.84 75.4868C161.042 75.2382 161.195 74.9992 161.3 74.77C161.405 74.5379 161.459 74.2962 161.462 74.0448C161.459 73.7575 161.383 73.5048 161.234 73.2865C161.087 73.0683 160.886 72.8998 160.629 72.781C160.375 72.6622 160.089 72.6028 159.771 72.6028C159.44 72.6028 159.148 72.6691 158.897 72.8017C158.648 72.9343 158.456 73.1208 158.321 73.3611C158.188 73.6015 158.122 73.8791 158.122 74.194H157.119C157.116 73.7023 157.231 73.2672 157.463 72.8887C157.698 72.5075 158.02 72.212 158.428 72.002C158.837 71.7893 159.296 71.6829 159.804 71.6829C160.307 71.6829 160.759 71.7879 161.159 71.9979C161.562 72.205 161.877 72.4882 162.104 72.8473C162.33 73.2064 162.445 73.6056 162.448 74.0448C162.445 74.368 162.384 74.6774 162.266 74.973C162.149 75.2658 161.952 75.5918 161.673 75.9509C161.397 76.31 161.003 76.752 160.492 77.2769L158.553 79.2824V79.3487H162.597V80.2852H157.086L157.078 79.5144ZM167.027 80.4012C166.469 80.4012 165.969 80.3073 165.527 80.1194C165.085 79.9316 164.735 79.6678 164.478 79.328C164.224 78.9882 164.087 78.5973 164.068 78.1553H165.137C165.156 78.4178 165.25 78.6484 165.419 78.8473C165.587 79.0434 165.81 79.1954 166.086 79.3031C166.365 79.4108 166.673 79.4647 167.01 79.4647C167.38 79.4647 167.712 79.4026 168.005 79.2783C168.297 79.1512 168.527 78.9744 168.692 78.7479C168.858 78.5213 168.941 78.2631 168.941 77.973C168.941 77.6636 168.859 77.3901 168.697 77.1526C168.536 76.915 168.301 76.7299 167.992 76.5973C167.683 76.4647 167.311 76.3984 166.877 76.3984H166.19V75.4702H166.877C167.22 75.4702 167.524 75.4095 167.789 75.2879C168.057 75.1664 168.264 74.9965 168.411 74.7782C168.56 74.5573 168.634 74.3017 168.634 74.0117C168.634 73.7327 168.569 73.4868 168.44 73.2741C168.31 73.0614 168.125 72.897 167.884 72.781C167.644 72.6622 167.364 72.6028 167.043 72.6028C166.739 72.6028 166.453 72.6567 166.185 72.7644C165.92 72.8722 165.705 73.0269 165.539 73.2285C165.373 73.4274 165.284 73.6608 165.27 73.9288H164.25C164.267 73.4923 164.402 73.1042 164.656 72.7644C164.911 72.4219 165.249 72.1567 165.672 71.9689C166.094 71.7782 166.557 71.6829 167.06 71.6829C167.582 71.6829 168.039 71.7865 168.431 71.9937C168.826 72.2009 169.129 72.4785 169.339 72.8266C169.551 73.1747 169.656 73.5531 169.654 73.962C169.656 74.2769 169.6 74.5642 169.484 74.8238C169.368 75.0835 169.201 75.3031 168.982 75.4827C168.764 75.6622 168.507 75.7934 168.212 75.8763V75.9426C168.576 75.9979 168.891 76.118 169.156 76.3031C169.424 76.4854 169.629 76.7216 169.77 77.0117C169.911 77.299 169.98 77.6222 169.977 77.9813C169.98 78.4371 169.853 78.8501 169.596 79.2202C169.342 79.5876 168.988 79.8763 168.535 80.0863C168.085 80.2962 167.582 80.4012 167.027 80.4012ZM174.463 80.2852H173.402V72.9012H173.353L171.289 74.2686V73.2078L173.402 71.799H174.463V80.2852ZM176.681 79.5144L179.573 76.4647C179.954 76.0586 180.244 75.7327 180.443 75.4868C180.645 75.2382 180.798 74.9992 180.903 74.77C181.008 74.5379 181.062 74.2962 181.065 74.0448C181.062 73.7575 180.986 73.5048 180.837 73.2865C180.69 73.0683 180.489 72.8998 180.232 72.781C179.978 72.6622 179.692 72.6028 179.374 72.6028C179.042 72.6028 178.751 72.6691 178.5 72.8017C178.251 72.9343 178.059 73.1208 177.924 73.3611C177.791 73.6015 177.725 73.8791 177.725 74.194H176.722C176.719 73.7023 176.834 73.2672 177.066 72.8887C177.301 72.5075 177.623 72.212 178.031 72.002C178.44 71.7893 178.899 71.6829 179.407 71.6829C179.91 71.6829 180.362 71.7879 180.762 71.9979C181.165 72.205 181.48 72.4882 181.707 72.8473C181.933 73.2064 182.048 73.6056 182.051 74.0448C182.048 74.368 181.987 74.6774 181.868 74.973C181.752 75.2658 181.555 75.5918 181.276 75.9509C181 76.31 180.606 76.752 180.095 77.2769L178.156 79.2824V79.3487H182.2V80.2852H176.689L176.681 79.5144ZM186.63 80.4012C186.072 80.4012 185.572 80.3073 185.13 80.1194C184.688 79.9316 184.338 79.6678 184.081 79.328C183.827 78.9882 183.69 78.5973 183.671 78.1553H184.74C184.759 78.4178 184.853 78.6484 185.022 78.8473C185.19 79.0434 185.413 79.1954 185.689 79.3031C185.968 79.4108 186.276 79.4647 186.613 79.4647C186.983 79.4647 187.315 79.4026 187.607 79.2783C187.9 79.1512 188.13 78.9744 188.295 78.7479C188.461 78.5213 188.544 78.2631 188.544 77.973C188.544 77.6636 188.462 77.3901 188.299 77.1526C188.139 76.915 187.904 76.7299 187.595 76.5973C187.286 76.4647 186.914 76.3984 186.48 76.3984H185.793V75.4702H186.48C186.823 75.4702 187.127 75.4095 187.392 75.2879C187.66 75.1664 187.867 74.9965 188.014 74.7782C188.163 74.5573 188.237 74.3017 188.237 74.0117C188.237 73.7327 188.172 73.4868 188.043 73.2741C187.913 73.0614 187.728 72.897 187.487 72.781C187.247 72.6622 186.967 72.6028 186.646 72.6028C186.342 72.6028 186.056 72.6567 185.788 72.7644C185.523 72.8722 185.308 73.0269 185.142 73.2285C184.976 73.4274 184.886 73.6608 184.873 73.9288H183.853C183.87 73.4923 184.005 73.1042 184.259 72.7644C184.514 72.4219 184.852 72.1567 185.275 71.9689C185.697 71.7782 186.16 71.6829 186.663 71.6829C187.185 71.6829 187.642 71.7865 188.034 71.9937C188.429 72.2009 188.732 72.4785 188.942 72.8266C189.154 73.1747 189.259 73.5531 189.257 73.962C189.259 74.2769 189.203 74.5642 189.087 74.8238C188.971 75.0835 188.804 75.3031 188.585 75.4827C188.367 75.6622 188.11 75.7934 187.815 75.8763V75.9426C188.179 75.9979 188.494 76.118 188.759 76.3031C189.027 76.4854 189.232 76.7216 189.373 77.0117C189.514 77.299 189.583 77.6222 189.58 77.9813C189.583 78.4371 189.456 78.8501 189.199 79.2202C188.944 79.5876 188.591 79.8763 188.138 80.0863C187.688 80.2962 187.185 80.4012 186.63 80.4012ZM194.066 80.2852H193.005V72.9012H192.956L190.892 74.2686V73.2078L193.005 71.799H194.066V80.2852ZM196.284 79.5144L199.176 76.4647C199.557 76.0586 199.847 75.7327 200.046 75.4868C200.248 75.2382 200.401 74.9992 200.506 74.77C200.611 74.5379 200.665 74.2962 200.668 74.0448C200.665 73.7575 200.589 73.5048 200.44 73.2865C200.293 73.0683 200.092 72.8998 199.835 72.781C199.581 72.6622 199.295 72.6028 198.977 72.6028C198.645 72.6028 198.354 72.6691 198.103 72.8017C197.854 72.9343 197.662 73.1208 197.527 73.3611C197.394 73.6015 197.328 73.8791 197.328 74.194H196.325C196.322 73.7023 196.437 73.2672 196.669 72.8887C196.904 72.5075 197.226 72.212 197.634 72.002C198.043 71.7893 198.502 71.6829 199.01 71.6829C199.513 71.6829 199.964 71.7879 200.365 71.9979C200.768 72.205 201.083 72.4882 201.31 72.8473C201.536 73.2064 201.651 73.6056 201.654 74.0448C201.651 74.368 201.59 74.6774 201.471 74.973C201.355 75.2658 201.158 75.5918 200.879 75.9509C200.603 76.31 200.209 76.752 199.698 77.2769L197.759 79.2824V79.3487H201.803V80.2852H196.292L196.284 79.5144ZM206.233 80.4012C205.674 80.4012 205.174 80.3073 204.733 80.1194C204.291 79.9316 203.941 79.6678 203.684 79.328C203.43 78.9882 203.293 78.5973 203.274 78.1553H204.343C204.362 78.4178 204.456 78.6484 204.625 78.8473C204.793 79.0434 205.016 79.1954 205.292 79.3031C205.571 79.4108 205.879 79.4647 206.216 79.4647C206.586 79.4647 206.918 79.4026 207.21 79.2783C207.503 79.1512 207.733 78.9744 207.898 78.7479C208.064 78.5213 208.147 78.2631 208.147 77.973C208.147 77.6636 208.065 77.3901 207.902 77.1526C207.742 76.915 207.507 76.7299 207.198 76.5973C206.889 76.4647 206.517 76.3984 206.083 76.3984H205.395V75.4702H206.083C206.426 75.4702 206.73 75.4095 206.995 75.2879C207.263 75.1664 207.47 74.9965 207.616 74.7782C207.766 74.5573 207.84 74.3017 207.84 74.0117C207.84 73.7327 207.775 73.4868 207.645 73.2741C207.516 73.0614 207.331 72.897 207.09 72.781C206.85 72.6622 206.57 72.6028 206.249 72.6028C205.945 72.6028 205.659 72.6567 205.391 72.7644C205.126 72.8722 204.911 73.0269 204.745 73.2285C204.579 73.4274 204.489 73.6608 204.476 73.9288H203.456C203.473 73.4923 203.608 73.1042 203.862 72.7644C204.116 72.4219 204.455 72.1567 204.878 71.9689C205.3 71.7782 205.763 71.6829 206.266 71.6829C206.788 71.6829 207.245 71.7865 207.637 71.9937C208.032 72.2009 208.335 72.4785 208.545 72.8266C208.757 73.1747 208.862 73.5531 208.86 73.962C208.862 74.2769 208.806 74.5642 208.69 74.8238C208.574 75.0835 208.407 75.3031 208.188 75.4827C207.97 75.6622 207.713 75.7934 207.418 75.8763V75.9426C207.782 75.9979 208.097 76.118 208.362 76.3031C208.63 76.4854 208.835 76.7216 208.976 77.0117C209.116 77.299 209.186 77.6222 209.183 77.9813C209.186 78.4371 209.058 78.8501 208.802 79.2202C208.547 79.5876 208.194 79.8763 207.741 80.0863C207.291 80.2962 206.788 80.4012 206.233 80.4012Z" fill="black"/>
<rect opacity="0.1" width="305" height="81" fill="white"/>
</svg>
