<svg width="265" height="82" viewBox="0 0 265 82" fill="none" xmlns="http://www.w3.org/2000/svg">
    <path d="M4.06347 0H0.419922V62.3003H4.06347V0Z" fill="black"/>
    <path d="M7.70654 0H5.88477V62.3003H7.70654V0Z" fill="black"/>
    <path d="M16.8149 0H11.3496V62.3003H16.8149V0Z" fill="black"/>
    <path d="M22.2808 0H20.459V62.3003H22.2808V0Z" fill="black"/>
    <path d="M27.7471 0H24.1035V62.3003H27.7471V0Z" fill="black"/>
    <path d="M36.8559 0H31.3906V62.3003H36.8559V0Z" fill="black"/>
    <path d="M42.3218 0H40.5V62.3003H42.3218V0Z" fill="black"/>
    <path d="M47.7861 0H44.1426V62.3003H47.7861V0Z" fill="black"/>
    <path d="M58.7173 0H53.252V62.3003H58.7173V0Z" fill="black"/>
    <path d="M64.1826 0H60.5391V62.3003H64.1826V0Z" fill="black"/>
    <path d="M69.6479 0H67.8262V62.3003H69.6479V0Z" fill="black"/>
    <path d="M78.7563 0H73.291V62.3003H78.7563V0Z" fill="black"/>
    <path d="M82.3999 0H80.5781V62.3003H82.3999V0Z" fill="black"/>
    <path d="M89.687 0H87.8652V62.3003H89.687V0Z" fill="black"/>
    <path d="M98.7949 0H91.5078V62.3003H98.7949V0Z" fill="black"/>
    <path d="M102.439 0H100.617V62.3003H102.439V0Z" fill="black"/>
    <path d="M107.905 0H104.262V62.3003H107.905V0Z" fill="black"/>
    <path d="M117.014 0H111.549V62.3003H117.014V0Z" fill="black"/>
    <path d="M124.3 0H120.656V62.3003H124.3V0Z" fill="black"/>
    <path d="M129.767 0H126.123V62.3003H129.767V0Z" fill="black"/>
    <path d="M138.874 0H135.23V62.3003H138.874V0Z" fill="black"/>
    <path d="M146.161 0H140.695V62.3003H146.161V0Z" fill="black"/>
    <path d="M151.628 0H147.984V62.3003H151.628V0Z" fill="black"/>
    <path d="M158.915 0H153.449V62.3003H158.915V0Z" fill="black"/>
    <path d="M162.558 0H160.736V62.3003H162.558V0Z" fill="black"/>
    <path d="M168.022 0H164.379V62.3003H168.022V0Z" fill="black"/>
    <path d="M177.131 0H171.666V62.3003H177.131V0Z" fill="black"/>
    <path d="M186.241 0H180.775V62.3003H186.241V0Z" fill="black"/>
    <path d="M189.884 0H188.062V62.3003H189.884V0Z" fill="black"/>
    <path d="M198.994 0H191.707V62.3003H198.994V0Z" fill="black"/>
    <path d="M204.458 0H200.814V62.3003H204.458V0Z" fill="black"/>
    <path d="M209.923 0H208.102V62.3003H209.923V0Z" fill="black"/>
    <path d="M217.211 0H211.746V62.3003H217.211V0Z" fill="black"/>
    <path d="M224.499 0H220.855V62.3003H224.499V0Z" fill="black"/>
    <path d="M233.607 0H231.785V62.3003H233.607V0Z" fill="black"/>
    <path d="M237.251 0H235.43V62.3003H237.251V0Z" fill="black"/>
    <path d="M244.538 0H240.895V62.3003H244.538V0Z" fill="black"/>
    <path d="M255.467 0H250.002V62.3003H255.467V0Z" fill="black"/>
    <path d="M259.113 0H257.291V62.3003H259.113V0Z" fill="black"/>
    <path d="M264.577 0H260.934V62.3003H264.577V0Z" fill="black"/>
    <path d="M79.1926 80.2852H78.1319V72.9012H78.0821L76.0186 74.2686V73.2078L78.1319 71.799H79.1926V80.2852ZM81.4101 79.5144L84.3023 76.4647C84.6835 76.0586 84.9736 75.7327 85.1725 75.4868C85.3741 75.2382 85.5275 74.9992 85.6324 74.77C85.7374 74.5379 85.7913 74.2962 85.794 74.0448C85.7913 73.7575 85.7153 73.5048 85.5661 73.2865C85.4197 73.0683 85.2181 72.8998 84.9612 72.781C84.707 72.6622 84.4211 72.6028 84.1034 72.6028C83.7719 72.6028 83.4805 72.6691 83.2291 72.8017C82.9805 72.9343 82.7885 73.1208 82.6532 73.3611C82.5206 73.6015 82.4543 73.8791 82.4543 74.194H81.4515C81.4487 73.7023 81.5634 73.2672 81.7954 72.8887C82.0302 72.5075 82.3521 72.212 82.7609 72.002C83.1697 71.7893 83.6283 71.6829 84.1366 71.6829C84.6393 71.6829 85.091 71.7879 85.4916 71.9979C85.8949 72.205 86.2098 72.4882 86.4363 72.8473C86.6628 73.2064 86.7775 73.6056 86.7802 74.0448C86.7775 74.368 86.7167 74.6774 86.5979 74.973C86.4819 75.2658 86.2844 75.5918 86.0054 75.9509C85.7291 76.31 85.3355 76.752 84.8244 77.2769L82.8852 79.2824V79.3487H86.9294V80.2852H81.4183L81.4101 79.5144ZM88.0306 77.6829L91.8511 71.799H93.1439V77.6249H94.3373V78.5531H93.1439V80.2852H92.1411V78.5531H88.0306V77.6829ZM92.1411 77.6249V73.1332H92.0417L89.166 77.5586V77.6249H92.1411ZM98.6238 80.4012C98.0658 80.4012 97.5658 80.3073 97.1238 80.1194C96.6818 79.9316 96.3324 79.6678 96.0755 79.328C95.8213 78.9882 95.6846 78.5973 95.6652 78.1553H96.7343C96.7536 78.4178 96.8476 78.6484 97.0161 78.8473C97.1846 79.0434 97.4069 79.1954 97.6832 79.3031C97.9622 79.4108 98.2702 79.4647 98.6072 79.4647C98.9774 79.4647 99.3089 79.4026 99.6017 79.2783C99.8945 79.1512 100.124 78.9744 100.29 78.7479C100.455 78.5213 100.538 78.2631 100.538 77.973C100.538 77.6636 100.457 77.3901 100.294 77.1526C100.133 76.915 99.8987 76.7299 99.5893 76.5973C99.2799 76.4647 98.9083 76.3984 98.4746 76.3984H97.7868V75.4702H98.4746C98.8172 75.4702 99.121 75.4095 99.3862 75.2879C99.6542 75.1664 99.8614 74.9965 100.008 74.7782C100.157 74.5573 100.232 74.3017 100.232 74.0117C100.232 73.7327 100.167 73.4868 100.037 73.2741C99.9069 73.0614 99.7219 72.897 99.4815 72.781C99.2412 72.6622 98.9608 72.6028 98.6404 72.6028C98.3365 72.6028 98.0506 72.6567 97.7826 72.7644C97.5174 72.8722 97.302 73.0269 97.1362 73.2285C96.9705 73.4274 96.8807 73.6608 96.8669 73.9288H95.8476C95.8641 73.4923 95.9995 73.1042 96.2536 72.7644C96.5078 72.4219 96.8462 72.1567 97.2688 71.9689C97.6915 71.7782 98.1542 71.6829 98.6569 71.6829C99.179 71.6829 99.6362 71.7865 100.028 71.9937C100.424 72.2009 100.726 72.4785 100.936 72.8266C101.149 73.1747 101.254 73.5531 101.251 73.962C101.254 74.2769 101.197 74.5642 101.081 74.8238C100.965 75.0835 100.798 75.3031 100.58 75.4827C100.361 75.6622 100.104 75.7934 99.8089 75.8763V75.9426C100.174 75.9979 100.488 76.118 100.754 76.3031C101.022 76.4854 101.226 76.7216 101.367 77.0117C101.508 77.299 101.577 77.6222 101.574 77.9813C101.577 78.4371 101.45 78.8501 101.193 79.2202C100.939 79.5876 100.585 79.8763 100.132 80.0863C99.6818 80.2962 99.179 80.4012 98.6238 80.4012ZM103.052 79.5144L105.944 76.4647C106.326 76.0586 106.616 75.7327 106.814 75.4868C107.016 75.2382 107.169 74.9992 107.274 74.77C107.379 74.5379 107.433 74.2962 107.436 74.0448C107.433 73.7575 107.357 73.5048 107.208 73.2865C107.062 73.0683 106.86 72.8998 106.603 72.781C106.349 72.6622 106.063 72.6028 105.745 72.6028C105.414 72.6028 105.123 72.6691 104.871 72.8017C104.623 72.9343 104.431 73.1208 104.295 73.3611C104.163 73.6015 104.096 73.8791 104.096 74.194H103.093C103.091 73.7023 103.205 73.2672 103.437 72.8887C103.672 72.5075 103.994 72.212 104.403 72.002C104.812 71.7893 105.27 71.6829 105.779 71.6829C106.281 71.6829 106.733 71.7879 107.134 71.9979C107.537 72.205 107.852 72.4882 108.078 72.8473C108.305 73.2064 108.419 73.6056 108.422 74.0448C108.419 74.368 108.359 74.6774 108.24 74.973C108.124 75.2658 107.926 75.5918 107.647 75.9509C107.371 76.31 106.977 76.752 106.466 77.2769L104.527 79.2824V79.3487H108.571V80.2852H103.06L103.052 79.5144ZM112.844 80.4012C112.219 80.4012 111.685 80.2313 111.24 79.8915C110.798 79.549 110.46 79.0517 110.225 78.3998C109.993 77.7479 109.877 76.962 109.877 76.0421C109.877 75.1305 109.994 74.3487 110.229 73.6968C110.464 73.0421 110.804 72.5434 111.248 72.2009C111.693 71.8556 112.225 71.6829 112.844 71.6829C113.462 71.6829 113.994 71.8556 114.439 72.2009C114.884 72.5434 115.223 73.0421 115.458 73.6968C115.693 74.3487 115.81 75.1305 115.81 76.0421C115.81 76.962 115.693 77.7479 115.458 78.3998C115.226 79.0517 114.888 79.549 114.443 79.8915C114.001 80.2313 113.468 80.4012 112.844 80.4012ZM110.904 76.0421C110.904 76.7686 110.98 77.3887 111.132 77.9026C111.284 78.4136 111.505 78.8017 111.795 79.0669C112.085 79.3321 112.435 79.4647 112.844 79.4647C113.252 79.4647 113.602 79.3321 113.892 79.0669C114.182 78.8017 114.403 78.4136 114.555 77.9026C114.707 77.3887 114.783 76.7686 114.783 76.0421C114.783 75.3155 114.705 74.6954 114.551 74.1816C114.399 73.665 114.178 73.2727 113.888 73.0048C113.598 72.7368 113.25 72.6028 112.844 72.6028C112.437 72.6028 112.089 72.7368 111.799 73.0048C111.509 73.2727 111.287 73.665 111.132 74.1816C110.98 74.6954 110.904 75.3155 110.904 76.0421ZM119.973 71.6829C120.517 71.6829 121.022 71.8073 121.489 72.0559C121.956 72.3045 122.339 72.7285 122.637 73.328C122.938 73.9247 123.089 74.7161 123.089 75.7023C123.089 76.6968 122.959 77.5462 122.699 78.2506C122.439 78.9523 122.068 79.4868 121.584 79.8542C121.101 80.2189 120.528 80.4012 119.865 80.4012C119.376 80.4012 118.935 80.3073 118.543 80.1194C118.151 79.9316 117.83 79.6678 117.582 79.328C117.336 78.9854 117.177 78.589 117.105 78.1387H118.149C118.249 78.5393 118.445 78.8611 118.738 79.1042C119.033 79.3445 119.409 79.4647 119.865 79.4647C120.323 79.4647 120.72 79.3363 121.054 79.0794C121.391 78.8224 121.649 78.4509 121.829 77.9647C122.008 77.4758 122.1 76.8901 122.102 76.2078H121.986C121.741 76.5642 121.428 76.8418 121.05 77.0407C120.674 77.2368 120.263 77.3349 119.815 77.3349C119.312 77.3349 118.848 77.2147 118.423 76.9744C118 76.7313 117.663 76.3957 117.412 75.9675C117.163 75.5393 117.039 75.0586 117.039 74.5255C117.039 74.0034 117.159 73.5255 117.399 73.0918C117.642 72.6581 117.986 72.3155 118.431 72.0642C118.879 71.81 119.392 71.6829 119.973 71.6829ZM118.066 74.5172C118.066 74.8653 118.148 75.1843 118.311 75.4744C118.477 75.7617 118.705 75.9896 118.995 76.1581C119.285 76.3238 119.611 76.4067 119.973 76.4067C120.332 76.4067 120.66 76.3183 120.959 76.1415C121.26 75.962 121.497 75.7258 121.671 75.4329C121.848 75.1401 121.937 74.8294 121.937 74.5006C121.937 74.1747 121.852 73.8666 121.684 73.5766C121.515 73.2865 121.283 73.0531 120.988 72.8763C120.695 72.6995 120.368 72.6111 120.006 72.6111C119.644 72.6111 119.314 72.6968 119.015 72.868C118.72 73.0393 118.486 73.2713 118.315 73.5642C118.147 73.8542 118.064 74.1719 118.066 74.5172ZM124.296 77.6829L128.116 71.799H129.409V77.6249H130.603V78.5531H129.409V80.2852H128.406V78.5531H124.296V77.6829ZM128.406 77.6249V73.1332H128.307L125.431 77.5586V77.6249H128.406ZM134.838 80.2852H133.777V72.9012H133.728L131.664 74.2686V73.2078L133.777 71.799H134.838V80.2852ZM137.056 79.5144L139.948 76.4647C140.329 76.0586 140.619 75.7327 140.818 75.4868C141.02 75.2382 141.173 74.9992 141.278 74.77C141.383 74.5379 141.437 74.2962 141.44 74.0448C141.437 73.7575 141.361 73.5048 141.212 73.2865C141.065 73.0683 140.864 72.8998 140.607 72.781C140.353 72.6622 140.067 72.6028 139.749 72.6028C139.418 72.6028 139.126 72.6691 138.875 72.8017C138.626 72.9343 138.434 73.1208 138.299 73.3611C138.166 73.6015 138.1 73.8791 138.1 74.194H137.097C137.094 73.7023 137.209 73.2672 137.441 72.8887C137.676 72.5075 137.998 72.212 138.406 72.002C138.815 71.7893 139.274 71.6829 139.782 71.6829C140.285 71.6829 140.737 71.7879 141.137 71.9979C141.54 72.205 141.855 72.4882 142.082 72.8473C142.308 73.2064 142.423 73.6056 142.426 74.0448C142.423 74.368 142.362 74.6774 142.243 74.973C142.127 75.2658 141.93 75.5918 141.651 75.9509C141.375 76.31 140.981 76.752 140.47 77.2769L138.531 79.2824V79.3487H142.575V80.2852H137.064L137.056 79.5144ZM147.005 80.4012C146.447 80.4012 145.947 80.3073 145.505 80.1194C145.063 79.9316 144.713 79.6678 144.456 79.328C144.202 78.9882 144.065 78.5973 144.046 78.1553H145.115C145.134 78.4178 145.228 78.6484 145.397 78.8473C145.565 79.0434 145.788 79.1954 146.064 79.3031C146.343 79.4108 146.651 79.4647 146.988 79.4647C147.358 79.4647 147.69 79.4026 147.983 79.2783C148.275 79.1512 148.505 78.9744 148.67 78.7479C148.836 78.5213 148.919 78.2631 148.919 77.973C148.919 77.6636 148.837 77.3901 148.675 77.1526C148.514 76.915 148.279 76.7299 147.97 76.5973C147.661 76.4647 147.289 76.3984 146.855 76.3984H146.168V75.4702H146.855C147.198 75.4702 147.502 75.4095 147.767 75.2879C148.035 75.1664 148.242 74.9965 148.389 74.7782C148.538 74.5573 148.612 74.3017 148.612 74.0117C148.612 73.7327 148.547 73.4868 148.418 73.2741C148.288 73.0614 148.103 72.897 147.862 72.781C147.622 72.6622 147.342 72.6028 147.021 72.6028C146.717 72.6028 146.431 72.6567 146.163 72.7644C145.898 72.8722 145.683 73.0269 145.517 73.2285C145.351 73.4274 145.262 73.6608 145.248 73.9288H144.228C144.245 73.4923 144.38 73.1042 144.634 72.7644C144.889 72.4219 145.227 72.1567 145.65 71.9689C146.072 71.7782 146.535 71.6829 147.038 71.6829C147.56 71.6829 148.017 71.7865 148.409 71.9937C148.804 72.2009 149.107 72.4785 149.317 72.8266C149.529 73.1747 149.634 73.5531 149.632 73.962C149.634 74.2769 149.578 74.5642 149.462 74.8238C149.346 75.0835 149.179 75.3031 148.96 75.4827C148.742 75.6622 148.485 75.7934 148.19 75.8763V75.9426C148.554 75.9979 148.869 76.118 149.134 76.3031C149.402 76.4854 149.607 76.7216 149.748 77.0117C149.889 77.299 149.958 77.6222 149.955 77.9813C149.958 78.4371 149.831 78.8501 149.574 79.2202C149.32 79.5876 148.966 79.8763 148.513 80.0863C148.063 80.2962 147.56 80.4012 147.005 80.4012ZM154.441 80.2852H153.38V72.9012H153.331L151.267 74.2686V73.2078L153.38 71.799H154.441V80.2852ZM156.659 79.5144L159.551 76.4647C159.932 76.0586 160.222 75.7327 160.421 75.4868C160.623 75.2382 160.776 74.9992 160.881 74.77C160.986 74.5379 161.04 74.2962 161.043 74.0448C161.04 73.7575 160.964 73.5048 160.815 73.2865C160.668 73.0683 160.467 72.8998 160.21 72.781C159.956 72.6622 159.67 72.6028 159.352 72.6028C159.02 72.6028 158.729 72.6691 158.478 72.8017C158.229 72.9343 158.037 73.1208 157.902 73.3611C157.769 73.6015 157.703 73.8791 157.703 74.194H156.7C156.697 73.7023 156.812 73.2672 157.044 72.8887C157.279 72.5075 157.601 72.212 158.009 72.002C158.418 71.7893 158.877 71.6829 159.385 71.6829C159.888 71.6829 160.34 71.7879 160.74 71.9979C161.143 72.205 161.458 72.4882 161.685 72.8473C161.911 73.2064 162.026 73.6056 162.029 74.0448C162.026 74.368 161.965 74.6774 161.846 74.973C161.73 75.2658 161.533 75.5918 161.254 75.9509C160.978 76.31 160.584 76.752 160.073 77.2769L158.134 79.2824V79.3487H162.178V80.2852H156.667L156.659 79.5144ZM166.608 80.4012C166.05 80.4012 165.55 80.3073 165.108 80.1194C164.666 79.9316 164.316 79.6678 164.059 79.328C163.805 78.9882 163.668 78.5973 163.649 78.1553H164.718C164.737 78.4178 164.831 78.6484 165 78.8473C165.168 79.0434 165.391 79.1954 165.667 79.3031C165.946 79.4108 166.254 79.4647 166.591 79.4647C166.961 79.4647 167.293 79.4026 167.585 79.2783C167.878 79.1512 168.108 78.9744 168.273 78.7479C168.439 78.5213 168.522 78.2631 168.522 77.973C168.522 77.6636 168.44 77.3901 168.277 77.1526C168.117 76.915 167.882 76.7299 167.573 76.5973C167.264 76.4647 166.892 76.3984 166.458 76.3984H165.771V75.4702H166.458C166.801 75.4702 167.105 75.4095 167.37 75.2879C167.638 75.1664 167.845 74.9965 167.992 74.7782C168.141 74.5573 168.215 74.3017 168.215 74.0117C168.215 73.7327 168.15 73.4868 168.021 73.2741C167.891 73.0614 167.706 72.897 167.465 72.781C167.225 72.6622 166.945 72.6028 166.624 72.6028C166.32 72.6028 166.034 72.6567 165.766 72.7644C165.501 72.8722 165.286 73.0269 165.12 73.2285C164.954 73.4274 164.864 73.6608 164.851 73.9288H163.831C163.848 73.4923 163.983 73.1042 164.237 72.7644C164.492 72.4219 164.83 72.1567 165.253 71.9689C165.675 71.7782 166.138 71.6829 166.641 71.6829C167.163 71.6829 167.62 71.7865 168.012 71.9937C168.407 72.2009 168.71 72.4785 168.92 72.8266C169.132 73.1747 169.237 73.5531 169.235 73.962C169.237 74.2769 169.181 74.5642 169.065 74.8238C168.949 75.0835 168.782 75.3031 168.563 75.4827C168.345 75.6622 168.088 75.7934 167.793 75.8763V75.9426C168.157 75.9979 168.472 76.118 168.737 76.3031C169.005 76.4854 169.21 76.7216 169.351 77.0117C169.492 77.299 169.561 77.6222 169.558 77.9813C169.561 78.4371 169.434 78.8501 169.177 79.2202C168.922 79.5876 168.569 79.8763 168.116 80.0863C167.666 80.2962 167.163 80.4012 166.608 80.4012ZM174.044 80.2852H172.983V72.9012H172.934L170.87 74.2686V73.2078L172.983 71.799H174.044V80.2852ZM176.262 79.5144L179.154 76.4647C179.535 76.0586 179.825 75.7327 180.024 75.4868C180.226 75.2382 180.379 74.9992 180.484 74.77C180.589 74.5379 180.643 74.2962 180.646 74.0448C180.643 73.7575 180.567 73.5048 180.418 73.2865C180.271 73.0683 180.07 72.8998 179.813 72.781C179.558 72.6622 179.273 72.6028 178.955 72.6028C178.623 72.6028 178.332 72.6691 178.081 72.8017C177.832 72.9343 177.64 73.1208 177.505 73.3611C177.372 73.6015 177.306 73.8791 177.306 74.194H176.303C176.3 73.7023 176.415 73.2672 176.647 72.8887C176.882 72.5075 177.204 72.212 177.612 72.002C178.021 71.7893 178.48 71.6829 178.988 71.6829C179.491 71.6829 179.942 71.7879 180.343 71.9979C180.746 72.205 181.061 72.4882 181.288 72.8473C181.514 73.2064 181.629 73.6056 181.632 74.0448C181.629 74.368 181.568 74.6774 181.449 74.973C181.333 75.2658 181.136 75.5918 180.857 75.9509C180.581 76.31 180.187 76.752 179.676 77.2769L177.737 79.2824V79.3487H181.781V80.2852H176.27L176.262 79.5144ZM186.21 80.4012C185.652 80.4012 185.152 80.3073 184.71 80.1194C184.269 79.9316 183.919 79.6678 183.662 79.328C183.408 78.9882 183.271 78.5973 183.252 78.1553H184.321C184.34 78.4178 184.434 78.6484 184.603 78.8473C184.771 79.0434 184.994 79.1954 185.27 79.3031C185.549 79.4108 185.857 79.4647 186.194 79.4647C186.564 79.4647 186.896 79.4026 187.188 79.2783C187.481 79.1512 187.71 78.9744 187.876 78.7479C188.042 78.5213 188.125 78.2631 188.125 77.973C188.125 77.6636 188.043 77.3901 187.88 77.1526C187.72 76.915 187.485 76.7299 187.176 76.5973C186.867 76.4647 186.495 76.3984 186.061 76.3984H185.373V75.4702H186.061C186.404 75.4702 186.708 75.4095 186.973 75.2879C187.241 75.1664 187.448 74.9965 187.594 74.7782C187.744 74.5573 187.818 74.3017 187.818 74.0117C187.818 73.7327 187.753 73.4868 187.623 73.2741C187.494 73.0614 187.309 72.897 187.068 72.781C186.828 72.6622 186.548 72.6028 186.227 72.6028C185.923 72.6028 185.637 72.6567 185.369 72.7644C185.104 72.8722 184.889 73.0269 184.723 73.2285C184.557 73.4274 184.467 73.6608 184.454 73.9288H183.434C183.451 73.4923 183.586 73.1042 183.84 72.7644C184.094 72.4219 184.433 72.1567 184.856 71.9689C185.278 71.7782 185.741 71.6829 186.244 71.6829C186.766 71.6829 187.223 71.7865 187.615 71.9937C188.01 72.2009 188.313 72.4785 188.523 72.8266C188.735 73.1747 188.84 73.5531 188.838 73.962C188.84 74.2769 188.784 74.5642 188.668 74.8238C188.552 75.0835 188.385 75.3031 188.166 75.4827C187.948 75.6622 187.691 75.7934 187.396 75.8763V75.9426C187.76 75.9979 188.075 76.118 188.34 76.3031C188.608 76.4854 188.813 76.7216 188.954 77.0117C189.094 77.299 189.164 77.6222 189.161 77.9813C189.164 78.4371 189.036 78.8501 188.78 79.2202C188.525 79.5876 188.172 79.8763 187.719 80.0863C187.269 80.2962 186.766 80.4012 186.21 80.4012Z" fill="black"/>
    <rect opacity="0.1" width="265" height="81" fill="white"/>
</svg>
